<svg width="30" height="30" viewBox="0 0 30 30" fill="none" xmlns="http://www.w3.org/2000/svg">
<rect width="30" height="30" rx="10" fill="#F2BE55"/>
<path d="M17 10V10C17 9.06812 17 8.60218 16.8478 8.23463C16.6448 7.74458 16.2554 7.35523 15.7654 7.15224C15.3978 7 14.9319 7 14 7H11C9.11438 7 8.17157 7 7.58579 7.58579C7 8.17157 7 9.11438 7 11V14C7 14.9319 7 15.3978 7.15224 15.7654C7.35523 16.2554 7.74458 16.6448 8.23463 16.8478C8.60218 17 9.06812 17 10 17V17" stroke="#FAE1AD" stroke-width="2"/>
<rect x="13" y="13" width="10" height="10" rx="2" stroke="#FAE1AD" stroke-width="2"/>
</svg>
