<svg width="297" height="107" viewBox="0 0 297 107" fill="none" xmlns="http://www.w3.org/2000/svg">
<mask id="path-1-outside-1_108_336" maskUnits="userSpaceOnUse" x="4.93134" y="22.6149" width="271" height="75" fill="black">
<rect fill="white" x="4.93134" y="22.6149" width="271" height="75"/>
<path d="M33.3186 59.7007C32.8336 59.031 32.2804 58.4954 31.6591 58.0938C31.0321 57.6782 30.3439 57.3938 29.5946 57.2406C28.8536 57.0676 28.0572 57.0398 27.2054 57.1573C26.3619 57.255 25.484 57.4894 24.5717 57.8604C23.1961 58.4199 22.0553 59.1524 21.1492 60.0581C20.761 60.4461 20.4158 60.8658 20.1138 61.3174C19.1208 62.8171 18.619 64.5997 18.6084 66.6649C18.6119 68.7245 19.1216 71.0034 20.1377 73.5016C21.1652 76.0279 22.3881 78.0495 23.8065 79.5663C25.2249 81.083 26.8089 82.0418 28.5584 82.4425C30.308 82.8431 32.1933 82.6325 34.2144 81.8105C35.9968 81.0855 37.3719 80.2237 38.3397 79.2249C39.3215 78.2204 39.913 77.1211 40.1143 75.9269C40.3156 74.7328 40.1537 73.4901 39.6285 72.1989L41.7352 71.5874L31.8826 75.5946L28.4919 67.2578L47.6077 59.4831L50.0394 65.462C51.6377 69.3919 52.1697 73.0929 51.6355 76.5652C51.1096 80.0177 49.6896 83.0815 47.3753 85.7565C47.0644 86.1146 46.7403 86.4624 46.4029 86.7999C44.2381 88.9659 41.5286 90.7107 38.2744 92.0342C34.0779 93.741 30.0312 94.3482 26.1343 93.8558C22.2374 93.3634 18.727 91.8306 15.6031 89.2573C12.4933 86.6783 10.0136 83.1151 8.1641 78.5677C6.7142 75.0028 5.97019 71.6251 5.93207 68.4347C5.90798 65.2386 6.47905 62.2993 7.64528 59.6168C8.80579 56.9203 10.4593 54.5712 12.6058 52.5696C14.7465 50.554 17.2696 48.9553 20.1748 47.7737C22.7292 46.7348 25.2496 46.135 27.7359 45.9743C30.2305 45.7939 32.5911 46.0279 34.8176 46.6762C37.0524 47.3048 39.0573 48.3132 40.8323 49.7013C42.6072 51.0894 44.0465 52.8185 45.1502 54.8886L33.3186 59.7007Z"/>
<path d="M78.8161 78.4292L65.4147 80.9499L71.9096 32.3666L88.8847 29.1737L112.588 72.077L99.1862 74.5977L82.9453 43.3338L82.5879 43.401L78.8161 78.4292ZM72.92 60.8525L98.1145 56.1136L99.8622 65.4052L74.6677 70.1441L72.92 60.8525Z"/>
<path d="M122.014 24.6149L137.733 25.1258L147.689 51.8269L148.234 51.8446L159.903 25.8464L175.622 26.3573L174.11 72.8781L161.753 72.4765L162.627 45.5816L162.264 45.5698L151.043 71.7646L143.592 71.5224L134.102 44.4726L133.739 44.4608L132.859 71.5374L120.502 71.1358L122.014 24.6149Z"/>
<path d="M183.781 75.1234L194.44 29.8148L227.094 37.4966L224.763 47.4079L204.409 42.6198L202.577 50.4072L221.249 54.7998L218.918 64.711L200.245 60.3185L198.414 68.1059L218.678 72.8732L216.347 82.7844L183.781 75.1234Z"/>
<path d="M261.701 66.057C262.178 64.6137 262.114 63.304 261.508 62.1278C260.916 60.9576 259.678 59.9752 257.793 59.1807C256.592 58.6745 255.546 58.4062 254.654 58.3758C253.783 58.3372 253.062 58.4857 252.493 58.8214C252.264 58.957 252.057 59.116 251.875 59.2984C251.606 59.5675 251.388 59.8875 251.222 60.2585C250.976 60.7633 250.87 61.2693 250.903 61.7764C250.955 62.2754 251.148 62.7926 251.482 63.3277C251.821 63.849 252.305 64.3982 252.933 64.9754C253.561 65.5525 254.341 66.1607 255.272 66.7997L258.472 69.0367C260.634 70.5398 262.386 72.0593 263.728 73.5951C265.07 75.131 266.043 76.684 266.648 78.2541C267.258 79.8102 267.523 81.3853 267.443 82.9794C267.377 84.5794 267.007 86.1991 266.332 87.8385C265.546 89.677 264.543 91.2065 263.324 92.427C262.676 93.0749 261.967 93.6356 261.198 94.1094C258.978 95.4755 256.354 96.1209 253.328 96.0454C250.315 95.9759 246.994 95.1761 243.364 93.6459C239.636 92.0746 236.615 90.1518 234.302 87.8777C232.002 85.6095 230.567 83.0068 229.997 80.0697C229.446 77.1245 229.92 73.8548 231.418 70.2608L242.476 74.9218C241.993 76.2636 241.856 77.5049 242.065 78.6457C242.275 79.7864 242.814 80.8108 243.68 81.7188C244.561 82.6327 245.742 83.4016 247.222 84.0254C248.464 84.5492 249.569 84.834 250.536 84.88C251.503 84.9259 252.318 84.7679 252.981 84.4058C253.271 84.247 253.527 84.0566 253.75 83.8344C254.034 83.5497 254.263 83.2131 254.436 82.8244C254.699 82.1623 254.724 81.4986 254.511 80.8334C254.318 80.1601 253.836 79.4308 253.066 78.6456C252.301 77.8464 251.196 76.9368 249.752 75.9169L245.868 73.1945C242.417 70.77 240.002 68.1324 238.622 65.2817C237.262 62.4229 237.295 59.321 238.722 55.9761C239.445 54.2363 240.41 52.7624 241.617 51.5545C242.303 50.868 243.068 50.2674 243.91 49.7527C246.255 48.3241 248.975 47.5877 252.068 47.5433C255.175 47.5049 258.425 48.2007 261.818 49.6308C265.281 51.0903 268.031 52.9321 270.07 55.1561C272.109 57.3802 273.368 59.8347 273.847 62.5197C274.347 65.1966 274.012 67.9411 272.843 70.7534L261.701 66.057Z"/>
</mask>
<path d="M33.3186 59.7007C32.8336 59.031 32.2804 58.4954 31.6591 58.0938C31.0321 57.6782 30.3439 57.3938 29.5946 57.2406C28.8536 57.0676 28.0572 57.0398 27.2054 57.1573C26.3619 57.255 25.484 57.4894 24.5717 57.8604C23.1961 58.4199 22.0553 59.1524 21.1492 60.0581C20.761 60.4461 20.4158 60.8658 20.1138 61.3174C19.1208 62.8171 18.619 64.5997 18.6084 66.6649C18.6119 68.7245 19.1216 71.0034 20.1377 73.5016C21.1652 76.0279 22.3881 78.0495 23.8065 79.5663C25.2249 81.083 26.8089 82.0418 28.5584 82.4425C30.308 82.8431 32.1933 82.6325 34.2144 81.8105C35.9968 81.0855 37.3719 80.2237 38.3397 79.2249C39.3215 78.2204 39.913 77.1211 40.1143 75.9269C40.3156 74.7328 40.1537 73.4901 39.6285 72.1989L41.7352 71.5874L31.8826 75.5946L28.4919 67.2578L47.6077 59.4831L50.0394 65.462C51.6377 69.3919 52.1697 73.0929 51.6355 76.5652C51.1096 80.0177 49.6896 83.0815 47.3753 85.7565C47.0644 86.1146 46.7403 86.4624 46.4029 86.7999C44.2381 88.9659 41.5286 90.7107 38.2744 92.0342C34.0779 93.741 30.0312 94.3482 26.1343 93.8558C22.2374 93.3634 18.727 91.8306 15.6031 89.2573C12.4933 86.6783 10.0136 83.1151 8.1641 78.5677C6.7142 75.0028 5.97019 71.6251 5.93207 68.4347C5.90798 65.2386 6.47905 62.2993 7.64528 59.6168C8.80579 56.9203 10.4593 54.5712 12.6058 52.5696C14.7465 50.554 17.2696 48.9553 20.1748 47.7737C22.7292 46.7348 25.2496 46.135 27.7359 45.9743C30.2305 45.7939 32.5911 46.0279 34.8176 46.6762C37.0524 47.3048 39.0573 48.3132 40.8323 49.7013C42.6072 51.0894 44.0465 52.8185 45.1502 54.8886L33.3186 59.7007Z" fill="#D82322"/>
<path d="M78.8161 78.4292L65.4147 80.9499L71.9096 32.3666L88.8847 29.1737L112.588 72.077L99.1862 74.5977L82.9453 43.3338L82.5879 43.401L78.8161 78.4292ZM72.92 60.8525L98.1145 56.1136L99.8622 65.4052L74.6677 70.1441L72.92 60.8525Z" fill="#D82322"/>
<path d="M122.014 24.6149L137.733 25.1258L147.689 51.8269L148.234 51.8446L159.903 25.8464L175.622 26.3573L174.11 72.8781L161.753 72.4765L162.627 45.5816L162.264 45.5698L151.043 71.7646L143.592 71.5224L134.102 44.4726L133.739 44.4608L132.859 71.5374L120.502 71.1358L122.014 24.6149Z" fill="#D82322"/>
<path d="M183.781 75.1234L194.44 29.8148L227.094 37.4966L224.763 47.4079L204.409 42.6198L202.577 50.4072L221.249 54.7998L218.918 64.711L200.245 60.3185L198.414 68.1059L218.678 72.8732L216.347 82.7844L183.781 75.1234Z" fill="#D82322"/>
<path d="M261.701 66.057C262.178 64.6137 262.114 63.304 261.508 62.1278C260.916 60.9576 259.678 59.9752 257.793 59.1807C256.592 58.6745 255.546 58.4062 254.654 58.3758C253.783 58.3372 253.062 58.4857 252.493 58.8214C252.264 58.957 252.057 59.116 251.875 59.2984C251.606 59.5675 251.388 59.8875 251.222 60.2585C250.976 60.7633 250.87 61.2693 250.903 61.7764C250.955 62.2754 251.148 62.7926 251.482 63.3277C251.821 63.849 252.305 64.3982 252.933 64.9754C253.561 65.5525 254.341 66.1607 255.272 66.7997L258.472 69.0367C260.634 70.5398 262.386 72.0593 263.728 73.5951C265.07 75.131 266.043 76.684 266.648 78.2541C267.258 79.8102 267.523 81.3853 267.443 82.9794C267.377 84.5794 267.007 86.1991 266.332 87.8385C265.546 89.677 264.543 91.2065 263.324 92.427C262.676 93.0749 261.967 93.6356 261.198 94.1094C258.978 95.4755 256.354 96.1209 253.328 96.0454C250.315 95.9759 246.994 95.1761 243.364 93.6459C239.636 92.0746 236.615 90.1518 234.302 87.8777C232.002 85.6095 230.567 83.0068 229.997 80.0697C229.446 77.1245 229.92 73.8548 231.418 70.2608L242.476 74.9218C241.993 76.2636 241.856 77.5049 242.065 78.6457C242.275 79.7864 242.814 80.8108 243.68 81.7188C244.561 82.6327 245.742 83.4016 247.222 84.0254C248.464 84.5492 249.569 84.834 250.536 84.88C251.503 84.9259 252.318 84.7679 252.981 84.4058C253.271 84.247 253.527 84.0566 253.75 83.8344C254.034 83.5497 254.263 83.2131 254.436 82.8244C254.699 82.1623 254.724 81.4986 254.511 80.8334C254.318 80.1601 253.836 79.4308 253.066 78.6456C252.301 77.8464 251.196 76.9368 249.752 75.9169L245.868 73.1945C242.417 70.77 240.002 68.1324 238.622 65.2817C237.262 62.4229 237.295 59.321 238.722 55.9761C239.445 54.2363 240.41 52.7624 241.617 51.5545C242.303 50.868 243.068 50.2674 243.91 49.7527C246.255 48.3241 248.975 47.5877 252.068 47.5433C255.175 47.5049 258.425 48.2007 261.818 49.6308C265.281 51.0903 268.031 52.9321 270.07 55.1561C272.109 57.3802 273.368 59.8347 273.847 62.5197C274.347 65.1966 274.012 67.9411 272.843 70.7534L261.701 66.057Z" fill="#D82322"/>
<path d="M33.3186 59.7007C32.8336 59.031 32.2804 58.4954 31.6591 58.0938C31.0321 57.6782 30.3439 57.3938 29.5946 57.2406C28.8536 57.0676 28.0572 57.0398 27.2054 57.1573C26.3619 57.255 25.484 57.4894 24.5717 57.8604C23.1961 58.4199 22.0553 59.1524 21.1492 60.0581C20.761 60.4461 20.4158 60.8658 20.1138 61.3174C19.1208 62.8171 18.619 64.5997 18.6084 66.6649C18.6119 68.7245 19.1216 71.0034 20.1377 73.5016C21.1652 76.0279 22.3881 78.0495 23.8065 79.5663C25.2249 81.083 26.8089 82.0418 28.5584 82.4425C30.308 82.8431 32.1933 82.6325 34.2144 81.8105C35.9968 81.0855 37.3719 80.2237 38.3397 79.2249C39.3215 78.2204 39.913 77.1211 40.1143 75.9269C40.3156 74.7328 40.1537 73.4901 39.6285 72.1989L41.7352 71.5874L31.8826 75.5946L28.4919 67.2578L47.6077 59.4831L50.0394 65.462C51.6377 69.3919 52.1697 73.0929 51.6355 76.5652C51.1096 80.0177 49.6896 83.0815 47.3753 85.7565C47.0644 86.1146 46.7403 86.4624 46.4029 86.7999C44.2381 88.9659 41.5286 90.7107 38.2744 92.0342C34.0779 93.741 30.0312 94.3482 26.1343 93.8558C22.2374 93.3634 18.727 91.8306 15.6031 89.2573C12.4933 86.6783 10.0136 83.1151 8.1641 78.5677C6.7142 75.0028 5.97019 71.6251 5.93207 68.4347C5.90798 65.2386 6.47905 62.2993 7.64528 59.6168C8.80579 56.9203 10.4593 54.5712 12.6058 52.5696C14.7465 50.554 17.2696 48.9553 20.1748 47.7737C22.7292 46.7348 25.2496 46.135 27.7359 45.9743C30.2305 45.7939 32.5911 46.0279 34.8176 46.6762C37.0524 47.3048 39.0573 48.3132 40.8323 49.7013C42.6072 51.0894 44.0465 52.8185 45.1502 54.8886L33.3186 59.7007Z" stroke="#D82322" stroke-width="2" mask="url(#path-1-outside-1_108_336)"/>
<path d="M78.8161 78.4292L65.4147 80.9499L71.9096 32.3666L88.8847 29.1737L112.588 72.077L99.1862 74.5977L82.9453 43.3338L82.5879 43.401L78.8161 78.4292ZM72.92 60.8525L98.1145 56.1136L99.8622 65.4052L74.6677 70.1441L72.92 60.8525Z" stroke="#D82322" stroke-width="2" mask="url(#path-1-outside-1_108_336)"/>
<path d="M122.014 24.6149L137.733 25.1258L147.689 51.8269L148.234 51.8446L159.903 25.8464L175.622 26.3573L174.11 72.8781L161.753 72.4765L162.627 45.5816L162.264 45.5698L151.043 71.7646L143.592 71.5224L134.102 44.4726L133.739 44.4608L132.859 71.5374L120.502 71.1358L122.014 24.6149Z" stroke="#D82322" stroke-width="2" mask="url(#path-1-outside-1_108_336)"/>
<path d="M183.781 75.1234L194.44 29.8148L227.094 37.4966L224.763 47.4079L204.409 42.6198L202.577 50.4072L221.249 54.7998L218.918 64.711L200.245 60.3185L198.414 68.1059L218.678 72.8732L216.347 82.7844L183.781 75.1234Z" stroke="#D82322" stroke-width="2" mask="url(#path-1-outside-1_108_336)"/>
<path d="M261.701 66.057C262.178 64.6137 262.114 63.304 261.508 62.1278C260.916 60.9576 259.678 59.9752 257.793 59.1807C256.592 58.6745 255.546 58.4062 254.654 58.3758C253.783 58.3372 253.062 58.4857 252.493 58.8214C252.264 58.957 252.057 59.116 251.875 59.2984C251.606 59.5675 251.388 59.8875 251.222 60.2585C250.976 60.7633 250.87 61.2693 250.903 61.7764C250.955 62.2754 251.148 62.7926 251.482 63.3277C251.821 63.849 252.305 64.3982 252.933 64.9754C253.561 65.5525 254.341 66.1607 255.272 66.7997L258.472 69.0367C260.634 70.5398 262.386 72.0593 263.728 73.5951C265.07 75.131 266.043 76.684 266.648 78.2541C267.258 79.8102 267.523 81.3853 267.443 82.9794C267.377 84.5794 267.007 86.1991 266.332 87.8385C265.546 89.677 264.543 91.2065 263.324 92.427C262.676 93.0749 261.967 93.6356 261.198 94.1094C258.978 95.4755 256.354 96.1209 253.328 96.0454C250.315 95.9759 246.994 95.1761 243.364 93.6459C239.636 92.0746 236.615 90.1518 234.302 87.8777C232.002 85.6095 230.567 83.0068 229.997 80.0697C229.446 77.1245 229.92 73.8548 231.418 70.2608L242.476 74.9218C241.993 76.2636 241.856 77.5049 242.065 78.6457C242.275 79.7864 242.814 80.8108 243.68 81.7188C244.561 82.6327 245.742 83.4016 247.222 84.0254C248.464 84.5492 249.569 84.834 250.536 84.88C251.503 84.9259 252.318 84.7679 252.981 84.4058C253.271 84.247 253.527 84.0566 253.75 83.8344C254.034 83.5497 254.263 83.2131 254.436 82.8244C254.699 82.1623 254.724 81.4986 254.511 80.8334C254.318 80.1601 253.836 79.4308 253.066 78.6456C252.301 77.8464 251.196 76.9368 249.752 75.9169L245.868 73.1945C242.417 70.77 240.002 68.1324 238.622 65.2817C237.262 62.4229 237.295 59.321 238.722 55.9761C239.445 54.2363 240.41 52.7624 241.617 51.5545C242.303 50.868 243.068 50.2674 243.91 49.7527C246.255 48.3241 248.975 47.5877 252.068 47.5433C255.175 47.5049 258.425 48.2007 261.818 49.6308C265.281 51.0903 268.031 52.9321 270.07 55.1561C272.109 57.3802 273.368 59.8347 273.847 62.5197C274.347 65.1966 274.012 67.9411 272.843 70.7534L261.701 66.057Z" stroke="#D82322" stroke-width="2" mask="url(#path-1-outside-1_108_336)"/>
<path d="M269.083 42.099C268.896 42.02 268.679 42.0623 268.536 42.2061L261.465 49.2772C261.347 49.3949 261.296 49.5634 261.327 49.7268C261.359 49.8901 261.471 50.0269 261.624 50.0915C265.036 51.5298 267.722 53.3343 269.701 55.494C269.793 55.5945 269.923 55.653 270.059 55.656C270.195 55.659 270.327 55.6061 270.423 55.5097L277.495 48.4386C277.684 48.2493 277.69 47.9445 277.51 47.7472C275.412 45.4588 272.596 43.5797 269.083 42.099Z" fill="#D82322" stroke="#D82322" stroke-linejoin="round"/>
<path d="M277.51 47.7472C277.417 47.6467 277.288 47.5882 277.152 47.5852C277.016 47.5822 276.884 47.6351 276.787 47.7315L269.716 54.8026C269.527 54.9919 269.52 55.2967 269.701 55.494C271.683 57.6558 272.894 60.0257 273.355 62.6076C273.388 62.791 273.52 62.9409 273.697 62.9967C273.875 63.0525 274.069 63.005 274.201 62.8733L281.272 55.8022C281.388 55.6866 281.439 55.5217 281.411 55.3607C280.913 52.5726 279.605 50.0335 277.51 47.7472Z" fill="#D82322" stroke="#D82322" stroke-linejoin="round"/>
<path d="M259.133 39.9723C259.002 39.9739 258.878 40.0265 258.785 40.1187L251.714 47.1898C251.571 47.3336 251.528 47.5501 251.607 47.7375C251.686 47.9249 251.871 48.0458 252.074 48.0433C255.101 48.0058 258.283 48.6833 261.624 50.0915C261.811 50.1705 262.028 50.1281 262.172 49.9843L269.243 42.9133C269.36 42.7956 269.412 42.627 269.38 42.4637C269.348 42.3004 269.237 42.1636 269.083 42.099C265.639 40.647 262.321 39.9329 259.133 39.9723Z" fill="#D82322" stroke="#D82322" stroke-linejoin="round"/>
<path d="M281.41 55.3569C281.376 55.1745 281.244 55.0259 281.066 54.971C280.889 54.9161 280.696 54.9638 280.565 55.0951L273.494 62.1661C273.377 62.2827 273.326 62.4493 273.356 62.6114C273.835 65.1818 273.518 67.8279 272.381 70.5614C272.29 70.7818 272.367 71.0362 272.565 71.1689C272.763 71.3016 273.028 71.2757 273.197 71.1069L280.268 64.0359C280.314 63.9896 280.351 63.9347 280.376 63.8742C281.577 60.9833 281.929 58.1403 281.41 55.3569Z" fill="#D82322" stroke="#D82322" stroke-linejoin="round"/>
<path d="M250.721 42.2547C250.687 42.2753 250.656 42.3 250.628 42.3281L243.557 49.3992C243.378 49.5782 243.361 49.8627 243.517 50.0618C243.674 50.2608 243.954 50.3114 244.17 50.1797C246.43 48.8033 249.059 48.0865 252.075 48.0433C252.205 48.0414 252.329 47.9889 252.421 47.8969L259.493 40.8258C259.636 40.6819 259.679 40.4651 259.6 40.2776C259.52 40.0902 259.335 39.9694 259.132 39.9723C255.961 40.0178 253.152 40.7739 250.721 42.2547Z" fill="#D82322" stroke="#D82322" stroke-linejoin="round"/>
<path d="M268.932 55.4103C269.085 55.2576 269.123 55.0239 269.025 54.8311C268.357 53.5099 266.994 52.4649 265.058 51.6489C264.871 51.5699 264.654 51.6123 264.51 51.7561L257.439 58.8271C257.321 58.9448 257.27 59.1134 257.302 59.2767C257.334 59.44 257.445 59.5768 257.599 59.6414C259.432 60.4144 260.546 61.3341 261.062 62.3535C261.134 62.4966 261.271 62.5963 261.429 62.6216C261.587 62.6469 261.748 62.5948 261.861 62.4814L268.932 55.4103Z" fill="#D82322" stroke="#D82322" stroke-linejoin="round"/>
<path d="M280.268 64.0359C280.385 63.9182 280.437 63.7496 280.405 63.5863C280.373 63.423 280.262 63.2862 280.108 63.2216L268.967 58.5252C268.779 58.4462 268.563 58.4886 268.419 58.6324L261.348 65.7035C261.23 65.8212 261.179 65.9897 261.211 66.153C261.243 66.3164 261.354 66.4531 261.507 66.5178L272.649 71.2141C272.836 71.2931 273.053 71.2507 273.197 71.1069L280.268 64.0359Z" fill="#D82322" stroke="#D82322" stroke-linejoin="round"/>
<path d="M269.126 59.3395C269.181 59.2843 269.223 59.217 269.247 59.1428C269.759 57.5927 269.7 56.1414 269.023 54.8279C268.95 54.6859 268.814 54.5874 268.656 54.5628C268.498 54.5382 268.338 54.5904 268.225 54.7033L261.154 61.7743C261.001 61.9281 260.964 62.1636 261.063 62.3569C261.598 63.3957 261.668 64.5637 261.227 65.9002C261.154 66.1201 261.242 66.3612 261.439 66.4827C261.636 66.6042 261.891 66.5744 262.055 66.4106L269.126 59.3395Z" fill="#D82322" stroke="#D82322" stroke-linejoin="round"/>
<path d="M265.217 52.4632C265.335 52.3455 265.386 52.1769 265.354 52.0136C265.323 51.8502 265.211 51.7135 265.058 51.6489C263.825 51.129 262.716 50.8383 261.743 50.805C261.604 50.8002 261.47 50.8532 261.372 50.9511L254.301 58.0222C254.16 58.163 254.116 58.3739 254.189 58.5592C254.262 58.7444 254.438 58.8687 254.637 58.8755C255.447 58.9031 256.43 59.149 257.599 59.6414C257.786 59.7204 258.002 59.678 258.146 59.5342L265.217 52.4632Z" fill="#D82322" stroke="#D82322" stroke-linejoin="round"/>
<path d="M262.079 51.6583C262.219 51.5181 262.263 51.3084 262.192 51.1236C262.12 50.9389 261.946 50.814 261.748 50.8052C260.81 50.7637 259.986 50.9214 259.31 51.3197C259.274 51.3411 259.241 51.367 259.211 51.3968L252.14 58.4679C251.962 58.6459 251.944 58.9286 252.098 59.1277C252.252 59.3267 252.531 59.38 252.748 59.2521C253.21 58.9791 253.827 58.8397 254.632 58.8753C254.772 58.8815 254.909 58.8285 255.008 58.7293L262.079 51.6583Z" fill="#D82322" stroke="#D82322" stroke-linejoin="round"/>
<path d="M259.918 52.1039C260.096 51.9259 260.114 51.6432 259.96 51.4441C259.806 51.2451 259.527 51.1918 259.311 51.3197C259.046 51.476 258.806 51.6606 258.592 51.8738L258.592 51.8739L251.522 58.9447C251.521 58.9448 251.521 58.9448 251.521 58.9448L251.521 58.9449C251.326 59.1402 251.326 59.4567 251.521 59.652C251.716 59.8473 252.033 59.8473 252.228 59.6521C252.228 59.6521 252.228 59.6521 252.228 59.652C252.38 59.5004 252.553 59.367 252.748 59.2521C252.784 59.2307 252.817 59.2048 252.847 59.175L259.918 52.1039Z" fill="#D82322" stroke="#D82322" stroke-linejoin="round"/>
<path d="M241.268 51.1964L241.268 51.1965C241.268 51.1965 241.268 51.1966 241.268 51.1967L241.264 51.201L241.264 51.201C241.073 51.3966 241.074 51.7098 241.268 51.9035C241.462 52.0974 241.775 52.0988 241.971 51.9079L241.971 51.9079L241.975 51.9037C241.975 51.9037 241.975 51.9037 241.975 51.9037C241.975 51.9036 241.975 51.9036 241.975 51.9036C242.632 51.2474 243.363 50.6727 244.171 50.1794C244.205 50.1588 244.236 50.1342 244.264 50.1063L251.335 43.0352C251.514 42.8561 251.531 42.5714 251.374 42.3724C251.217 42.1734 250.937 42.1229 250.721 42.255C249.845 42.7899 249.049 43.4149 248.335 44.1299C248.335 44.1299 248.335 44.1299 248.335 44.1299L241.268 51.1963C241.268 51.1963 241.268 51.1963 241.268 51.1963C241.268 51.1964 241.268 51.1964 241.268 51.1964Z" fill="#D82322" stroke="#D82322" stroke-linejoin="round"/>
<path d="M258.591 51.8751L258.591 51.875L258.591 51.8751ZM258.591 51.8751C258.591 51.8751 258.591 51.8752 258.591 51.8752C258.591 51.8753 258.591 51.8753 258.591 51.8754M258.591 51.8751L258.591 51.8754M258.591 51.8754L251.521 58.9448C251.521 58.9449 251.521 58.9449 251.521 58.9449L258.591 51.8754ZM258.946 52.2274L258.945 52.2286M259.299 52.5811C259.494 52.3857 259.493 52.0699 259.298 51.875C259.103 51.6802 258.788 51.6798 258.593 51.8737L259.299 52.5811Z" fill="#D82322" stroke="#D82322" stroke-linejoin="round"/>
<path d="M258.742 53.4062C258.849 53.1866 258.782 52.922 258.583 52.7803C258.384 52.6385 258.112 52.6612 257.939 52.8339L250.868 59.905C250.829 59.9442 250.796 59.9898 250.772 60.0397C250.493 60.6142 250.365 61.2062 250.404 61.8088C250.416 62.0047 250.543 62.1751 250.726 62.2443C250.91 62.3136 251.117 62.2688 251.256 62.13L258.327 55.0589C258.429 54.9572 258.482 54.8166 258.473 54.673C258.446 54.2613 258.531 53.8414 258.742 53.4062Z" fill="#D82322" stroke="#D82322" stroke-linejoin="round"/>
<path d="M265.829 61.5551C265.63 61.417 265.361 61.4409 265.19 61.6121L258.119 68.6832C258.014 68.7879 257.961 68.9336 257.974 69.0811C257.987 69.2286 258.065 69.3627 258.187 69.4472C260.324 70.9334 262.043 72.4265 263.352 73.9242C263.443 74.0284 263.573 74.0902 263.711 74.0949C263.85 74.0995 263.984 74.0466 264.082 73.9487L271.153 66.8776C271.339 66.6916 271.349 66.3932 271.176 66.1951C269.8 64.621 268.015 63.0752 265.829 61.5551Z" fill="#D82322" stroke="#D82322" stroke-linejoin="round"/>
<path d="M271.176 66.1951C271.084 66.0909 270.954 66.029 270.816 66.0244C270.678 66.0197 270.543 66.0727 270.446 66.1706L263.374 73.2416C263.188 73.4277 263.178 73.7261 263.352 73.9242C264.663 75.425 265.602 76.9285 266.181 78.4337C266.242 78.5916 266.378 78.7081 266.544 78.7432C266.709 78.7783 266.882 78.7273 267.001 78.6077L274.072 71.5366C274.212 71.3969 274.256 71.1879 274.185 71.0035C273.556 69.3684 272.548 67.766 271.176 66.1951Z" fill="#D82322" stroke="#D82322" stroke-linejoin="round"/>
<path d="M262.629 59.3188C262.43 59.1799 262.161 59.2036 261.989 59.3751L254.918 66.4462C254.814 66.5507 254.761 66.6962 254.774 66.8435C254.787 66.9908 254.864 67.1248 254.985 67.2095L258.186 69.4465C258.385 69.5854 258.654 69.5617 258.826 69.3903L265.897 62.3192C266.002 62.2146 266.054 62.0691 266.041 61.9218C266.029 61.7745 265.951 61.6405 265.83 61.5558L262.629 59.3188Z" fill="#D82322" stroke="#D82322" stroke-linejoin="round"/>
<path d="M258.471 54.6528C258.451 54.4612 258.322 54.2982 258.14 54.234C257.959 54.1697 257.756 54.2155 257.62 54.3518L250.549 61.4228C250.442 61.5296 250.389 61.6788 250.405 61.8289C250.468 62.42 250.694 63.0088 251.057 63.5922C251.138 63.7216 251.273 63.8071 251.425 63.8245C251.576 63.8419 251.728 63.7891 251.835 63.6813L258.906 56.6102C259.071 56.4458 259.1 56.1897 258.977 55.9923C258.674 55.5053 258.514 55.0599 258.471 54.6528Z" fill="#D82322" stroke="#D82322" stroke-linejoin="round"/>
<path d="M260.342 57.5361C260.145 57.3548 259.84 57.3613 259.651 57.5507L252.58 64.6218C252.483 64.7182 252.43 64.8497 252.433 64.9859C252.436 65.1222 252.494 65.2513 252.595 65.3435C253.245 65.9409 254.044 66.5635 254.989 67.2119C255.187 67.3483 255.455 67.3236 255.625 67.1533L262.696 60.0822C262.801 59.9771 262.854 59.8307 262.841 59.6828C262.827 59.5348 262.748 59.4005 262.626 59.3164C261.708 58.6867 260.949 58.0932 260.342 57.5361Z" fill="#D82322" stroke="#D82322" stroke-linejoin="round"/>
<path d="M258.972 55.9839C258.89 55.8576 258.755 55.7751 258.605 55.7594C258.455 55.7438 258.306 55.7966 258.199 55.9032L251.128 62.9742C250.961 63.1413 250.934 63.4026 251.063 63.6006C251.432 64.1671 251.946 64.7478 252.595 65.3436C252.792 65.5248 253.097 65.5184 253.287 65.3289L260.358 58.2579C260.454 58.1615 260.507 58.03 260.504 57.8938C260.501 57.7575 260.443 57.6284 260.342 57.5361C259.735 56.9776 259.282 56.4598 258.972 55.9839Z" fill="#D82322" stroke="#D82322" stroke-linejoin="round"/>
<path d="M274.184 71.0005C274.123 70.8435 273.986 70.7281 273.821 70.6936C273.656 70.6591 273.484 70.7102 273.365 70.8295L266.294 77.9006C266.154 78.0411 266.11 78.2516 266.182 78.4366C266.768 79.9299 267.02 81.4345 266.944 82.9544C266.933 83.1609 267.051 83.3526 267.24 83.4365C267.429 83.5204 267.65 83.4792 267.796 83.333L274.868 76.2619C274.955 76.1743 275.007 76.0572 275.013 75.9335C275.097 74.2652 274.819 72.6195 274.184 71.0005Z" fill="#D82322" stroke="#D82322" stroke-linejoin="round"/>
<path d="M246.146 49.2586C246.193 49.2123 246.23 49.1573 246.255 49.0969C246.955 47.4113 247.885 45.9941 249.042 44.837C249.042 44.8369 249.042 44.8369 249.042 44.8369C249.237 44.6416 249.237 44.325 249.042 44.1298C248.846 43.9346 248.53 43.9346 248.335 44.1298L248.335 44.1299L241.264 51.2009L241.264 51.201C240.005 52.4598 239.006 53.9903 238.26 55.7843C238.169 56.0046 238.246 56.259 238.444 56.3917C238.642 56.5244 238.907 56.4984 239.075 56.3297L246.146 49.2586Z" fill="#D82322" stroke="#D82322" stroke-linejoin="round"/>
<path d="M234.652 30.5401C234.703 30.3226 234.604 30.0975 234.408 29.9888C234.213 29.8801 233.97 29.914 233.812 30.072L226.741 37.1431C226.675 37.2089 226.629 37.2917 226.607 37.3822L224.276 47.2934C224.225 47.5109 224.324 47.736 224.519 47.8447C224.714 47.9535 224.958 47.9195 225.116 47.7615L232.187 40.6904C232.253 40.6247 232.299 40.5419 232.32 40.4514L234.652 30.5401Z" fill="#D82322" stroke="#D82322" stroke-linejoin="round"/>
<path d="M275.014 75.929C275.022 75.7232 274.903 75.5332 274.715 75.4505C274.526 75.3678 274.306 75.4092 274.16 75.5548L267.089 82.6259C267.001 82.7146 266.949 82.8335 266.943 82.9588C266.88 84.4946 266.524 86.0571 265.87 87.6483C265.779 87.8687 265.856 88.1224 266.055 88.2546C266.253 88.3868 266.517 88.3606 266.685 88.1921L273.757 81.121C273.803 81.0743 273.84 81.0188 273.865 80.9577C274.56 79.2701 274.945 77.5932 275.014 75.929Z" fill="#D82322" stroke="#D82322" stroke-linejoin="round"/>
<path d="M246.047 58.5642C246.197 58.4146 246.236 58.1869 246.145 57.9958C244.856 55.2864 244.873 52.336 246.253 49.1012C246.347 48.8808 246.271 48.6248 246.073 48.4907C245.874 48.3566 245.609 48.3821 245.439 48.5515L238.368 55.6225C238.323 55.6677 238.287 55.7212 238.262 55.78C236.789 59.2351 236.74 62.4884 238.171 65.4965C238.241 65.6432 238.377 65.7469 238.537 65.7744C238.697 65.802 238.861 65.7501 238.976 65.6353L246.047 58.5642Z" fill="#D82322" stroke="#D82322" stroke-linejoin="round"/>
<path d="M201.626 22.2571C201.457 22.2174 201.28 22.2678 201.158 22.3902L194.087 29.4613C193.958 29.5895 193.91 29.7772 193.959 29.9517C194.009 30.1261 194.149 30.26 194.326 30.3016L226.98 37.9834C227.148 38.023 227.325 37.9726 227.448 37.8502L234.519 30.7791C234.647 30.6509 234.696 30.4632 234.646 30.2888C234.596 30.1143 234.456 29.9804 234.28 29.9389L201.626 22.2571Z" fill="#D82322" stroke="#D82322" stroke-linejoin="round"/>
<path d="M273.683 80.3533C273.882 80.4875 273.957 80.7436 273.863 80.9639C273.056 82.8519 272.02 84.4373 270.748 85.7094L270.748 85.7095L263.677 92.7805M273.683 80.3533L272.943 80.571C272.757 81.0067 272.559 81.4238 272.348 81.8223L266.332 87.8385C266.072 88.4476 265.788 89.0227 265.48 89.5639L262.971 92.0729M273.683 80.3533C273.485 80.2191 273.219 80.2445 273.049 80.4139L265.978 87.485C265.933 87.5301 265.897 87.5834 265.872 87.642C265.108 89.4308 264.139 90.9041 262.971 92.0729M273.683 80.3533L262.971 92.0729M263.677 92.7805L263.677 92.7806C263.482 92.9758 263.165 92.9758 262.97 92.7806C262.775 92.5854 262.775 92.2688 262.97 92.0736C262.97 92.0735 262.97 92.0735 262.97 92.0735C262.97 92.0733 262.97 92.0731 262.971 92.0729M263.677 92.7805C264.513 91.9446 265.247 90.9735 265.88 89.8702L270.395 85.3559C271.301 84.4489 272.088 83.3713 272.755 82.1229L263.677 92.7805Z" fill="#D82322" stroke="#D82322" stroke-linejoin="round"/>
<path d="M260.49 71.9281C260.682 71.7359 260.686 71.4253 260.498 71.2289C259.702 70.3969 258.568 69.4663 257.111 68.4374C256.912 68.297 256.641 68.3202 256.469 68.4923L249.398 75.5633C249.294 75.6676 249.241 75.8126 249.253 75.9595C249.266 76.1064 249.343 76.2403 249.463 76.3253C250.895 77.3363 251.971 78.2248 252.704 78.9913C252.797 79.0885 252.926 79.1441 253.06 79.1456C253.195 79.1471 253.324 79.0943 253.419 78.9992L260.49 71.9281Z" fill="#D82322" stroke="#D82322" stroke-linejoin="round"/>
<path d="M261.936 74.1159C262.064 73.9874 262.113 73.7993 262.063 73.6246C261.837 72.8382 261.292 72.0383 260.493 71.2244C260.4 71.1291 260.272 71.0752 260.139 71.0746C260.005 71.074 259.877 71.1267 259.783 71.221L252.712 78.2921C252.518 78.4861 252.516 78.8001 252.709 78.9959C253.451 79.7524 253.87 80.411 254.03 80.9712C254.079 81.1415 254.214 81.2732 254.386 81.3175C254.557 81.3619 254.739 81.3122 254.865 81.187L261.936 74.1159Z" fill="#D82322" stroke="#D82322" stroke-linejoin="round"/>
<path d="M257.176 69.1994C257.281 69.0949 257.334 68.9496 257.321 68.8024C257.308 68.6552 257.231 68.5212 257.11 68.4364L253.226 65.714C253.027 65.5747 252.757 65.5983 252.585 65.7699L245.514 72.841C245.41 72.9455 245.357 73.0908 245.37 73.238C245.382 73.3852 245.46 73.5192 245.581 73.604L249.465 76.3263C249.663 76.4656 249.933 76.4421 250.105 76.2704L257.176 69.1994Z" fill="#D82322" stroke="#D82322" stroke-linejoin="round"/>
<path d="M253.292 66.477C253.397 66.3726 253.45 66.2274 253.437 66.0803C253.424 65.9332 253.347 65.7992 253.226 65.7144C249.823 63.3231 247.476 60.7457 246.143 57.9928C246.073 57.8471 245.936 57.7446 245.777 57.7176C245.617 57.6907 245.454 57.7426 245.34 57.8571L238.269 64.9281C238.118 65.0787 238.079 65.308 238.172 65.4995C239.599 68.448 242.082 71.1459 245.58 73.6036C245.779 73.7433 246.049 73.7199 246.221 73.5481L253.292 66.477Z" fill="#D82322" stroke="#D82322" stroke-linejoin="round"/>
<path d="M261.861 76.1069C261.909 76.0586 261.947 76.0011 261.972 75.9377C262.277 75.1703 262.307 74.3877 262.058 73.6099C262.005 73.4439 261.869 73.3175 261.7 73.2764C261.53 73.2353 261.352 73.2855 261.229 73.4088L254.157 80.4798C254.025 80.6122 253.978 80.8075 254.035 80.9858C254.212 81.5385 254.193 82.0831 253.972 82.64C253.884 82.8604 253.964 83.1119 254.162 83.2422C254.36 83.3724 254.622 83.3456 254.79 83.1779L261.861 76.1069Z" fill="#D82322" stroke="#D82322" stroke-linejoin="round"/>
<path d="M253.751 83.8332L253.75 83.8343M253.397 83.4797L253.396 83.4808C253.202 83.6762 253.202 83.9919 253.397 84.1868C253.592 84.3816 253.908 84.382 254.103 84.1879L253.397 83.4797ZM254.104 84.1867L254.104 84.1866L254.104 84.1866L261.174 77.1169C261.174 77.1169 261.174 77.1169 261.174 77.1168C261.505 76.7865 261.768 76.3981 261.964 75.9567C262.062 75.7365 261.989 75.4777 261.791 75.3412C261.592 75.2047 261.324 75.2293 261.154 75.3997L254.083 82.4708C254.04 82.5141 254.005 82.565 253.98 82.621C253.83 82.9563 253.636 83.2409 253.397 83.4795C253.397 83.4795 253.397 83.4796 253.397 83.4796C253.397 83.4796 253.397 83.4797 253.397 83.4797L254.104 84.1867Z" fill="#D82322" stroke="#D82322" stroke-linejoin="round"/>
<path d="M232.187 40.6904C232.315 40.5621 232.364 40.3745 232.315 40.2C232.265 40.0255 232.125 39.8916 231.948 39.8501L211.595 35.062C211.426 35.0223 211.249 35.0727 211.127 35.1952L204.056 42.2662C203.927 42.3945 203.879 42.5821 203.928 42.7566C203.978 42.9311 204.118 43.065 204.295 43.1065L224.648 47.8946C224.817 47.9343 224.994 47.8839 225.116 47.7614L232.187 40.6904Z" fill="#D82322" stroke="#D82322" stroke-linejoin="round"/>
<path d="M259.812 76.896C259.77 76.9188 259.732 76.9475 259.698 76.9812L252.627 84.0523C252.451 84.2281 252.431 84.5065 252.58 84.7055C252.729 84.9046 253.002 84.9638 253.22 84.8445C253.55 84.6642 253.845 84.4456 254.103 84.188L254.103 84.1879L261.174 77.117L261.174 77.1169C261.37 76.9216 261.37 76.6051 261.174 76.4098C260.979 76.2145 260.663 76.2145 260.467 76.4097C260.28 76.5965 260.063 76.7589 259.812 76.896Z" fill="#D82322" stroke="#D82322" stroke-linejoin="round"/>
<path d="M270.037 85.0068L270.041 85.0025L270.041 85.0025C270.237 84.8116 270.55 84.8131 270.744 85.007C270.937 85.2007 270.939 85.5138 270.748 85.7094L270.748 85.7094L270.744 85.7135C270.744 85.7137 270.744 85.7139 270.744 85.714L270.744 85.7142L263.677 92.7805C263.002 93.4556 262.263 94.0407 261.46 94.5352C261.244 94.6681 260.962 94.6183 260.805 94.4193C260.648 94.2203 260.665 93.9351 260.844 93.7558L267.915 86.6847C267.943 86.6572 267.973 86.6329 268.007 86.6125C268.741 86.1607 269.417 85.6261 270.036 85.0077C270.036 85.0074 270.036 85.0072 270.037 85.0069L270.037 85.0068ZM270.037 85.0068L270.39 85.3605L270.037 85.0068ZM261.198 94.1094L261.551 94.4629L263.455 92.5587L261.198 94.1094ZM263.455 92.5587L268.581 87.4329L263.455 92.5587Z" fill="#D82322" stroke="#D82322" stroke-linejoin="round"/>
<path d="M257.631 77.3095C257.49 77.3028 257.353 77.3558 257.254 77.4553L250.183 84.5264C250.043 84.6664 249.999 84.8757 250.07 85.0603C250.141 85.2449 250.315 85.37 250.513 85.3794C251.546 85.4285 252.458 85.2615 253.22 84.8445C253.262 84.8217 253.3 84.793 253.334 84.7593L260.405 77.6883C260.581 77.5124 260.601 77.234 260.452 77.035C260.303 76.8359 260.03 76.7767 259.812 76.896C259.25 77.2032 258.532 77.3523 257.631 77.3095Z" fill="#D82322" stroke="#D82322" stroke-linejoin="round"/>
<path d="M250.017 68.0202C250.097 67.8 250.013 67.5541 249.815 67.4286C249.617 67.3032 249.359 67.3317 249.193 67.4972L242.122 74.5683C242.07 74.6203 242.03 74.6832 242.005 74.7524C241.499 76.1584 241.345 77.4905 241.574 78.7361C241.607 78.9188 241.739 79.0679 241.917 79.1231C242.094 79.1783 242.288 79.1306 242.419 78.9993L249.49 71.9282C249.606 71.8119 249.658 71.6459 249.628 71.4842C249.438 70.4484 249.557 69.2979 250.017 68.0202Z" fill="#D82322" stroke="#D82322" stroke-linejoin="round"/>
<path d="M254.487 76.4936C254.299 76.4146 254.083 76.457 253.939 76.6008L246.868 83.6719C246.75 83.7896 246.699 83.9581 246.731 84.1214C246.763 84.2848 246.874 84.4215 247.027 84.4862C248.304 85.0245 249.469 85.3298 250.513 85.3794C250.653 85.3861 250.79 85.3332 250.89 85.2336L257.961 78.1625C258.101 78.0225 258.145 77.8132 258.074 77.6286C258.002 77.444 257.829 77.3189 257.631 77.3095C256.741 77.2672 255.695 77.0029 254.487 76.4936Z" fill="#D82322" stroke="#D82322" stroke-linejoin="round"/>
<path d="M238.683 62.729C238.496 62.65 238.279 62.6923 238.136 62.8361L231.065 69.9072C230.947 70.0249 230.895 70.1934 230.927 70.3568C230.959 70.5201 231.071 70.6569 231.224 70.7215L242.282 75.3826C242.469 75.4615 242.686 75.4192 242.829 75.2754L249.9 68.2043C250.018 68.0866 250.07 67.9181 250.038 67.7547C250.006 67.5914 249.895 67.4547 249.741 67.39L238.683 62.729Z" fill="#D82322" stroke="#D82322" stroke-linejoin="round"/>
<path d="M249.628 71.4842C249.595 71.3015 249.463 71.1525 249.285 71.0972C249.108 71.042 248.914 71.0897 248.783 71.2211L241.712 78.2922C241.596 78.4084 241.544 78.5744 241.574 78.7361C241.802 79.9806 242.39 81.0917 243.319 82.0641C243.412 82.1615 243.54 82.2172 243.675 82.2188C243.809 82.2204 243.939 82.1676 244.034 82.0724L251.105 75.0013C251.297 74.8092 251.301 74.499 251.113 74.3025C250.308 73.4589 249.819 72.5212 249.628 71.4842Z" fill="#D82322" stroke="#D82322" stroke-linejoin="round"/>
<path d="M251.111 74.3008C251.018 74.2042 250.89 74.149 250.756 74.1478C250.622 74.1466 250.493 74.1993 250.398 74.2942L243.327 81.3653C243.134 81.558 243.131 81.8696 243.32 82.0658C244.259 83.0396 245.501 83.8428 247.027 84.4862C247.215 84.5652 247.431 84.5228 247.575 84.379L254.646 77.3079C254.764 77.1902 254.815 77.0217 254.783 76.8583C254.751 76.695 254.64 76.5583 254.487 76.4936C253.053 75.8894 251.935 75.1548 251.111 74.3008Z" fill="#D82322" stroke="#D82322" stroke-linejoin="round"/>
<path d="M268.622 87.3919C268.802 87.2126 268.818 86.9274 268.661 86.7284C268.504 86.5294 268.223 86.4796 268.007 86.6125C265.882 87.9202 263.357 88.548 260.411 88.4746C260.274 88.4712 260.142 88.524 260.045 88.6209L252.974 95.6919C252.833 95.8333 252.789 96.0454 252.863 96.2311C252.938 96.4167 253.115 96.5403 253.315 96.5453C256.422 96.6228 259.144 95.9599 261.46 94.5352C261.493 94.5148 261.524 94.4905 261.551 94.463L268.622 87.3919Z" fill="#D82322" stroke="#D82322" stroke-linejoin="round"/>
<path d="M228.807 47.8432C228.858 47.6257 228.759 47.4006 228.564 47.2919C228.368 47.1832 228.125 47.2171 227.967 47.3751L220.896 54.4462C220.83 54.512 220.784 54.5948 220.762 54.6853L218.431 64.5965C218.38 64.814 218.479 65.0391 218.674 65.1478C218.869 65.2566 219.113 65.2226 219.271 65.0646L226.342 57.9935C226.408 57.9278 226.454 57.845 226.475 57.7545L228.807 47.8432Z" fill="#D82322" stroke="#D82322" stroke-linejoin="round"/>
<path d="M209.763 42.8494C209.594 42.8098 209.417 42.8601 209.295 42.9826L202.223 50.0536C202.095 50.1819 202.046 50.3695 202.096 50.544C202.146 50.7185 202.286 50.8524 202.463 50.8939L221.135 55.2865C221.303 55.3261 221.48 55.2758 221.603 55.1533L228.674 48.0822C228.802 47.954 228.851 47.7663 228.801 47.5919C228.751 47.4174 228.611 47.2835 228.435 47.242L209.763 42.8494Z" fill="#D82322" stroke="#D82322" stroke-linejoin="round"/>
<path d="M211.967 35.6632C212.018 35.4457 211.919 35.2206 211.723 35.1119C211.528 35.0032 211.285 35.0372 211.127 35.1952L204.055 42.2662C203.99 42.332 203.944 42.4148 203.922 42.5053L202.09 50.2927C202.039 50.5102 202.139 50.7353 202.334 50.844C202.529 50.9527 202.773 50.9187 202.931 50.7607L210.002 43.6897C210.067 43.6239 210.114 43.5411 210.135 43.4506L211.967 35.6632Z" fill="#D82322" stroke="#D82322" stroke-linejoin="round"/>
<path d="M237.421 73.3522C237.538 73.2355 237.589 73.0688 237.559 72.9067C237.031 70.082 237.479 66.9129 238.951 63.3821C239.043 63.1617 238.966 62.9072 238.767 62.7743C238.569 62.6414 238.304 62.6673 238.136 62.8361L231.065 69.9072C231.018 69.9534 230.982 70.0081 230.957 70.0683C229.432 73.7257 228.932 77.0959 229.505 80.1616C229.539 80.3439 229.671 80.4924 229.849 80.5473C230.026 80.6022 230.219 80.5544 230.35 80.4232L237.421 73.3522Z" fill="#D82322" stroke="#D82322" stroke-linejoin="round"/>
<path d="M260.752 89.328C260.894 89.1864 260.937 88.9742 260.863 88.7884C260.788 88.6026 260.61 88.4792 260.41 88.4745C257.476 88.4068 254.218 87.627 250.629 86.1141C250.442 86.0352 250.225 86.0775 250.081 86.2213L243.01 93.2924C242.892 93.4101 242.841 93.5786 242.873 93.742C242.905 93.9053 243.016 94.042 243.169 94.1067C246.841 95.6541 250.225 96.474 253.316 96.5453C253.453 96.5485 253.585 96.4956 253.681 96.399L260.752 89.328Z" fill="#D82322" stroke="#D82322" stroke-linejoin="round"/>
<path d="M241.726 81.1602C241.821 81.066 241.873 80.9381 241.873 80.8049C241.872 80.6717 241.819 80.5442 241.724 80.4507C239.49 78.2473 238.108 75.7334 237.558 72.9032C237.523 72.7217 237.391 72.5745 237.214 72.5205C237.037 72.4664 236.845 72.5143 236.714 72.645L229.643 79.7161C229.525 79.8336 229.474 80.0019 229.506 80.165C230.097 83.2091 231.585 85.9005 233.951 88.2337C234.146 88.4267 234.461 88.4256 234.655 88.2313L241.726 81.1602Z" fill="#D82322" stroke="#D82322" stroke-linejoin="round"/>
<path d="M250.788 86.9284C250.906 86.8107 250.957 86.6422 250.925 86.4788C250.893 86.3155 250.782 86.1788 250.629 86.1141C246.946 84.5615 243.982 82.6705 241.723 80.4501C241.528 80.2577 241.213 80.259 241.019 80.4531L233.948 87.5242C233.854 87.6184 233.801 87.7465 233.802 87.8799C233.802 88.0132 233.856 88.1408 233.951 88.2343C236.319 90.5622 239.397 92.5166 243.169 94.1067C243.357 94.1856 243.573 94.1433 243.717 93.9995L250.788 86.9284Z" fill="#D82322" stroke="#D82322" stroke-linejoin="round"/>
<path d="M226.342 57.9936C226.47 57.8653 226.519 57.6776 226.47 57.5032C226.42 57.3287 226.28 57.1948 226.103 57.1533L207.431 52.7607C207.263 52.7211 207.085 52.7714 206.963 52.8939L199.892 59.965C199.764 60.0932 199.715 60.2809 199.765 60.4553C199.814 60.6298 199.954 60.7637 200.131 60.8052L218.803 65.1978C218.972 65.2374 219.149 65.1871 219.271 65.0646L226.342 57.9936Z" fill="#D82322" stroke="#D82322" stroke-linejoin="round"/>
<path d="M166.99 18.2756C166.852 18.2711 166.718 18.324 166.62 18.4218L159.549 25.4928C159.408 25.6338 159.365 25.8449 159.438 26.0302C159.511 26.2155 159.688 26.3397 159.887 26.3461L175.606 26.857C175.744 26.8615 175.878 26.8086 175.975 26.7109L183.047 19.6398C183.187 19.4989 183.231 19.2877 183.158 19.1024C183.085 18.9171 182.908 18.793 182.709 18.7865L166.99 18.2756Z" fill="#D82322" stroke="#D82322" stroke-linejoin="round"/>
<path d="M226.236 65.9166C226.287 65.6991 226.188 65.4741 225.993 65.3653C225.798 65.2566 225.554 65.2906 225.396 65.4486L218.325 72.5196C218.259 72.5854 218.213 72.6682 218.192 72.7587L215.86 82.67C215.809 82.8875 215.908 83.1125 216.104 83.2213C216.299 83.33 216.542 83.296 216.7 83.138L223.771 76.0669C223.837 76.0012 223.883 75.9184 223.905 75.8279L226.236 65.9166Z" fill="#D82322" stroke="#D82322" stroke-linejoin="round"/>
<path d="M205.599 60.5481C205.43 60.5085 205.253 60.5589 205.131 60.6813L198.06 67.7524C197.932 67.8806 197.883 68.0683 197.933 68.2427C197.982 68.4172 198.122 68.5511 198.299 68.5926L218.564 73.3599C218.732 73.3996 218.91 73.3492 219.032 73.2268L226.103 66.1557C226.231 66.0274 226.28 65.8398 226.23 65.6653C226.181 65.4909 226.041 65.357 225.864 65.3154L205.599 60.5481Z" fill="#D82322" stroke="#D82322" stroke-linejoin="round"/>
<path d="M191.206 68.4059C191.272 68.3402 191.318 68.2574 191.339 68.1669L201.998 22.8583C202.049 22.6408 201.95 22.4157 201.754 22.307C201.559 22.1982 201.316 22.2322 201.158 22.3902L194.087 29.4613C194.021 29.527 193.975 29.6098 193.953 29.7003L183.295 75.009C183.243 75.2265 183.343 75.4515 183.538 75.5603C183.733 75.669 183.977 75.635 184.135 75.477L191.206 68.4059Z" fill="#D82322" stroke="#D82322" stroke-linejoin="round"/>
<path d="M207.803 53.3619C207.854 53.1444 207.755 52.9194 207.56 52.8106C207.365 52.7019 207.121 52.7359 206.963 52.8939L199.892 59.965C199.826 60.0307 199.78 60.1135 199.759 60.204L197.927 67.9914C197.876 68.2089 197.975 68.434 198.17 68.5427C198.365 68.6515 198.609 68.6175 198.767 68.4595L205.838 61.3884C205.904 61.3227 205.95 61.2399 205.971 61.1494L207.803 53.3619Z" fill="#D82322" stroke="#D82322" stroke-linejoin="round"/>
<path d="M183.193 19.3024C183.199 19.0974 183.08 18.909 182.892 18.8274C182.704 18.7458 182.485 18.7875 182.339 18.9326L175.268 26.0037C175.179 26.0935 175.126 26.2141 175.122 26.341L173.61 72.8619C173.603 73.067 173.723 73.2553 173.911 73.3369C174.099 73.4185 174.318 73.3768 174.463 73.2317L181.534 66.1606C181.624 66.0708 181.677 65.9502 181.681 65.8233L183.193 19.3024Z" fill="#D82322" stroke="#D82322" stroke-linejoin="round"/>
<path d="M223.771 76.0669C223.9 75.9386 223.948 75.751 223.899 75.5765C223.849 75.4021 223.709 75.2682 223.532 75.2266L190.967 67.5657C190.798 67.526 190.621 67.5764 190.499 67.6988L183.428 74.7699C183.3 74.8981 183.251 75.0858 183.3 75.2603C183.35 75.4347 183.49 75.5686 183.667 75.6101L216.232 83.2711C216.401 83.3108 216.578 83.2604 216.7 83.138L223.771 76.0669Z" fill="#D82322" stroke="#D82322" stroke-linejoin="round"/>
<path d="M170.052 38.8641C170.192 38.7232 170.236 38.5121 170.163 38.3268C170.09 38.1415 169.913 38.0173 169.714 38.0109L169.351 37.999C169.213 37.9946 169.079 38.0475 168.981 38.1452L161.91 45.2163C161.769 45.3572 161.725 45.5683 161.799 45.7537C161.872 45.939 162.048 46.0631 162.247 46.0696L162.611 46.0814C162.749 46.0859 162.883 46.033 162.98 45.9352L170.052 38.8641Z" fill="#D82322" stroke="#D82322" stroke-linejoin="round"/>
<path d="M155.659 45.1272C155.702 45.0842 155.736 45.0338 155.761 44.9784L167.43 18.9801C167.529 18.7599 167.456 18.5007 167.258 18.3637C167.059 18.2267 166.791 18.2512 166.62 18.4218L159.549 25.4928C159.506 25.5358 159.472 25.5862 159.447 25.6417L147.778 51.6399C147.679 51.8601 147.752 52.1194 147.95 52.2563C148.149 52.3933 148.417 52.3689 148.588 52.1982L155.659 45.1272Z" fill="#D82322" stroke="#D82322" stroke-linejoin="round"/>
<path d="M129.101 17.0441C128.963 17.0396 128.829 17.0925 128.731 17.1903L121.66 24.2613C121.519 24.4022 121.476 24.6134 121.549 24.7987C121.622 24.984 121.798 25.1082 121.998 25.1146L137.717 25.6255C137.855 25.63 137.989 25.5771 138.086 25.4793L145.157 18.4083C145.298 18.2674 145.342 18.0562 145.269 17.8709C145.196 17.6856 145.019 17.5615 144.82 17.555L129.101 17.0441Z" fill="#D82322" stroke="#D82322" stroke-linejoin="round"/>
<path d="M145.272 17.8801C145.213 17.7206 145.076 17.6024 144.91 17.5662C144.744 17.53 144.571 17.5809 144.45 17.7012L137.379 24.7723C137.241 24.9107 137.196 25.1171 137.264 25.3005L147.22 52.0017C147.28 52.1611 147.416 52.2794 147.583 52.3155C147.749 52.3517 147.922 52.3008 148.042 52.1805L155.114 45.1095C155.252 44.9711 155.297 44.7646 155.228 44.5812L145.272 17.8801Z" fill="#D82322" stroke="#D82322" stroke-linejoin="round"/>
<path d="M169.177 65.759C169.267 65.6692 169.319 65.5486 169.324 65.4217L170.198 38.5268C170.204 38.3217 170.085 38.1334 169.897 38.0518C169.709 37.9702 169.489 38.0119 169.344 38.157L162.273 45.2281C162.184 45.3179 162.131 45.4385 162.127 45.5654L161.253 72.4603C161.246 72.6654 161.366 72.8537 161.554 72.9353C161.742 73.0169 161.961 72.9752 162.106 72.8301L169.177 65.759Z" fill="#D82322" stroke="#D82322" stroke-linejoin="round"/>
<path d="M169.794 38.6957C169.889 38.4753 169.813 38.2191 169.615 38.0847C169.416 37.9504 169.15 37.9758 168.981 38.1452L161.91 45.2163C161.865 45.2613 161.829 45.3145 161.804 45.373L150.583 71.5678C150.489 71.7881 150.564 72.0443 150.763 72.1787C150.961 72.313 151.227 72.2877 151.397 72.1182L158.468 65.0471C158.513 65.0021 158.549 64.9489 158.574 64.8904L169.794 38.6957Z" fill="#D82322" stroke="#D82322" stroke-linejoin="round"/>
<path d="M154.776 44.2561C154.638 44.2516 154.504 44.3046 154.406 44.4023L147.335 51.4734C147.194 51.6143 147.151 51.8254 147.224 52.0107C147.297 52.1961 147.473 52.3202 147.673 52.3267L148.218 52.3444C148.356 52.3489 148.49 52.296 148.588 52.1982L155.659 45.1271C155.8 44.9862 155.843 44.7751 155.77 44.5898C155.697 44.4044 155.52 44.2803 155.321 44.2738L154.776 44.2561Z" fill="#D82322" stroke="#D82322" stroke-linejoin="round"/>
<path d="M181.534 66.1606C181.675 66.0197 181.719 65.8086 181.646 65.6233C181.573 65.438 181.396 65.3138 181.197 65.3074L168.84 64.9057C168.702 64.9012 168.568 64.9541 168.47 65.0519L161.399 72.123C161.258 72.2639 161.214 72.475 161.288 72.6603C161.361 72.8457 161.537 72.9698 161.737 72.9763L174.094 73.3779C174.232 73.3824 174.366 73.3295 174.463 73.2317L181.534 66.1606Z" fill="#D82322" stroke="#D82322" stroke-linejoin="round"/>
<path d="M141.527 37.7551C141.668 37.6142 141.712 37.403 141.639 37.2177C141.565 37.0324 141.389 36.9083 141.19 36.9018L140.826 36.89C140.688 36.8855 140.554 36.9384 140.457 37.0362L133.385 44.1072C133.245 44.2481 133.201 44.4593 133.274 44.6446C133.347 44.8299 133.524 44.954 133.723 44.9605L134.086 44.9723C134.224 44.9768 134.358 44.9239 134.456 44.8261L141.527 37.7551Z" fill="#D82322" stroke="#D82322" stroke-linejoin="round"/>
<path d="M151.017 64.8049C151.153 64.669 151.199 64.4672 151.135 64.2859L141.645 37.236C141.588 37.0738 141.452 36.9522 141.285 36.914C141.117 36.8759 140.941 36.9264 140.82 37.048L133.749 44.1191C133.613 44.255 133.567 44.4568 133.631 44.6381L143.121 71.688C143.177 71.8502 143.314 71.9718 143.481 72.01C143.649 72.0481 143.824 71.9976 143.946 71.876L151.017 64.8049Z" fill="#D82322" stroke="#D82322" stroke-linejoin="round"/>
<path d="M158.468 65.0471C158.608 64.9062 158.652 64.695 158.579 64.5097C158.506 64.3244 158.329 64.2003 158.13 64.1938L150.68 63.9516C150.541 63.9471 150.408 64 150.31 64.0978L143.239 71.1689C143.098 71.3098 143.054 71.5209 143.127 71.7062C143.201 71.8916 143.377 72.0157 143.576 72.0222L151.027 72.2643C151.165 72.2688 151.299 72.2159 151.397 72.1181L158.468 65.0471Z" fill="#D82322" stroke="#D82322" stroke-linejoin="round"/>
<path d="M141.31 37.406C141.316 37.2009 141.197 37.0125 141.009 36.9309C140.821 36.8493 140.602 36.8911 140.457 37.0362L133.385 44.1072C133.296 44.197 133.243 44.3176 133.239 44.4445L132.359 71.5211C132.353 71.7262 132.472 71.9146 132.66 71.9962C132.848 72.0778 133.067 72.036 133.213 71.8909L140.284 64.8199C140.373 64.7301 140.426 64.6095 140.43 64.4826L141.31 37.406Z" fill="#D82322" stroke="#D82322" stroke-linejoin="round"/>
<path d="M127.926 64.4183C128.016 64.3285 128.069 64.2079 128.073 64.081L129.585 17.5601C129.591 17.355 129.472 17.1666 129.284 17.0851C129.095 17.0035 128.876 17.0452 128.731 17.1903L121.66 24.2613C121.571 24.3511 121.518 24.4717 121.514 24.5986L120.002 71.1195C119.995 71.3246 120.115 71.513 120.303 71.5946C120.491 71.6761 120.71 71.6344 120.855 71.4893L127.926 64.4183Z" fill="#D82322" stroke="#D82322" stroke-linejoin="round"/>
<path d="M140.284 64.8199C140.424 64.679 140.468 64.4678 140.395 64.2825C140.322 64.0972 140.145 63.9731 139.946 63.9666L127.589 63.565C127.451 63.5605 127.317 63.6134 127.219 63.7111L120.148 70.7822C120.007 70.9231 119.964 71.1343 120.037 71.3196C120.11 71.5049 120.286 71.629 120.486 71.6355L132.843 72.0371C132.981 72.0416 133.115 71.9887 133.213 71.891L140.284 64.8199Z" fill="#D82322" stroke="#D82322" stroke-linejoin="round"/>
<path d="M96.3934 21.8608C96.3174 21.7233 96.1812 21.6295 96.0256 21.6075C95.8701 21.5855 95.7132 21.638 95.6022 21.749L88.5311 28.8201C88.3735 28.9777 88.3393 29.2204 88.447 29.4155L112.15 72.3188C112.226 72.4563 112.362 72.5501 112.518 72.5721C112.673 72.5941 112.83 72.5416 112.941 72.4305L120.012 65.3595C120.17 65.2019 120.204 64.9592 120.096 64.7641L96.3934 21.8608Z" fill="#D82322" stroke="#D82322" stroke-linejoin="round"/>
<path d="M78.8882 24.8041C78.7893 24.8227 78.6983 24.8708 78.6271 24.9419L71.5561 32.013C71.401 32.1681 71.3651 32.406 71.4674 32.6C71.5698 32.7939 71.7865 32.8985 72.002 32.8579L88.9771 29.6651C89.076 29.6464 89.167 29.5984 89.2382 29.5272L96.3093 22.4562C96.4643 22.3011 96.5003 22.0631 96.3979 21.8692C96.2956 21.6753 96.0788 21.5707 95.8633 21.6112L78.8882 24.8041Z" fill="#D82322" stroke="#D82322" stroke-linejoin="round"/>
<path d="M90.3699 36.6163C90.5249 36.4613 90.5609 36.2233 90.4585 36.0294C90.3562 35.8354 90.1394 35.7308 89.9239 35.7714L89.5665 35.8386C89.4676 35.8572 89.3766 35.9052 89.3054 35.9764L82.2343 43.0475C82.0793 43.2025 82.0434 43.4405 82.1457 43.6344C82.2481 43.8284 82.4648 43.933 82.6803 43.8924L83.0377 43.8252C83.1366 43.8066 83.2276 43.7586 83.2988 43.6874L90.3699 36.6163Z" fill="#D82322" stroke="#D82322" stroke-linejoin="round"/>
<path d="M105.677 48.9501C105.643 48.7679 105.51 48.6196 105.333 48.5648C105.156 48.5101 104.963 48.5579 104.832 48.689L97.7609 55.7601C97.6442 55.8768 97.5926 56.0437 97.6231 56.206L99.3708 65.4976C99.4051 65.6799 99.5374 65.8282 99.7145 65.8829C99.8917 65.9377 100.085 65.8899 100.216 65.7588L107.287 58.6877C107.404 58.5709 107.455 58.404 107.425 58.2417L105.677 48.9501Z" fill="#D82322" stroke="#D82322" stroke-linejoin="round"/>
<path d="M120.012 65.3595C120.167 65.2045 120.203 64.9665 120.101 64.7726C119.998 64.5787 119.782 64.4741 119.566 64.5146L106.165 67.0353C106.066 67.0539 105.975 67.1019 105.904 67.1731L98.8326 74.2442C98.6776 74.3992 98.6416 74.6372 98.744 74.8311C98.8463 75.0251 99.0631 75.1297 99.2786 75.0891L112.68 72.5684C112.779 72.5498 112.87 72.5018 112.941 72.4306L120.012 65.3595Z" fill="#D82322" stroke="#D82322" stroke-linejoin="round"/>
<path d="M106.611 67.8802C106.765 67.726 106.801 67.4897 106.701 67.2962L90.46 36.0323C90.3866 35.8908 90.2501 35.7929 90.0926 35.7686C89.9351 35.7443 89.7754 35.7965 89.6628 35.9092L82.5917 42.9803C82.4375 43.1345 82.401 43.3708 82.5015 43.5643L98.7424 74.8282C98.8159 74.9696 98.9524 75.0676 99.1099 75.0919C99.2674 75.1162 99.427 75.064 99.5397 74.9513L106.611 67.8802Z" fill="#D82322" stroke="#D82322" stroke-linejoin="round"/>
<path d="M79.8986 53.2901C79.7996 53.3087 79.7086 53.3567 79.6374 53.4279L72.5664 60.499C72.4113 60.654 72.3754 60.892 72.4777 61.0859C72.5801 61.2798 72.7969 61.3844 73.0123 61.3439L98.2069 56.605C98.3058 56.5864 98.3969 56.5383 98.468 56.4672L105.539 49.3961C105.694 49.241 105.73 49.0031 105.628 48.8091C105.525 48.6152 105.309 48.5106 105.093 48.5512L79.8986 53.2901Z" fill="#D82322" stroke="#D82322" stroke-linejoin="round"/>
<path d="M90.1561 36.3835C90.1788 36.1727 90.0661 35.9705 89.8748 35.8789C89.6836 35.7874 89.4554 35.8265 89.3054 35.9764L82.2344 43.0475C82.1537 43.1282 82.103 43.234 82.0908 43.3475L78.319 78.3756C78.2963 78.5865 78.409 78.7887 78.6003 78.8802C78.7915 78.9717 79.0197 78.9327 79.1697 78.7827L86.2407 71.7117C86.3214 71.631 86.3721 71.5251 86.3843 71.4116L90.1561 36.3835Z" fill="#D82322" stroke="#D82322" stroke-linejoin="round"/>
<path d="M107.287 58.6877C107.442 58.5327 107.478 58.2947 107.375 58.1008C107.273 57.9069 107.056 57.8023 106.841 57.8428L81.6462 62.5817C81.5473 62.6003 81.4563 62.6483 81.3851 62.7195L74.314 69.7906C74.159 69.9456 74.1231 70.1836 74.2254 70.3775C74.3278 70.5715 74.5445 70.6761 74.76 70.6355L99.9546 65.8966C100.054 65.878 100.145 65.83 100.216 65.7588L107.287 58.6877Z" fill="#D82322" stroke="#D82322" stroke-linejoin="round"/>
<path d="M72.8394 74.2324C72.9169 74.1548 72.9669 74.0538 72.9814 73.9451L79.4763 25.3618C79.5047 25.1493 79.3945 24.9423 79.2023 24.8473C79.0101 24.7523 78.7787 24.7904 78.6271 24.942L71.5561 32.013C71.4785 32.0906 71.4286 32.1916 71.414 32.3003L64.9191 80.8836C64.8907 81.0961 65.001 81.3031 65.1931 81.3981C65.3853 81.4931 65.6167 81.4551 65.7683 81.3035L72.8394 74.2324Z" fill="#D82322" stroke="#D82322" stroke-linejoin="round"/>
<path d="M82.0922 63.4267C82.209 63.3099 82.2606 63.143 82.2301 62.9807L80.4824 53.6891C80.4481 53.5068 80.3158 53.3585 80.1386 53.3038C79.9615 53.249 79.7686 53.2968 79.6374 53.4279L72.5664 60.499C72.4496 60.6158 72.398 60.7827 72.4285 60.945L74.1762 70.2366C74.2105 70.4188 74.3428 70.5671 74.52 70.6219C74.6971 70.6766 74.89 70.6288 75.0212 70.4977L82.0922 63.4267Z" fill="#D82322" stroke="#D82322" stroke-linejoin="round"/>
<path d="M86.2407 71.7116C86.3958 71.5566 86.4317 71.3186 86.3293 71.1247C86.227 70.9308 86.0102 70.8262 85.7947 70.8667L72.3934 73.3874C72.2944 73.406 72.2034 73.4541 72.1322 73.5252L65.0612 80.5963C64.9061 80.7514 64.8702 80.9893 64.9726 81.1833C65.0749 81.3772 65.2917 81.4818 65.5072 81.4412L78.9085 78.9205C79.0075 78.9019 79.0985 78.8539 79.1697 78.7827L86.2407 71.7116Z" fill="#D82322" stroke="#D82322" stroke-linejoin="round"/>
<path d="M48.2113 42.2364C48.0123 42.0807 47.7284 42.098 47.5497 42.2767L40.4787 49.3478C40.3774 49.449 40.3244 49.5888 40.3331 49.7317C40.3418 49.8746 40.4114 50.007 40.5242 50.0952C42.2419 51.4385 43.6367 53.1128 44.7089 55.1238C44.7834 55.2636 44.9198 55.3598 45.0765 55.3831C45.2332 55.4065 45.3916 55.3542 45.5037 55.2421L52.5747 48.1711C52.7303 48.0155 52.7659 47.7765 52.6624 47.5823C51.5273 45.4532 50.0435 43.6693 48.2113 42.2364Z" fill="#D82322" stroke="#D82322" stroke-linejoin="round"/>
<path d="M42.024 39.1239C41.8499 39.0749 41.663 39.1238 41.5351 39.2517L34.464 46.3227C34.3385 46.4483 34.2889 46.6309 34.3338 46.8027C34.3787 46.9745 34.5113 47.1095 34.6822 47.1576C36.8563 47.7691 38.8021 48.7484 40.5242 50.0952C40.7233 50.2509 41.0071 50.2336 41.1858 50.0549L48.2569 42.9838C48.3581 42.8826 48.4111 42.7428 48.4024 42.5999C48.3937 42.457 48.3241 42.3246 48.2113 42.2364C46.3835 40.807 44.3196 39.7696 42.024 39.1239Z" fill="#D82322" stroke="#D82322" stroke-linejoin="round"/>
<path d="M55.1418 52.2237C55.0787 52.0685 54.942 51.9552 54.7778 51.922C54.6136 51.8888 54.4436 51.94 54.3251 52.0585L47.2541 59.1296C47.1119 59.2717 47.0687 59.4852 47.1444 59.6715L49.5762 65.6504C49.6393 65.8057 49.776 65.9189 49.9402 65.9521C50.1044 65.9854 50.2744 65.9341 50.3929 65.8156L57.464 58.7446C57.6061 58.6024 57.6493 58.3889 57.5736 58.2026L55.1418 52.2237Z" fill="#D82322" stroke="#D82322" stroke-linejoin="round"/>
<path d="M34.7708 38.4046C34.651 38.4133 34.5383 38.4648 34.4534 38.5498L27.3823 45.6208C27.2346 45.7685 27.1943 45.9924 27.2811 46.1823C27.3679 46.3722 27.5636 46.4882 27.7719 46.4731C30.212 46.2966 32.5126 46.5259 34.6777 47.1564C34.853 47.2074 35.0421 47.1589 35.1711 47.0298L42.2422 39.9588C42.3671 39.8338 42.4168 39.6522 42.3729 39.481C42.329 39.3099 42.1981 39.1746 42.0284 39.1252C39.7405 38.459 37.3201 38.2203 34.7708 38.4046Z" fill="#D82322" stroke="#D82322" stroke-linejoin="round"/>
<path d="M52.5748 48.1711C52.743 48.0029 52.7694 47.7394 52.6378 47.5411C52.5063 47.3429 52.2532 47.2648 52.0328 47.3544L40.2012 52.1665C40.1394 52.1916 40.0833 52.2289 40.0361 52.2761L32.965 59.3472C32.7967 59.5154 32.7704 59.7789 32.9019 59.9772C33.0335 60.1754 33.2865 60.2535 33.5069 60.1639L45.3385 55.3518C45.4003 55.3266 45.4565 55.2894 45.5037 55.2422L52.5748 48.1711Z" fill="#D82322" stroke="#D82322" stroke-linejoin="round"/>
<path d="M57.5736 58.2026C57.5105 58.0474 57.3738 57.9341 57.2096 57.9009C57.0453 57.8677 56.8754 57.919 56.7569 58.0374L49.6858 65.1085C49.5436 65.2507 49.5005 65.4642 49.5762 65.6504C51.1476 69.514 51.6592 73.1231 51.1413 76.4892C51.1084 76.7029 51.2166 76.9135 51.4095 77.0112C51.6024 77.1089 51.8362 77.0716 51.9891 76.9188L59.0601 69.8477C59.1353 69.7725 59.1846 69.6753 59.2008 69.5702C59.7513 65.9917 59.1989 62.1987 57.5736 58.2026Z" fill="#D82322" stroke="#D82322" stroke-linejoin="round"/>
<path d="M27.0575 40.2395C26.9957 40.2647 26.9395 40.3019 26.8923 40.3491L19.8213 47.4202C19.653 47.5884 19.6266 47.8519 19.7582 48.0502C19.8897 48.2485 20.1428 48.3265 20.3632 48.2369C22.8731 47.2161 25.3408 46.6302 27.7681 46.4733C27.8893 46.4655 28.0035 46.4138 28.0894 46.3279L35.1605 39.2569C35.3076 39.1097 35.3482 38.8868 35.2624 38.6972C35.1766 38.5076 34.9824 38.3909 34.7747 38.4044C32.2293 38.5688 29.6564 39.1825 27.0575 40.2395Z" fill="#D82322" stroke="#D82322" stroke-linejoin="round"/>
<path d="M35.3745 59.7236C35.3127 59.7487 35.2565 59.786 35.2093 59.8332L28.1383 66.9042C27.97 67.0725 27.9436 67.336 28.0752 67.5342C28.2068 67.7325 28.4598 67.8106 28.6802 67.721L47.796 59.9463C47.8578 59.9211 47.914 59.8839 47.9612 59.8367L55.0322 52.7656C55.2005 52.5974 55.2269 52.3339 55.0953 52.1356C54.9638 51.9373 54.7107 51.8592 54.4903 51.9489L35.3745 59.7236Z" fill="#D82322" stroke="#D82322" stroke-linejoin="round"/>
<path d="M40.7431 52.9832C40.9168 52.8094 40.9386 52.5353 40.7945 52.3363C40.2775 51.6224 39.6806 51.0417 39.0015 50.6028C38.8036 50.4749 38.5432 50.5026 38.3766 50.6692L31.3055 57.7403C31.1987 57.8471 31.1459 57.9964 31.1619 58.1466C31.1778 58.2968 31.2608 58.4318 31.3876 58.5138C31.9512 58.878 32.4606 59.3685 32.9136 59.994C32.9994 60.1125 33.133 60.1875 33.2789 60.1991C33.4249 60.2107 33.5685 60.1577 33.6721 60.0542L40.7431 52.9832Z" fill="#D82322" stroke="#D82322" stroke-linejoin="round"/>
<path d="M39.0837 51.3764C39.1898 51.2703 39.2426 51.1222 39.2277 50.9729C39.2127 50.8236 39.1315 50.6889 39.0064 50.6061C38.325 50.1544 37.5769 49.8456 36.7659 49.6797C36.6013 49.646 36.4309 49.6972 36.3121 49.816L29.2411 56.8871C29.1109 57.0172 29.0628 57.2083 29.1157 57.3845C29.1687 57.5607 29.3141 57.6936 29.4944 57.7305C30.182 57.8711 30.8102 58.1311 31.3829 58.5106C31.5811 58.6421 31.8445 58.6156 32.0127 58.4474L39.0837 51.3764Z" fill="#D82322" stroke="#D82322" stroke-linejoin="round"/>
<path d="M37.0192 50.5231C37.1475 50.3947 37.1963 50.2069 37.1464 50.0323C37.0966 49.8578 36.9561 49.7239 36.7793 49.6826C35.9714 49.494 35.1128 49.4662 34.2081 49.591C34.1001 49.6059 33.9999 49.6556 33.9228 49.7327L26.8518 56.8038C26.6999 56.9557 26.662 57.1875 26.7576 57.3799C26.8531 57.5722 27.0609 57.682 27.2736 57.6527C28.0726 57.5425 28.8068 57.5702 29.4809 57.7275C29.6492 57.7668 29.8259 57.7164 29.9481 57.5942L37.0192 50.5231Z" fill="#D82322" stroke="#D82322" stroke-linejoin="round"/>
<path d="M46.5602 64.6476C46.4793 64.6711 46.4056 64.7147 46.346 64.7743L39.2749 71.8453C39.1135 72.0067 39.0819 72.2569 39.1981 72.4534C39.3142 72.6498 39.5487 72.7427 39.7679 72.6791L41.8745 72.0676C41.9555 72.0441 42.0291 72.0006 42.0887 71.941L49.1598 64.8699C49.3212 64.7085 49.3528 64.4584 49.2366 64.2619C49.1205 64.0654 48.886 63.9726 48.6669 64.0362L46.5602 64.6476Z" fill="#D82322" stroke="#D82322" stroke-linejoin="round"/>
<path d="M34.63 50.4398C34.7804 50.2893 34.8192 50.0602 34.7266 49.8686C34.6339 49.677 34.4302 49.5651 34.2189 49.5896C33.3239 49.6932 32.402 49.9408 31.4543 50.3262C31.3925 50.3514 31.3364 50.3886 31.2892 50.4358L24.2181 57.5069C24.0499 57.6751 24.0235 57.9386 24.155 58.1369C24.2866 58.3352 24.5396 58.4132 24.76 58.3236C25.6369 57.967 26.4708 57.7458 27.2629 57.654C27.3749 57.641 27.4792 57.5906 27.5589 57.5109L34.63 50.4398Z" fill="#D82322" stroke="#D82322" stroke-linejoin="round"/>
<path d="M59.2009 69.5694C59.2334 69.3558 59.125 69.1455 58.9322 69.048C58.7394 68.9504 58.5058 68.9878 58.353 69.1406L51.2819 76.2117C51.2066 76.287 51.1572 76.3845 51.1412 76.4899C50.6297 79.848 49.2505 82.8247 46.9972 85.4294C46.8211 85.633 46.8377 85.9393 47.0347 86.1226C47.2318 86.306 47.5386 86.3004 47.7289 86.1101L54.7999 79.0391C54.8084 79.0305 54.8166 79.0217 54.8245 79.0126C57.1996 76.2672 58.6606 73.1164 59.2009 69.5694Z" fill="#D82322" stroke="#D82322" stroke-linejoin="round"/>
<path d="M19.3341 45.1345L19.3233 45.145L12.2522 52.2161C12.059 52.4092 12.0567 52.7217 12.2469 52.9178C12.4372 53.1139 12.7496 53.1209 12.9485 52.9336C15.0415 50.963 17.5112 49.3968 20.3632 48.2369C20.425 48.2117 20.4812 48.1745 20.5284 48.1273L27.5995 41.0562C27.7677 40.8879 27.7941 40.6244 27.6625 40.4262C27.531 40.2279 27.2779 40.1498 27.0575 40.2395C24.099 41.4428 21.5227 43.0738 19.3341 45.1345Z" fill="#D82322" stroke="#D82322" stroke-linejoin="round"/>
<path d="M47.5389 69.2094C47.6123 69.1359 47.6611 69.0414 47.6784 68.939C47.8973 67.6402 47.7174 66.3034 47.1627 64.9394C47.0996 64.7842 46.9629 64.6709 46.7987 64.6377C46.6344 64.6045 46.4645 64.6558 46.346 64.7743L39.2749 71.8453C39.1328 71.9875 39.0896 72.201 39.1653 72.3872C39.6609 73.6058 39.8049 74.7543 39.6212 75.8438C39.5851 76.0583 39.6917 76.2716 39.8851 76.3713C40.0784 76.471 40.314 76.4343 40.4678 76.2805L47.5389 69.2094Z" fill="#D82322" stroke="#D82322" stroke-linejoin="round"/>
<path d="M31.9963 51.1429C32.1645 50.9747 32.1909 50.7112 32.0594 50.5129C31.9278 50.3147 31.6748 50.2366 31.4544 50.3262C30.0268 50.9068 28.827 51.6737 27.8668 52.6333L27.8667 52.6334L20.7957 59.7044L20.7956 59.7045C20.6004 59.8997 20.6004 60.2163 20.7956 60.4116C20.9908 60.6068 21.3073 60.6069 21.5026 60.4117C21.5027 60.4117 21.5027 60.4116 21.5027 60.4116C21.5028 60.4115 21.5029 60.4114 21.5031 60.4113C22.355 59.5599 23.4368 58.8618 24.76 58.3236C24.8219 58.2984 24.878 58.2612 24.9252 58.214L31.9963 51.1429Z" fill="#D82322" stroke="#D82322" stroke-linejoin="round"/>
<path d="M49.1598 64.8699C49.3281 64.7017 49.3545 64.4382 49.2229 64.2399C49.0913 64.0416 48.8383 63.9636 48.6179 64.0532L38.7653 68.0604C38.7034 68.0856 38.6473 68.1228 38.6001 68.17L31.529 75.2411C31.3608 75.4093 31.3344 75.6728 31.4659 75.8711C31.5975 76.0693 31.8505 76.1474 32.0709 76.0578L41.9236 72.0506C41.9854 72.0254 42.0416 71.9882 42.0888 71.941L49.1598 64.8699Z" fill="#D82322" stroke="#D82322" stroke-linejoin="round"/>
<path d="M45.7643 72.5074L45.7643 72.5074L45.7683 72.5033C46.8096 71.4379 47.4576 70.249 47.6784 68.939C47.7146 68.7245 47.6079 68.5112 47.4146 68.4115C47.2212 68.3118 46.9856 68.3485 46.8318 68.5023L39.7607 75.5734C39.6873 75.6469 39.6385 75.7414 39.6212 75.8438C39.4395 76.9221 38.9043 77.9318 37.9821 78.8754C37.7899 79.0721 37.7926 79.3871 37.9881 79.5805C38.1837 79.7738 38.4987 79.7729 38.6932 79.5785L45.7643 72.5074Z" fill="#D82322" stroke="#D82322" stroke-linejoin="round"/>
<path d="M54.8239 79.0133C55.0005 78.81 54.9843 78.5033 54.7873 78.3197C54.5903 78.1361 54.2833 78.1415 54.0929 78.3319L47.0218 85.403C47.0135 85.4113 47.0055 85.4199 46.9978 85.4287C46.6946 85.7779 46.3784 86.1171 46.0492 86.4465C45.8541 86.6418 45.8541 86.9583 46.0494 87.1535C46.2447 87.3488 46.5612 87.3487 46.7564 87.1535L46.7565 87.1534L53.8275 80.0824L53.8276 80.0823C54.1732 79.7366 54.5053 79.3802 54.8239 79.0133Z" fill="#D82322" stroke="#D82322" stroke-linejoin="round"/>
<path d="M20.7957 59.7044L20.7956 59.7045L20.9076 59.8165L19.7602 60.9638L20.1138 61.3174L20.5294 61.5954C20.813 61.1713 21.1373 60.7768 21.5026 60.4117L21.5027 60.4116L27.4264 54.4879L27.4743 54.44L28.5699 53.3444C28.2061 53.7085 27.8831 54.1017 27.6004 54.5243C27.5823 54.5515 27.5615 54.5768 27.5384 54.5999L20.4673 61.671C20.2854 61.8528 19.9953 61.867 19.7965 61.7038C19.5977 61.5406 19.5552 61.2532 19.6982 61.0394C20.0186 60.5604 20.3846 60.1153 20.7957 59.7044ZM20.7957 59.7044L20.9076 59.8164L26.7971 53.927C27.1099 53.4651 27.4654 53.035 27.8632 52.6369L20.7957 59.7044ZM27.8668 52.6333L27.8634 52.6367L28.5705 53.3439C28.5705 53.3438 28.5705 53.3438 28.5706 53.3438C28.5706 53.3437 28.5706 53.3437 28.5706 53.3437C28.5707 53.3437 28.5707 53.3436 28.5708 53.3436L28.5737 53.3407L28.5737 53.3407C28.7658 53.1451 28.7647 52.8309 28.5704 52.6367C28.3763 52.4426 28.0623 52.4415 27.8668 52.6334L27.8668 52.6333Z" fill="#D82322" stroke="#D82322" stroke-linejoin="round"/>
<path d="M39.3072 68.8771C39.4493 68.7349 39.4925 68.5214 39.4168 68.3352L36.026 59.9983C35.9629 59.8431 35.8262 59.7298 35.662 59.6966C35.4978 59.6634 35.3278 59.7147 35.2093 59.8332L28.1383 66.9042C27.9961 67.0464 27.9529 67.2599 28.0287 67.4461L31.4194 75.783C31.4825 75.9382 31.6192 76.0515 31.7834 76.0847C31.9477 76.1179 32.1176 76.0667 32.2361 75.9482L39.3072 68.8771Z" fill="#D82322" stroke="#D82322" stroke-linejoin="round"/>
<path d="M41.0971 74.2763C41.0352 74.3014 40.9791 74.3387 40.9319 74.3859L33.8608 81.4569C33.6926 81.6252 33.6662 81.8887 33.7977 82.0869C33.9293 82.2852 34.1823 82.3633 34.4027 82.2737C36.2247 81.5326 37.6653 80.6383 38.696 79.5757L45.592 72.6797C45.6525 72.6209 45.7118 72.5616 45.7698 72.5017C45.9609 72.3045 45.9572 71.9901 45.7615 71.7975C45.5658 71.6048 45.2513 71.6061 45.0572 71.8003L44.8903 71.9671C43.9936 72.8355 42.7369 73.6093 41.0971 74.2763Z" fill="#D82322" stroke="#D82322" stroke-linejoin="round"/>
<path d="M27.6017 54.5224C27.7435 54.3083 27.7 54.0216 27.5012 53.8592C27.3024 53.6967 27.0128 53.7112 26.8313 53.8928L19.7602 60.9639C19.7365 60.9875 19.7153 61.0135 19.6968 61.0414C18.6425 62.6338 18.1194 64.5146 18.1084 66.6624C18.1074 66.8651 18.2288 67.0483 18.4159 67.1264C18.6029 67.2044 18.8186 67.1618 18.962 67.0185L26.033 59.9474C26.1262 59.8543 26.1788 59.7281 26.1795 59.5964C26.1896 57.6137 26.6701 55.9295 27.6017 54.5224Z" fill="#D82322" stroke="#D82322" stroke-linejoin="round"/>
<path d="M15.0699 52.8994C15.1147 52.8546 15.1506 52.8017 15.1756 52.7435C16.1125 50.5665 17.3773 48.6235 18.9707 46.9118L20.0304 45.8521C20.2232 45.6593 20.226 45.3475 20.0365 45.1513C19.847 44.9551 19.5353 44.9469 19.3358 45.1329C18.9596 45.4838 18.598 45.8452 18.2511 46.2172L12.2583 52.21C10.0643 54.2575 8.37271 56.6618 7.18599 59.4192C7.09118 59.6395 7.16614 59.8961 7.36463 60.0307C7.56312 60.1653 7.82923 60.14 7.99882 59.9704L15.0699 52.8994Z" fill="#D82322" stroke="#D82322" stroke-linejoin="round"/>
<path d="M53.1203 79.3754L53.1124 79.3833C53.1123 79.3834 53.1123 79.3834 53.1123 79.3834C53.1119 79.3838 53.1116 79.3841 53.1112 79.3845C51.0016 81.4926 48.3539 83.1998 45.157 84.5C45.0952 84.5252 45.0391 84.5624 44.9919 84.6096L37.9208 91.6807C37.7526 91.8489 37.7262 92.1124 37.8577 92.3107C37.9893 92.5089 38.2423 92.587 38.4627 92.4974C41.7697 91.1524 44.538 89.3731 46.7564 87.1535C46.7564 87.1535 46.7565 87.1534 46.7565 87.1534L53.8193 80.0906L53.8194 80.0905C53.8195 80.0904 53.8196 80.0903 53.8198 80.0902L53.8276 80.0823L53.8275 80.0822C54.0146 79.8864 54.0119 79.576 53.8194 79.3835C53.6268 79.1909 53.3162 79.1882 53.1203 79.3755L53.1203 79.3754Z" fill="#D82322" stroke="#D82322" stroke-linejoin="round"/>
<path d="M26.1795 59.593C26.1791 59.391 26.0572 59.2089 25.8704 59.1318C25.6837 59.0546 25.4688 59.0974 25.3259 59.2403L18.2548 66.3114C18.1609 66.4054 18.1082 66.5329 18.1084 66.6658C18.112 68.8062 18.6414 71.1497 19.6745 73.69C19.7377 73.8452 19.8743 73.9585 20.0386 73.9917C20.2028 74.0249 20.3728 73.9737 20.4912 73.8552L27.5623 66.7841C27.7045 66.6419 27.7477 66.4284 27.6719 66.2422C26.6729 63.786 26.1828 61.5718 26.1795 59.593Z" fill="#D82322" stroke="#D82322" stroke-linejoin="round"/>
<path d="M35.7411 74.884C35.5733 74.8456 35.3976 74.8962 35.2759 75.0179L28.2049 82.0889C28.0762 82.2176 28.0276 82.4059 28.0779 82.5807C28.1282 82.7555 28.2695 82.8892 28.4468 82.9299C30.3164 83.358 32.3074 83.1259 34.4027 82.2737C34.4645 82.2485 34.5207 82.2113 34.5679 82.1641L41.639 75.093C41.8072 74.9247 41.8336 74.6612 41.702 74.463C41.5705 74.2647 41.3174 74.1866 41.097 74.2763C39.1503 75.0681 37.3707 75.2572 35.7411 74.884Z" fill="#D82322" stroke="#D82322" stroke-linejoin="round"/>
<path d="M27.6719 66.2422C27.6088 66.087 27.4721 65.9737 27.3079 65.9405C27.1436 65.9072 26.9737 65.9585 26.8552 66.077L19.7841 73.1481C19.642 73.2902 19.5988 73.5037 19.6745 73.69C20.7182 76.2561 21.9704 78.3348 23.4413 79.9078C23.5339 80.0068 23.6626 80.0639 23.7981 80.0662C23.9336 80.0685 24.0642 80.0156 24.1601 79.9198L31.2311 72.8488C31.4218 72.6581 31.4269 72.3506 31.2428 72.1537C29.8769 70.6931 28.6832 68.7287 27.6719 66.2422Z" fill="#D82322" stroke="#D82322" stroke-linejoin="round"/>
<path d="M31.2428 72.1537C31.1502 72.0548 31.0215 71.9976 30.886 71.9953C30.7505 71.993 30.6199 72.0459 30.524 72.1417L23.453 79.2128C23.2623 79.4034 23.2572 79.7109 23.4413 79.9078C24.9168 81.4857 26.5855 82.5036 28.4468 82.9299C28.6146 82.9683 28.7903 82.9178 28.912 82.7961L35.9831 75.725C36.1117 75.5964 36.1603 75.408 36.11 75.2332C36.0597 75.0584 35.9184 74.9247 35.7411 74.8841C34.1033 74.509 32.6041 73.6094 31.2428 72.1537Z" fill="#D82322" stroke="#D82322" stroke-linejoin="round"/>
<path d="M13.3567 61.7172C13.4514 61.6225 13.5041 61.4938 13.5031 61.3599C13.4795 58.2271 14.039 55.3578 15.1749 52.7451C15.2706 52.5249 15.1963 52.2676 14.9977 52.1325C14.7992 51.9973 14.5326 52.0224 14.3628 52.1922L7.29172 59.2633C7.24736 59.3076 7.21175 59.36 7.18674 59.4175C5.99016 62.1698 5.40752 65.1791 5.43208 68.4385C5.4336 68.6401 5.55597 68.821 5.74247 68.8974C5.92896 68.9738 6.14311 68.9308 6.28562 68.7883L13.3567 61.7172Z" fill="#D82322" stroke="#D82322" stroke-linejoin="round"/>
<path d="M45.699 85.3167C45.8672 85.1485 45.8936 84.885 45.762 84.6867C45.6305 84.4885 45.3774 84.4104 45.157 84.5C41.0277 86.1795 37.0675 86.7688 33.268 86.2887C33.1147 86.2694 32.9611 86.322 32.8518 86.4312L25.7807 93.5023C25.6458 93.6372 25.5994 93.8372 25.6612 94.0178C25.723 94.1984 25.8823 94.328 26.0716 94.3519C30.0659 94.8566 34.1991 94.2315 38.4627 92.4974C38.5245 92.4723 38.5807 92.435 38.6279 92.3878L45.699 85.3167Z" fill="#D82322" stroke="#D82322" stroke-linejoin="round"/>
<path d="M15.5887 71.8503C15.7309 71.7081 15.7741 71.4946 15.6983 71.3083C14.2673 67.7897 13.5403 64.4741 13.5031 61.3577C13.5007 61.1566 13.378 60.9765 13.1917 60.9006C13.0054 60.8248 12.7918 60.8679 12.6496 61.0102L5.57851 68.0812C5.48328 68.1765 5.43049 68.3061 5.4321 68.4408C5.47111 71.7052 6.2322 75.1449 7.70095 78.7561C7.76407 78.9114 7.90075 79.0246 8.06499 79.0578C8.22922 79.0911 8.39918 79.0398 8.51766 78.9213L15.5887 71.8503Z" fill="#D82322" stroke="#D82322" stroke-linejoin="round"/>
<path d="M33.5589 87.1384C33.6938 87.0034 33.7402 86.8034 33.6784 86.6228C33.6166 86.4423 33.4574 86.3127 33.268 86.2887C29.4679 85.8086 26.0453 84.3155 22.9921 81.8004C22.7933 81.6366 22.5027 81.6506 22.3206 81.8327L15.2495 88.9038C15.1499 89.0035 15.0969 89.1406 15.1037 89.2814C15.1105 89.4222 15.1764 89.5536 15.2852 89.6433C18.4797 92.2747 22.078 93.8473 26.0716 94.3519C26.2249 94.3713 26.3786 94.3187 26.4878 94.2094L33.5589 87.1384Z" fill="#D82322" stroke="#D82322" stroke-linejoin="round"/>
<path d="M23.0277 82.5398C23.1272 82.4403 23.1802 82.3036 23.1736 82.163C23.1671 82.0225 23.1016 81.8912 22.9933 81.8014C19.9592 79.2852 17.5233 75.7956 15.6983 71.3083C15.6352 71.1531 15.4985 71.0398 15.3342 71.0066C15.17 70.9734 15.0001 71.0247 14.8816 71.1432L7.81051 78.2142C7.66834 78.3564 7.62515 78.5699 7.7009 78.7561C9.57483 83.3636 12.0983 87.0004 15.2839 89.6422C15.4826 89.807 15.7741 89.7934 15.9566 89.6109L23.0277 82.5398Z" fill="#D82322" stroke="#D82322" stroke-linejoin="round"/>
<path d="M42.3896 50.6296C41.9046 49.96 41.3515 49.4244 40.7301 49.0228C40.1031 48.6072 39.415 48.3228 38.6657 48.1696C37.9247 47.9966 37.1283 47.9688 36.2764 48.0863C35.4329 48.184 34.555 48.4184 33.6427 48.7894C31.6778 49.5886 30.1918 50.7409 29.1848 52.2464C28.1918 53.7461 27.6901 55.5286 27.6795 57.5939C27.6829 59.6534 28.1927 61.9323 29.2088 64.4306C30.2362 66.9569 31.4592 68.9784 32.8776 70.4952C34.2959 72.012 35.8799 72.9708 37.6295 73.3714C39.3791 73.7721 41.2644 73.5615 43.2854 72.7395C45.0679 72.0145 46.443 71.1526 47.4107 70.1539C48.3925 69.1493 48.984 68.05 49.1853 66.8559C49.3867 65.6618 49.2247 64.4191 48.6996 63.1279L50.8063 62.5164L40.9536 66.5236L37.5629 58.1868L56.6787 50.4121L59.1104 56.391C60.7087 60.3208 61.2408 64.0219 60.7066 67.4942C60.1807 70.9467 58.7606 74.0105 56.4464 76.6855C54.1405 79.3408 51.1068 81.4334 47.3454 82.9632C43.1489 84.67 39.1022 85.2772 35.2054 84.7848C31.3085 84.2924 27.7981 82.7596 24.6742 80.1863C21.5643 77.6073 19.0846 74.0441 17.2351 69.4967C15.7852 65.9318 15.0412 62.5541 15.0031 59.3637C14.979 56.1676 15.5501 53.2283 16.7163 50.5458C17.8768 47.8493 19.5303 45.5002 21.6768 43.4986C23.8176 41.4829 26.3406 39.8843 29.2459 38.7027C31.8003 37.6638 34.3206 37.064 36.8069 36.9033C39.3015 36.7229 41.6621 36.9569 43.8886 37.6052C46.1234 38.2338 48.1283 39.2422 49.9033 40.6303C51.6783 42.0184 53.1176 43.7475 54.2212 45.8176L42.3896 50.6296Z" fill="#D56359"/>
<path d="M87.8871 69.3581L74.4858 71.8788L80.9807 23.2955L97.9557 20.1026L121.659 63.006L108.257 65.5267L92.0163 34.2628L91.659 34.33L87.8871 69.3581ZM81.991 51.7815L107.186 47.0426L108.933 56.3342L83.7387 61.0731L81.991 51.7815Z" fill="#D56359"/>
<path d="M131.085 15.5438L146.804 16.0547L156.76 42.7559L157.305 42.7736L168.974 16.7753L184.693 17.2862L183.181 63.8071L170.824 63.4055L171.698 36.5106L171.335 36.4988L160.114 62.6936L152.663 62.4514L143.174 35.4016L142.81 35.3898L141.93 62.4664L129.573 62.0647L131.085 15.5438Z" fill="#D56359"/>
<path d="M192.852 66.0524L203.511 20.7438L236.165 28.4256L233.834 38.3369L213.48 33.5487L211.648 41.3362L230.32 45.7287L227.989 55.64L209.317 51.2474L207.485 59.0348L227.75 63.8021L225.418 73.7134L192.852 66.0524Z" fill="#D56359"/>
<path d="M270.773 56.986C271.249 55.5427 271.185 54.233 270.579 53.0568C269.987 51.8865 268.749 50.9041 266.864 50.1096C265.663 49.6035 264.617 49.3352 263.725 49.3047C262.854 49.2662 262.134 49.4147 261.565 49.7504C260.996 50.086 260.572 50.565 260.293 51.1874C260.047 51.6923 259.941 52.1982 259.974 52.7054C260.026 53.2044 260.219 53.7215 260.553 54.2567C260.892 54.7779 261.376 55.3271 262.004 55.9043C262.632 56.4815 263.412 57.0896 264.343 57.7287L267.543 59.9657C269.705 61.4688 271.457 62.9883 272.799 64.5241C274.141 66.06 275.114 67.613 275.719 69.1831C276.329 70.7392 276.594 72.3143 276.514 73.9084C276.448 75.5084 276.078 77.1281 275.403 78.7675C274.2 81.5819 272.489 83.6722 270.269 85.0383C268.049 86.4045 265.425 87.0498 262.399 86.9744C259.386 86.9049 256.065 86.105 252.435 84.5749C248.707 83.0035 245.686 81.0808 243.373 78.8067C241.073 76.5384 239.638 73.9358 239.068 70.9986C238.517 68.0535 238.991 64.7838 240.489 61.1897L251.547 65.8508C251.064 67.1926 250.927 68.4339 251.136 69.5746C251.346 70.7154 251.885 71.7398 252.751 72.6478C253.632 73.5617 254.813 74.3305 256.293 74.9544C257.535 75.4781 258.64 75.763 259.607 75.8089C260.575 75.8549 261.389 75.6968 262.052 75.3348C262.714 74.9727 263.199 74.4456 263.507 73.7533C263.77 73.0913 263.795 72.4276 263.582 71.7624C263.389 71.0891 262.907 70.3598 262.137 69.5746C261.372 68.7754 260.267 67.8658 258.823 66.8458L254.939 64.1235C251.488 61.699 249.073 59.0614 247.693 56.2107C246.333 53.3519 246.367 50.25 247.793 46.9051C248.927 44.1766 250.656 42.1021 252.981 40.6817C255.326 39.2531 258.046 38.5166 261.139 38.4723C264.246 38.4338 267.497 39.1296 270.889 40.5597C274.352 42.0193 277.102 43.861 279.141 46.0851C281.18 48.3091 282.439 50.7637 282.918 53.4486C283.418 56.1256 283.083 58.8701 281.914 61.6823L270.773 56.986Z" fill="#D56359"/>
</svg>
