<svg width="375" height="126" viewBox="0 0 375 126" fill="none" xmlns="http://www.w3.org/2000/svg">
<mask id="path-1-outside-1_29_10372" maskUnits="userSpaceOnUse" x="19.0785" y="24.9394" width="307" height="77" fill="black">
<rect fill="white" x="19.0785" y="24.9394" width="307" height="77"/>
<path d="M33.6235 99.9408L21.0785 59.3512L32.7902 55.1442L37.6906 70.9996L53.1938 65.4306L48.2934 49.5753L60.005 45.3684L72.5501 85.958L60.8384 90.1649L55.938 74.3096L40.4348 79.8785L45.3352 95.7338L33.6235 99.9408Z"/>
<path d="M103.306 34.9562L115.589 32.4325L120.213 59.1128C120.763 62.2851 120.414 65.1999 119.166 67.8571C118.282 69.7458 117.021 71.4356 115.381 72.9265C114.729 73.52 114.016 74.082 113.244 74.6125C110.529 76.4619 107.235 77.7845 103.362 78.5804C99.4587 79.3823 95.9337 79.4607 92.7867 78.8157C89.6373 78.157 87.0455 76.8433 85.0113 74.8745C82.9895 72.8891 81.7038 70.3102 81.154 67.1379L76.5306 40.4576L88.8138 37.9338L93.2681 63.638C93.4913 64.926 94.0002 66.0148 94.795 66.9045C95.5874 67.7806 96.5779 68.3914 97.7665 68.7369C98.9697 69.0793 100.271 69.1068 101.67 68.8193C103.084 68.5288 104.287 67.9869 105.278 67.1936C105.405 67.0916 105.528 66.9869 105.646 66.8794C106.449 66.1503 107.044 65.2932 107.432 64.3081C107.874 63.1642 107.984 61.9483 107.76 60.6604L103.306 34.9562Z"/>
<path d="M172.723 26.9394L174.646 69.0639L164.16 69.6995L146.426 48.5813L146.155 48.5978L147.165 70.7296L134.6 71.4912L132.677 29.3667L143.344 28.7202L160.803 49.7725L161.164 49.7505L160.158 27.701L172.723 26.9394Z"/>
<path d="M216.014 43.5916C215.879 42.8494 215.624 42.1864 215.249 41.6026C214.875 41.0051 214.389 40.4875 213.789 40.0497C213.206 39.5996 212.509 39.2429 211.699 38.9798C210.904 38.7043 210.018 38.5243 209.041 38.4398C206.937 38.2578 205.102 38.5609 203.537 39.349C202.869 39.6895 202.258 40.1107 201.706 40.6125C200.978 41.2741 200.35 42.076 199.824 43.0182C198.913 44.6762 198.355 46.7231 198.152 49.1589C197.945 51.6222 198.137 53.7615 198.727 55.5768C199.317 57.3922 200.302 58.8282 201.683 59.8849C203.063 60.9415 204.835 61.5635 207 61.7507C208.909 61.9159 210.516 61.7999 211.821 61.4027C212.846 61.0955 213.686 60.6437 214.343 60.0473C214.532 59.8752 214.706 59.6912 214.865 59.4951C215.574 58.6191 215.981 57.5517 216.087 56.2927L218.234 56.6852L207.682 55.7724L208.362 47.6437L228.835 49.4146L228.347 55.2443C228.027 59.076 226.858 62.2761 224.842 64.8446C224.254 65.595 223.613 66.286 222.919 66.9178C221.247 68.4383 219.263 69.6153 216.969 70.4491C213.737 71.6168 210.107 72.0265 206.078 71.678C201.584 71.2892 197.711 70.079 194.459 68.0472C191.207 66.0154 188.761 63.309 187.121 59.9279C185.497 56.5482 184.87 52.6414 185.241 48.2076C185.531 44.7317 186.368 41.7027 187.75 39.1206C188.844 37.0992 190.193 35.3578 191.798 33.8964C192.242 33.4919 192.705 33.109 193.188 32.7474C195.419 31.0657 197.933 29.8704 200.733 29.1615C203.534 28.4389 206.49 28.2122 209.602 28.4814C212.338 28.718 214.848 29.2935 217.134 30.208C219.435 31.11 221.434 32.2891 223.129 33.7451C224.84 35.1888 226.178 36.8414 227.142 38.703C228.107 40.5645 228.621 42.5594 228.686 44.6876L216.014 43.5916Z"/>
<path d="M238.248 74.3927L246.828 32.9596L279.261 40.3282L277.384 49.3917L257.169 44.7988L255.694 51.9201L274.239 56.1336L272.362 65.1971L253.817 60.9836L252.342 68.1049L272.47 72.6779L270.593 81.7414L238.248 74.3927Z"/>
<path d="M279.976 86.0855L293.23 45.6825L311.807 52.4701C315.001 53.6372 317.617 55.2042 319.655 57.1711C321.693 59.1381 323.04 61.3905 323.698 63.9285C324.356 66.4665 324.215 69.1691 323.274 72.0363C322.467 74.4973 321.271 76.4486 319.685 77.8902C319.407 78.1435 319.116 78.3811 318.814 78.6029C316.803 80.0923 314.399 80.8929 311.601 81.0047C308.817 81.1216 305.786 80.5812 302.508 79.3834L291.412 75.3292L294.207 66.8067L302.95 70.0009C304.323 70.5025 305.544 70.7721 306.615 70.8097C307.703 70.8392 308.623 70.5936 309.374 70.0727C309.514 69.9785 309.648 69.8738 309.775 69.7586C310.342 69.2432 310.779 68.518 311.086 67.5829C311.465 66.4255 311.508 65.3879 311.212 64.47C310.936 63.5441 310.363 62.731 309.495 62.0307C308.644 61.3224 307.533 60.7174 306.16 60.2158L302.041 58.7108L291.66 90.3546L279.976 86.0855ZM311.277 76.7551L315.954 99.2307L303.26 94.593L298.836 72.2095L311.277 76.7551Z"/>
</mask>
<path d="M33.6235 99.9408L21.0785 59.3512L32.7902 55.1442L37.6906 70.9996L53.1938 65.4306L48.2934 49.5753L60.005 45.3684L72.5501 85.958L60.8384 90.1649L55.938 74.3096L40.4348 79.8785L45.3352 95.7338L33.6235 99.9408Z" fill="#D82322"/>
<path d="M103.306 34.9562L115.589 32.4325L120.213 59.1128C120.763 62.2851 120.414 65.1999 119.166 67.8571C118.282 69.7458 117.021 71.4356 115.381 72.9265C114.729 73.52 114.016 74.082 113.244 74.6125C110.529 76.4619 107.235 77.7845 103.362 78.5804C99.4587 79.3823 95.9337 79.4607 92.7867 78.8157C89.6373 78.157 87.0455 76.8433 85.0113 74.8745C82.9895 72.8891 81.7038 70.3102 81.154 67.1379L76.5306 40.4576L88.8138 37.9338L93.2681 63.638C93.4913 64.926 94.0002 66.0148 94.795 66.9045C95.5874 67.7806 96.5779 68.3914 97.7665 68.7369C98.9697 69.0793 100.271 69.1068 101.67 68.8193C103.084 68.5288 104.287 67.9869 105.278 67.1936C105.405 67.0916 105.528 66.9869 105.646 66.8794C106.449 66.1503 107.044 65.2932 107.432 64.3081C107.874 63.1642 107.984 61.9483 107.76 60.6604L103.306 34.9562Z" fill="#D82322"/>
<path d="M172.723 26.9394L174.646 69.0639L164.16 69.6995L146.426 48.5813L146.155 48.5978L147.165 70.7296L134.6 71.4912L132.677 29.3667L143.344 28.7202L160.803 49.7725L161.164 49.7505L160.158 27.701L172.723 26.9394Z" fill="#D82322"/>
<path d="M216.014 43.5916C215.879 42.8494 215.624 42.1864 215.249 41.6026C214.875 41.0051 214.389 40.4875 213.789 40.0497C213.206 39.5996 212.509 39.2429 211.699 38.9798C210.904 38.7043 210.018 38.5243 209.041 38.4398C206.937 38.2578 205.102 38.5609 203.537 39.349C202.869 39.6895 202.258 40.1107 201.706 40.6125C200.978 41.2741 200.35 42.076 199.824 43.0182C198.913 44.6762 198.355 46.7231 198.152 49.1589C197.945 51.6222 198.137 53.7615 198.727 55.5768C199.317 57.3922 200.302 58.8282 201.683 59.8849C203.063 60.9415 204.835 61.5635 207 61.7507C208.909 61.9159 210.516 61.7999 211.821 61.4027C212.846 61.0955 213.686 60.6437 214.343 60.0473C214.532 59.8752 214.706 59.6912 214.865 59.4951C215.574 58.6191 215.981 57.5517 216.087 56.2927L218.234 56.6852L207.682 55.7724L208.362 47.6437L228.835 49.4146L228.347 55.2443C228.027 59.076 226.858 62.2761 224.842 64.8446C224.254 65.595 223.613 66.286 222.919 66.9178C221.247 68.4383 219.263 69.6153 216.969 70.4491C213.737 71.6168 210.107 72.0265 206.078 71.678C201.584 71.2892 197.711 70.079 194.459 68.0472C191.207 66.0154 188.761 63.309 187.121 59.9279C185.497 56.5482 184.87 52.6414 185.241 48.2076C185.531 44.7317 186.368 41.7027 187.75 39.1206C188.844 37.0992 190.193 35.3578 191.798 33.8964C192.242 33.4919 192.705 33.109 193.188 32.7474C195.419 31.0657 197.933 29.8704 200.733 29.1615C203.534 28.4389 206.49 28.2122 209.602 28.4814C212.338 28.718 214.848 29.2935 217.134 30.208C219.435 31.11 221.434 32.2891 223.129 33.7451C224.84 35.1888 226.178 36.8414 227.142 38.703C228.107 40.5645 228.621 42.5594 228.686 44.6876L216.014 43.5916Z" fill="#D82322"/>
<path d="M238.248 74.3927L246.828 32.9596L279.261 40.3282L277.384 49.3917L257.169 44.7988L255.694 51.9201L274.239 56.1336L272.362 65.1971L253.817 60.9836L252.342 68.1049L272.47 72.6779L270.593 81.7414L238.248 74.3927Z" fill="#D82322"/>
<path d="M279.976 86.0855L293.23 45.6825L311.807 52.4701C315.001 53.6372 317.617 55.2042 319.655 57.1711C321.693 59.1381 323.04 61.3905 323.698 63.9285C324.356 66.4665 324.215 69.1691 323.274 72.0363C322.467 74.4973 321.271 76.4486 319.685 77.8902C319.407 78.1435 319.116 78.3811 318.814 78.6029C316.803 80.0923 314.399 80.8929 311.601 81.0047C308.817 81.1216 305.786 80.5812 302.508 79.3834L291.412 75.3292L294.207 66.8067L302.95 70.0009C304.323 70.5025 305.544 70.7721 306.615 70.8097C307.703 70.8392 308.623 70.5936 309.374 70.0727C309.514 69.9785 309.648 69.8738 309.775 69.7586C310.342 69.2432 310.779 68.518 311.086 67.5829C311.465 66.4255 311.508 65.3879 311.212 64.47C310.936 63.5441 310.363 62.731 309.495 62.0307C308.644 61.3224 307.533 60.7174 306.16 60.2158L302.041 58.7108L291.66 90.3546L279.976 86.0855ZM311.277 76.7551L315.954 99.2307L303.26 94.593L298.836 72.2095L311.277 76.7551Z" fill="#D82322"/>
<path d="M33.6235 99.9408L21.0785 59.3512L32.7902 55.1442L37.6906 70.9996L53.1938 65.4306L48.2934 49.5753L60.005 45.3684L72.5501 85.958L60.8384 90.1649L55.938 74.3096L40.4348 79.8785L45.3352 95.7338L33.6235 99.9408Z" stroke="#D82322" stroke-width="2" mask="url(#path-1-outside-1_29_10372)"/>
<path d="M103.306 34.9562L115.589 32.4325L120.213 59.1128C120.763 62.2851 120.414 65.1999 119.166 67.8571C118.282 69.7458 117.021 71.4356 115.381 72.9265C114.729 73.52 114.016 74.082 113.244 74.6125C110.529 76.4619 107.235 77.7845 103.362 78.5804C99.4587 79.3823 95.9337 79.4607 92.7867 78.8157C89.6373 78.157 87.0455 76.8433 85.0113 74.8745C82.9895 72.8891 81.7038 70.3102 81.154 67.1379L76.5306 40.4576L88.8138 37.9338L93.2681 63.638C93.4913 64.926 94.0002 66.0148 94.795 66.9045C95.5874 67.7806 96.5779 68.3914 97.7665 68.7369C98.9697 69.0793 100.271 69.1068 101.67 68.8193C103.084 68.5288 104.287 67.9869 105.278 67.1936C105.405 67.0916 105.528 66.9869 105.646 66.8794C106.449 66.1503 107.044 65.2932 107.432 64.3081C107.874 63.1642 107.984 61.9483 107.76 60.6604L103.306 34.9562Z" stroke="#D82322" stroke-width="2" mask="url(#path-1-outside-1_29_10372)"/>
<path d="M172.723 26.9394L174.646 69.0639L164.16 69.6995L146.426 48.5813L146.155 48.5978L147.165 70.7296L134.6 71.4912L132.677 29.3667L143.344 28.7202L160.803 49.7725L161.164 49.7505L160.158 27.701L172.723 26.9394Z" stroke="#D82322" stroke-width="2" mask="url(#path-1-outside-1_29_10372)"/>
<path d="M216.014 43.5916C215.879 42.8494 215.624 42.1864 215.249 41.6026C214.875 41.0051 214.389 40.4875 213.789 40.0497C213.206 39.5996 212.509 39.2429 211.699 38.9798C210.904 38.7043 210.018 38.5243 209.041 38.4398C206.937 38.2578 205.102 38.5609 203.537 39.349C202.869 39.6895 202.258 40.1107 201.706 40.6125C200.978 41.2741 200.35 42.076 199.824 43.0182C198.913 44.6762 198.355 46.7231 198.152 49.1589C197.945 51.6222 198.137 53.7615 198.727 55.5768C199.317 57.3922 200.302 58.8282 201.683 59.8849C203.063 60.9415 204.835 61.5635 207 61.7507C208.909 61.9159 210.516 61.7999 211.821 61.4027C212.846 61.0955 213.686 60.6437 214.343 60.0473C214.532 59.8752 214.706 59.6912 214.865 59.4951C215.574 58.6191 215.981 57.5517 216.087 56.2927L218.234 56.6852L207.682 55.7724L208.362 47.6437L228.835 49.4146L228.347 55.2443C228.027 59.076 226.858 62.2761 224.842 64.8446C224.254 65.595 223.613 66.286 222.919 66.9178C221.247 68.4383 219.263 69.6153 216.969 70.4491C213.737 71.6168 210.107 72.0265 206.078 71.678C201.584 71.2892 197.711 70.079 194.459 68.0472C191.207 66.0154 188.761 63.309 187.121 59.9279C185.497 56.5482 184.87 52.6414 185.241 48.2076C185.531 44.7317 186.368 41.7027 187.75 39.1206C188.844 37.0992 190.193 35.3578 191.798 33.8964C192.242 33.4919 192.705 33.109 193.188 32.7474C195.419 31.0657 197.933 29.8704 200.733 29.1615C203.534 28.4389 206.49 28.2122 209.602 28.4814C212.338 28.718 214.848 29.2935 217.134 30.208C219.435 31.11 221.434 32.2891 223.129 33.7451C224.84 35.1888 226.178 36.8414 227.142 38.703C228.107 40.5645 228.621 42.5594 228.686 44.6876L216.014 43.5916Z" stroke="#D82322" stroke-width="2" mask="url(#path-1-outside-1_29_10372)"/>
<path d="M238.248 74.3927L246.828 32.9596L279.261 40.3282L277.384 49.3917L257.169 44.7988L255.694 51.9201L274.239 56.1336L272.362 65.1971L253.817 60.9836L252.342 68.1049L272.47 72.6779L270.593 81.7414L238.248 74.3927Z" stroke="#D82322" stroke-width="2" mask="url(#path-1-outside-1_29_10372)"/>
<path d="M279.976 86.0855L293.23 45.6825L311.807 52.4701C315.001 53.6372 317.617 55.2042 319.655 57.1711C321.693 59.1381 323.04 61.3905 323.698 63.9285C324.356 66.4665 324.215 69.1691 323.274 72.0363C322.467 74.4973 321.271 76.4486 319.685 77.8902C319.407 78.1435 319.116 78.3811 318.814 78.6029C316.803 80.0923 314.399 80.8929 311.601 81.0047C308.817 81.1216 305.786 80.5812 302.508 79.3834L291.412 75.3292L294.207 66.8067L302.95 70.0009C304.323 70.5025 305.544 70.7721 306.615 70.8097C307.703 70.8392 308.623 70.5936 309.374 70.0727C309.514 69.9785 309.648 69.8738 309.775 69.7586C310.342 69.2432 310.779 68.518 311.086 67.5829C311.465 66.4255 311.508 65.3879 311.212 64.47C310.936 63.5441 310.363 62.731 309.495 62.0307C308.644 61.3224 307.533 60.7174 306.16 60.2158L302.041 58.7108L291.66 90.3546L279.976 86.0855ZM311.277 76.7551L315.954 99.2307L303.26 94.593L298.836 72.2095L311.277 76.7551Z" stroke="#D82322" stroke-width="2" mask="url(#path-1-outside-1_29_10372)"/>
<path d="M319.026 45.5955C318.851 45.5317 318.655 45.5701 318.518 45.6951L311.471 52.1001C311.341 52.2178 311.283 52.3946 311.317 52.5663C311.35 52.738 311.471 52.8797 311.636 52.9397C314.777 54.0876 317.329 55.6212 319.308 57.5309C319.497 57.7139 319.796 57.7184 319.991 57.5411L327.038 51.1362C327.141 51.0432 327.2 50.912 327.202 50.7737C327.204 50.6354 327.149 50.5025 327.049 50.4064C324.952 48.3823 322.273 46.7818 319.026 45.5955Z" fill="#D82322" stroke="#D82322" stroke-linejoin="round"/>
<path d="M327.049 50.4064C326.86 50.2234 326.561 50.2189 326.366 50.3961L319.319 56.8011C319.216 56.8941 319.157 57.0253 319.155 57.1636C319.153 57.3018 319.208 57.4348 319.308 57.5308C321.285 59.4391 322.581 61.6123 323.214 64.054C323.258 64.2235 323.388 64.3576 323.555 64.4077C323.723 64.4577 323.905 64.4163 324.035 64.2985L331.081 57.8935C331.219 57.7686 331.276 57.5778 331.229 57.3981C330.546 54.7637 329.148 52.432 327.049 50.4064Z" fill="#D82322" stroke="#D82322" stroke-linejoin="round"/>
<path d="M331.229 57.3981C331.185 57.2286 331.056 57.0944 330.888 57.0444C330.72 56.9944 330.539 57.0358 330.409 57.1536L323.362 63.5585C323.225 63.6834 323.168 63.8742 323.214 64.054C323.845 66.4859 323.715 69.0902 322.799 71.8804C322.729 72.0961 322.812 72.3324 323.002 72.4558C323.193 72.5793 323.443 72.5589 323.611 72.4062L330.658 66.0013C330.722 65.9431 330.769 65.8693 330.796 65.7871C331.762 62.8431 331.915 60.0421 331.229 57.3981Z" fill="#D82322" stroke="#D82322" stroke-linejoin="round"/>
<path d="M300.448 38.8078C300.274 38.744 300.078 38.7824 299.94 38.9075L292.893 45.3124C292.764 45.4301 292.705 45.6069 292.739 45.7787C292.773 45.9504 292.894 46.092 293.058 46.1521L311.636 52.9397C311.81 53.0035 312.006 52.9651 312.143 52.84L319.19 46.4351C319.32 46.3174 319.378 46.1405 319.345 45.9688C319.311 45.7971 319.19 45.6555 319.026 45.5954L300.448 38.8078Z" fill="#D82322" stroke="#D82322" stroke-linejoin="round"/>
<path d="M318.596 58.435C318.738 58.3056 318.793 58.1061 318.738 57.9218C318.428 56.8847 317.79 55.9901 316.855 55.2365C316.663 55.0818 316.387 55.09 316.205 55.2557L309.158 61.6607C309.05 61.7589 308.99 61.8995 308.995 62.0455C308.999 62.1915 309.067 62.3283 309.181 62.4199C309.983 63.0669 310.49 63.7984 310.733 64.6132C310.783 64.7778 310.913 64.9056 311.078 64.9517C311.244 64.9977 311.422 64.9555 311.549 64.84L318.596 58.435Z" fill="#D82322" stroke="#D82322" stroke-linejoin="round"/>
<path d="M316.878 55.9957C316.985 55.8984 317.044 55.7596 317.041 55.6149C317.038 55.4703 316.973 55.3342 316.861 55.2416C315.955 54.4867 314.789 53.8566 313.378 53.3412C313.204 53.2773 313.008 53.3157 312.87 53.4408L305.823 59.8457C305.694 59.9634 305.635 60.1403 305.669 60.312C305.703 60.4837 305.824 60.6253 305.988 60.6854C307.323 61.1733 308.38 61.753 309.175 62.4148C309.366 62.5745 309.646 62.5685 309.831 62.4007L316.878 55.9957Z" fill="#D82322" stroke="#D82322" stroke-linejoin="round"/>
<path d="M330.796 65.7871C330.867 65.5714 330.784 65.3352 330.593 65.2117C330.403 65.0882 330.153 65.1086 329.985 65.2613L322.938 71.6662C322.874 71.7244 322.826 71.7982 322.799 71.8804C322.013 74.2762 320.858 76.1476 319.349 77.52C319.349 77.5201 319.349 77.5201 319.349 77.5202C319.349 77.5202 319.349 77.5203 319.349 77.5203C319.145 77.7061 319.13 78.0223 319.315 78.2266C319.501 78.4309 319.817 78.4459 320.022 78.2602L320.022 78.2601L327.069 71.8553L327.069 71.8552C328.73 70.3444 329.968 68.3132 330.796 65.7871Z" fill="#D82322" stroke="#D82322" stroke-linejoin="round"/>
<path d="M313.543 54.1808C313.672 54.0631 313.731 53.8863 313.697 53.7145C313.664 53.5428 313.543 53.4012 313.378 53.3412L309.259 51.8362C309.085 51.7724 308.889 51.8108 308.751 51.9358L301.704 58.3408C301.575 58.4585 301.516 58.6353 301.55 58.807C301.584 58.9788 301.705 59.1204 301.869 59.1804L305.988 60.6854C306.163 60.7492 306.358 60.7108 306.496 60.5857L313.543 54.1808Z" fill="#D82322" stroke="#D82322" stroke-linejoin="round"/>
<path d="M318.469 61.5479C318.533 61.4897 318.581 61.4159 318.608 61.3337C319.011 60.1027 319.07 58.9541 318.735 57.912C318.683 57.7501 318.553 57.6258 318.388 57.5819C318.224 57.5381 318.049 57.5807 317.923 57.695L310.876 64.1C310.731 64.2318 310.676 64.4363 310.736 64.623C310.992 65.4167 310.966 66.3433 310.61 67.427C310.54 67.6427 310.623 67.879 310.814 68.0024C311.004 68.1259 311.254 68.1055 311.422 67.9528L318.469 61.5479Z" fill="#D82322" stroke="#D82322" stroke-linejoin="round"/>
<path d="M309.776 69.7573L309.775 69.7585M309.439 69.3883C309.235 69.5742 309.221 69.8896 309.406 70.0936C309.591 70.2974 309.906 70.3129 310.111 70.1288L309.439 69.3883ZM310.112 70.1273L310.112 70.1272C310.112 70.1271 310.112 70.1271 310.112 70.1271L317.158 63.7237C317.805 63.1359 318.281 62.3283 318.608 61.3337C318.678 61.118 318.595 60.8818 318.404 60.7583C318.214 60.6348 317.964 60.6552 317.796 60.8079L310.749 67.2128C310.685 67.271 310.637 67.3448 310.61 67.427C310.323 68.3019 309.927 68.9444 309.44 69.3872C309.44 69.3872 309.44 69.3872 309.44 69.3873C309.44 69.3873 309.44 69.3873 309.44 69.3873C309.44 69.3874 309.439 69.3874 309.439 69.3874L310.112 70.1273Z" fill="#D82322" stroke="#D82322" stroke-linejoin="round"/>
<path d="M326.396 71.1153L326.392 71.1189C326.392 71.1189 326.392 71.119 326.392 71.119C326.127 71.3591 325.852 71.5843 325.565 71.7946C325.551 71.805 325.537 71.8161 325.524 71.8279L318.478 78.2328C318.281 78.4117 318.258 78.7133 318.427 78.9192C318.595 79.1252 318.895 79.1633 319.109 79.0061C319.426 78.7738 319.73 78.5252 320.022 78.2601L327.064 71.8591L327.064 71.859C327.065 71.8589 327.065 71.8588 327.065 71.8587L327.069 71.8552L327.069 71.8551C327.269 71.6689 327.283 71.3557 327.098 71.1528C326.914 70.9497 326.6 70.9335 326.396 71.1153L326.396 71.1153Z" fill="#D82322" stroke="#D82322" stroke-linejoin="round"/>
<path d="M316.142 63.2531C316.122 63.2666 316.103 63.2815 316.085 63.2978L309.038 69.7027C308.844 69.879 308.819 70.1752 308.981 70.3814C309.143 70.5876 309.436 70.6338 309.654 70.4874C309.814 70.3795 309.966 70.2598 310.111 70.1286L310.111 70.1285L317.157 63.724C317.157 63.7239 317.157 63.7238 317.158 63.7237L317.158 63.7236C317.362 63.5379 317.377 63.2217 317.191 63.0173C317.006 62.813 316.69 62.7978 316.485 62.9835C316.376 63.0828 316.261 63.1725 316.142 63.2531Z" fill="#D82322" stroke="#D82322" stroke-linejoin="round"/>
<path d="M313.675 63.9049C313.546 63.9014 313.421 63.9479 313.325 64.0347L306.278 70.4397C306.127 70.577 306.075 70.7923 306.146 70.9836C306.217 71.175 306.397 71.304 306.601 71.3095C307.775 71.3413 308.805 71.076 309.659 70.4837C309.677 70.4712 309.695 70.4575 309.711 70.4427L316.758 64.0378C316.953 63.8606 316.977 63.5627 316.813 63.3565C316.649 63.1504 316.353 63.1068 316.137 63.2569C315.488 63.7061 314.678 63.9321 313.675 63.9049Z" fill="#D82322" stroke="#D82322" stroke-linejoin="round"/>
<path d="M286.798 34.0246C286.842 33.8126 286.744 33.5963 286.556 33.489C286.368 33.3816 286.132 33.4076 285.972 33.5532L278.925 39.9582C278.847 40.0292 278.793 40.1233 278.772 40.2268L276.895 49.2903C276.851 49.5023 276.948 49.7186 277.136 49.8259C277.324 49.9333 277.56 49.9073 277.72 49.7617L284.767 43.3567C284.846 43.2856 284.899 43.1916 284.921 43.0881L286.798 34.0246Z" fill="#D82322" stroke="#D82322" stroke-linejoin="round"/>
<path d="M326.197 72.5679C326.394 72.3887 326.416 72.0864 326.247 71.8806C326.078 71.6747 325.777 71.6376 325.563 71.7962C323.643 73.2189 321.338 73.9919 318.628 74.1002C318.511 74.1049 318.399 74.1507 318.312 74.2298L311.265 80.6347C311.109 80.7761 311.059 80.9997 311.139 81.1943C311.218 81.3888 311.411 81.5127 311.621 81.5043C314.507 81.389 317.011 80.5608 319.111 79.0046C319.125 78.9947 319.138 78.9841 319.15 78.9729L326.197 72.5679Z" fill="#D82322" stroke="#D82322" stroke-linejoin="round"/>
<path d="M310.168 63.1263C309.994 63.0625 309.798 63.1008 309.66 63.2259L302.613 69.6309C302.484 69.7486 302.425 69.9254 302.459 70.0971C302.493 70.2688 302.614 70.4104 302.778 70.4705C304.184 70.9841 305.459 71.2694 306.597 71.3094C306.727 71.3139 306.854 71.2674 306.951 71.1797L313.998 64.7747C314.148 64.6379 314.201 64.4236 314.131 64.2326C314.061 64.0417 313.882 63.9122 313.679 63.905C312.677 63.8699 311.508 63.616 310.168 63.1263Z" fill="#D82322" stroke="#D82322" stroke-linejoin="round"/>
<path d="M301.426 59.9321C301.251 59.8683 301.056 59.9067 300.918 60.0317L293.871 66.4367C293.742 66.5544 293.683 66.7312 293.717 66.9029C293.75 67.0747 293.872 67.2163 294.036 67.2763L302.778 70.4705C302.953 70.5343 303.148 70.4959 303.286 70.3709L310.333 63.9659C310.462 63.8482 310.521 63.6714 310.487 63.4997C310.454 63.3279 310.333 63.1863 310.168 63.1263L301.426 59.9321Z" fill="#D82322" stroke="#D82322" stroke-linejoin="round"/>
<path d="M306.055 65.3349C305.88 65.2711 305.684 65.3095 305.547 65.4345L298.5 71.8395C298.371 71.9572 298.312 72.134 298.346 72.3057C298.379 72.4775 298.5 72.6191 298.665 72.6791L311.106 77.2247C311.28 77.2885 311.476 77.2501 311.614 77.125L318.66 70.7201C318.79 70.6024 318.848 70.4255 318.815 70.2538C318.781 70.0821 318.66 69.9405 318.496 69.8804L306.055 65.3349Z" fill="#D82322" stroke="#D82322" stroke-linejoin="round"/>
<path d="M253.986 26.0671C253.827 26.0309 253.66 26.0748 253.539 26.1846L246.492 32.5896C246.354 32.7149 246.297 32.9065 246.345 33.0867C246.392 33.267 246.536 33.4059 246.718 33.4472L279.15 40.8158C279.31 40.852 279.477 40.8081 279.597 40.6982L286.644 34.2933C286.782 34.1679 286.839 33.9763 286.792 33.7961C286.744 33.6159 286.601 33.477 286.419 33.4357L253.986 26.0671Z" fill="#D82322" stroke="#D82322" stroke-linejoin="round"/>
<path d="M318.984 74.9698C319.14 74.8282 319.19 74.6044 319.11 74.4097C319.031 74.2151 318.837 74.0914 318.627 74.1002C315.923 74.2137 312.958 73.6895 309.726 72.5088C309.551 72.4449 309.356 72.4833 309.218 72.6084L302.171 79.0133C302.042 79.131 301.983 79.3079 302.017 79.4796C302.051 79.6513 302.172 79.7929 302.336 79.853C305.661 81.0678 308.758 81.6245 311.622 81.5043C311.739 81.4994 311.851 81.4535 311.937 81.3747L318.984 74.9698Z" fill="#D82322" stroke="#D82322" stroke-linejoin="round"/>
<path d="M318.814 70.2482C318.777 70.0725 318.649 69.9299 318.479 69.8745C318.308 69.8191 318.121 69.8594 317.988 69.9801L310.941 76.385C310.81 76.5041 310.752 76.6836 310.788 76.8569L315.464 99.3325C315.501 99.5082 315.628 99.6508 315.799 99.7062C315.97 99.7616 316.157 99.7213 316.29 99.6007L323.337 93.1957C323.468 93.0766 323.526 92.8972 323.49 92.7239L318.814 70.2482Z" fill="#D82322" stroke="#D82322" stroke-linejoin="round"/>
<path d="M284.767 43.3568C284.905 43.2314 284.962 43.0398 284.915 42.8596C284.867 42.6794 284.723 42.5405 284.542 42.4992L264.326 37.9063C264.167 37.8701 264 37.914 263.879 38.0239L256.832 44.4288C256.694 44.5541 256.638 44.7458 256.685 44.926C256.732 45.1062 256.876 45.2451 257.058 45.2864L277.273 49.8793C277.433 49.9155 277.6 49.8716 277.72 49.7617L284.767 43.3568Z" fill="#D82322" stroke="#D82322" stroke-linejoin="round"/>
<path d="M309.563 52.4617C309.634 52.246 309.55 52.0097 309.36 51.8863C309.169 51.7628 308.919 51.7832 308.751 51.9358L301.705 58.3408C301.64 58.399 301.593 58.4728 301.566 58.5549L291.185 90.1987C291.114 90.4144 291.198 90.6507 291.388 90.7742C291.579 90.8976 291.828 90.8772 291.996 90.7246L299.043 84.3196C299.107 84.2614 299.155 84.1877 299.182 84.1055L309.563 52.4617Z" fill="#D82322" stroke="#D82322" stroke-linejoin="round"/>
<path d="M298.795 69.2942C298.859 69.2361 298.907 69.1623 298.934 69.0801L301.729 60.5576C301.8 60.3419 301.717 60.1056 301.526 59.9821C301.336 59.8587 301.086 59.879 300.918 60.0317L293.871 66.4367C293.807 66.4949 293.759 66.5686 293.732 66.6508L290.937 75.1733C290.866 75.389 290.949 75.6253 291.14 75.7488C291.33 75.8722 291.58 75.8519 291.748 75.6992L298.795 69.2942Z" fill="#D82322" stroke="#D82322" stroke-linejoin="round"/>
<path d="M287.359 80.0505C287.423 79.9923 287.471 79.9185 287.498 79.8363L300.752 39.4333C300.823 39.2176 300.739 38.9813 300.549 38.8579C300.358 38.7344 300.108 38.7548 299.94 38.9075L292.894 45.3124C292.83 45.3706 292.782 45.4444 292.755 45.5266L279.501 85.9296C279.43 86.1453 279.513 86.3816 279.704 86.505C279.894 86.6285 280.144 86.6081 280.312 86.4554L287.359 80.0505Z" fill="#D82322" stroke="#D82322" stroke-linejoin="round"/>
<path d="M309.891 73.3484C310.02 73.2307 310.079 73.0539 310.045 72.8821C310.012 72.7104 309.891 72.5688 309.726 72.5088L298.63 68.4546C298.456 68.3908 298.26 68.4292 298.122 68.5543L291.075 74.9592C290.946 75.0769 290.887 75.2537 290.921 75.4255C290.955 75.5972 291.076 75.7388 291.24 75.7988L302.336 79.853C302.511 79.9168 302.706 79.8784 302.844 79.7533L309.891 73.3484Z" fill="#D82322" stroke="#D82322" stroke-linejoin="round"/>
<path d="M310.644 88.558C310.773 88.4402 310.832 88.263 310.798 88.0911L306.374 65.7076C306.339 65.5307 306.211 65.3863 306.04 65.3298C305.869 65.2732 305.68 65.3132 305.547 65.4345L298.5 71.8395C298.37 71.9574 298.312 72.1345 298.346 72.3064L302.77 94.6899C302.805 94.8668 302.932 95.0112 303.104 95.0678C303.275 95.1243 303.463 95.0843 303.597 94.963L310.644 88.558Z" fill="#D82322" stroke="#D82322" stroke-linejoin="round"/>
<path d="M281.776 49.83C281.82 49.618 281.722 49.4017 281.534 49.2944C281.346 49.187 281.11 49.213 280.95 49.3586L273.903 55.7636C273.825 55.8347 273.771 55.9287 273.75 56.0322L271.873 65.0957C271.829 65.3077 271.926 65.524 272.115 65.6313C272.303 65.7387 272.538 65.7127 272.699 65.5671L279.746 59.1621C279.824 59.0911 279.877 58.997 279.899 58.8935L281.776 49.83Z" fill="#D82322" stroke="#D82322" stroke-linejoin="round"/>
<path d="M262.851 45.0276C262.692 44.9914 262.525 45.0353 262.404 45.1451L255.357 51.5501C255.22 51.6754 255.163 51.867 255.21 52.0473C255.258 52.2275 255.401 52.3664 255.583 52.4077L274.129 56.6212C274.288 56.6574 274.455 56.6135 274.576 56.5036L281.622 50.0986C281.76 49.9733 281.817 49.7817 281.77 49.6015C281.722 49.4213 281.579 49.2824 281.397 49.2411L262.851 45.0276Z" fill="#D82322" stroke="#D82322" stroke-linejoin="round"/>
<path d="M264.705 38.4953C264.749 38.2832 264.651 38.067 264.463 37.9596C264.275 37.8523 264.039 37.8782 263.879 38.0239L256.832 44.4288C256.754 44.4999 256.7 44.5939 256.679 44.6974L255.204 51.8187C255.16 52.0308 255.258 52.247 255.446 52.3544C255.634 52.4617 255.87 52.4358 256.03 52.2901L263.077 45.8852C263.155 45.8141 263.209 45.7201 263.23 45.6166L264.705 38.4953Z" fill="#D82322" stroke="#D82322" stroke-linejoin="round"/>
<path d="M323.337 93.1957C323.466 93.078 323.525 92.9012 323.491 92.7295C323.457 92.5577 323.336 92.4161 323.172 92.3561L310.479 87.7184C310.304 87.6546 310.109 87.6929 309.971 87.818L302.924 94.223C302.795 94.3407 302.736 94.5175 302.77 94.6892C302.803 94.8609 302.924 95.0026 303.089 95.0626L315.782 99.7003C315.957 99.7641 316.152 99.7257 316.29 99.6007L323.337 93.1957Z" fill="#D82322" stroke="#D82322" stroke-linejoin="round"/>
<path d="M279.746 59.1621C279.883 59.0368 279.94 58.8452 279.893 58.665C279.845 58.4847 279.702 58.3458 279.52 58.3045L260.974 54.091C260.815 54.0549 260.648 54.0987 260.527 54.2086L253.48 60.6136C253.343 60.7389 253.286 60.9305 253.333 61.1107C253.381 61.2909 253.524 61.4299 253.706 61.4711L272.252 65.6846C272.411 65.7208 272.578 65.6769 272.699 65.5671L279.746 59.1621Z" fill="#D82322" stroke="#D82322" stroke-linejoin="round"/>
<path d="M299.043 84.3196C299.173 84.2019 299.231 84.0251 299.198 83.8534C299.164 83.6816 299.043 83.54 298.879 83.48L287.194 79.2108C287.02 79.147 286.824 79.1854 286.686 79.3105L279.639 85.7154C279.51 85.8331 279.451 86.01 279.485 86.1817C279.519 86.3534 279.64 86.495 279.804 86.5551L291.489 90.8242C291.663 90.888 291.859 90.8496 291.996 90.7246L299.043 84.3196Z" fill="#D82322" stroke="#D82322" stroke-linejoin="round"/>
<path d="M280.006 66.3743C280.05 66.1622 279.952 65.946 279.764 65.8386C279.576 65.7313 279.34 65.7572 279.18 65.9029L272.133 72.3078C272.055 72.3789 272.001 72.4729 271.98 72.5764L270.103 81.6399C270.059 81.852 270.157 82.0682 270.345 82.1755C270.533 82.2829 270.769 82.257 270.929 82.1113L277.976 75.7064C278.054 75.6353 278.108 75.5412 278.129 75.4377L280.006 66.3743Z" fill="#D82322" stroke="#D82322" stroke-linejoin="round"/>
<path d="M230.498 26.958C230.306 26.7964 230.025 26.8016 229.839 26.9702L222.792 33.3752C222.686 33.4721 222.626 33.6103 222.629 33.7544C222.631 33.8985 222.696 34.0344 222.806 34.1273C224.471 35.5317 225.766 37.1335 226.699 38.933C226.77 39.0709 226.901 39.1677 227.054 39.1951C227.207 39.2226 227.364 39.1774 227.479 39.073L234.526 32.668C234.693 32.5156 234.738 32.2693 234.633 32.068C233.636 30.1444 232.256 28.4411 230.498 26.958Z" fill="#D82322" stroke="#D82322" stroke-linejoin="round"/>
<path d="M259.5 61.2124C259.34 61.1762 259.173 61.2201 259.052 61.3299L252.006 67.7349C251.868 67.8602 251.811 68.0519 251.858 68.2321C251.906 68.4123 252.049 68.5512 252.231 68.5925L272.359 73.1654C272.518 73.2016 272.685 73.1577 272.806 73.0479L279.853 66.6429C279.991 66.5176 280.047 66.326 280 66.1457C279.953 65.9655 279.809 65.8266 279.627 65.7853L259.5 61.2124Z" fill="#D82322" stroke="#D82322" stroke-linejoin="round"/>
<path d="M224.363 23.3375C224.186 23.2681 223.985 23.3051 223.844 23.433L216.797 29.8379C216.67 29.9542 216.611 30.1284 216.642 30.2985C216.673 30.4685 216.79 30.6104 216.951 30.6735C219.206 31.5572 221.155 32.7086 222.803 34.1244C222.994 34.2888 223.278 34.2848 223.465 34.1151L230.512 27.7102C230.618 27.6138 230.678 27.4765 230.676 27.3332C230.674 27.1898 230.61 27.0543 230.501 26.9609C228.759 25.4645 226.711 24.2578 224.363 23.3375Z" fill="#D82322" stroke="#D82322" stroke-linejoin="round"/>
<path d="M245.631 68.3577C245.709 68.2866 245.763 68.1926 245.784 68.0891L254.365 26.656C254.409 26.444 254.311 26.2277 254.123 26.1204C253.935 26.013 253.699 26.039 253.539 26.1846L246.492 32.5896C246.414 32.6607 246.36 32.7547 246.339 32.8582L237.758 74.2913C237.714 74.5033 237.812 74.7196 238 74.8269C238.188 74.9343 238.424 74.9083 238.584 74.7627L245.631 68.3577Z" fill="#D82322" stroke="#D82322" stroke-linejoin="round"/>
<path d="M261.353 54.68C261.397 54.4679 261.3 54.2517 261.111 54.1444C260.923 54.037 260.688 54.0629 260.527 54.2086L253.48 60.6136C253.402 60.6846 253.349 60.7787 253.327 60.8822L251.852 68.0035C251.808 68.2155 251.906 68.4318 252.094 68.5391C252.282 68.6465 252.518 68.6205 252.678 68.4749L259.725 62.0699C259.803 61.9988 259.857 61.9048 259.878 61.8013L261.353 54.68Z" fill="#D82322" stroke="#D82322" stroke-linejoin="round"/>
<path d="M234.633 32.0679C234.562 31.9301 234.43 31.8332 234.278 31.8058C234.125 31.7784 233.968 31.8235 233.853 31.928L226.806 38.3329C226.638 38.4854 226.594 38.7317 226.699 38.933C227.628 40.7269 228.124 42.6482 228.186 44.7027C228.192 44.8977 228.311 45.0716 228.49 45.1478C228.67 45.2241 228.878 45.1889 229.022 45.0576L236.069 38.6526C236.177 38.5544 236.237 38.4137 236.232 38.2676C236.166 36.0656 235.633 33.9971 234.633 32.0679Z" fill="#D82322" stroke="#D82322" stroke-linejoin="round"/>
<path d="M216.692 21.5782C216.553 21.5662 216.416 21.6127 216.313 21.7064L209.266 28.1113C209.119 28.245 209.065 28.453 209.128 28.6413C209.192 28.8296 209.361 28.9623 209.559 28.9794C212.251 29.2123 214.713 29.7779 216.948 30.6721C217.126 30.7432 217.328 30.7067 217.47 30.5779L224.517 24.173C224.644 24.0571 224.703 23.8837 224.673 23.7142C224.642 23.5446 224.526 23.4027 224.366 23.3387C222.03 22.4041 219.471 21.8186 216.692 21.5782Z" fill="#D82322" stroke="#D82322" stroke-linejoin="round"/>
<path d="M236.069 38.6527C236.216 38.519 236.27 38.3109 236.206 38.1227C236.143 37.9344 235.974 37.8016 235.776 37.7845L223.104 36.6884C222.965 36.6764 222.828 36.7229 222.724 36.8166L215.678 43.2215C215.531 43.3552 215.477 43.5633 215.54 43.7515C215.604 43.9398 215.773 44.0726 215.971 44.0897L228.643 45.1857C228.781 45.1977 228.919 45.1513 229.022 45.0576L236.069 38.6527Z" fill="#D82322" stroke="#D82322" stroke-linejoin="round"/>
<path d="M207.655 22.2724C207.576 22.2927 207.504 22.3319 207.444 22.3865L200.397 28.7915C200.227 28.9461 200.184 29.1968 200.293 29.399C200.402 29.6013 200.636 29.7031 200.858 29.6456C203.6 28.9383 206.499 28.7148 209.559 28.9795C209.698 28.9915 209.835 28.945 209.938 28.8513L216.985 22.4464C217.132 22.3127 217.186 22.1046 217.123 21.9164C217.059 21.7281 216.89 21.5953 216.692 21.5782C213.528 21.3046 210.515 21.5346 207.655 22.2724Z" fill="#D82322" stroke="#D82322" stroke-linejoin="round"/>
<path d="M236.38 43.0513C236.397 42.8466 236.288 42.6521 236.103 42.5612C235.919 42.4703 235.698 42.5014 235.546 42.6396L228.499 49.0446C228.405 49.1296 228.347 49.2469 228.337 49.3729L227.849 55.2026C227.832 55.4074 227.942 55.6018 228.126 55.6927C228.31 55.7836 228.532 55.7525 228.684 55.6143L235.731 49.2093C235.824 49.1243 235.882 49.007 235.893 48.881L236.38 43.0513Z" fill="#D82322" stroke="#D82322" stroke-linejoin="round"/>
<path d="M222.632 35.5676C222.811 35.4049 222.848 35.1374 222.72 34.9323C222.31 34.2781 221.779 33.7143 221.131 33.241C220.939 33.1009 220.676 33.115 220.5 33.2747L213.453 39.6797C213.342 39.7807 213.282 39.9264 213.29 40.0764C213.298 40.2264 213.373 40.3648 213.494 40.4534C214.045 40.8557 214.487 41.3271 214.825 41.8678C214.904 41.9934 215.034 42.0776 215.181 42.0979C215.328 42.1181 215.476 42.0722 215.585 41.9726L222.632 35.5676Z" fill="#D82322" stroke="#D82322" stroke-linejoin="round"/>
<path d="M221.172 34.0147C221.282 33.9153 221.342 33.7724 221.336 33.6247C221.33 33.4769 221.259 33.3393 221.142 33.2489C220.507 32.7587 219.757 32.3773 218.9 32.0992C218.729 32.0439 218.542 32.0842 218.409 32.2048L211.362 38.6098C211.23 38.7297 211.172 38.9107 211.21 39.085C211.247 39.2592 211.375 39.4003 211.544 39.4554C212.309 39.7035 212.953 40.0354 213.484 40.4455C213.676 40.5936 213.946 40.5827 214.126 40.4197L221.172 34.0147Z" fill="#D82322" stroke="#D82322" stroke-linejoin="round"/>
<path d="M223.397 37.5566C223.525 37.4406 223.584 37.267 223.553 37.0973C223.407 36.2964 223.13 35.5709 222.717 34.9274C222.637 34.8036 222.507 34.7211 222.361 34.7019C222.216 34.6827 222.069 34.7287 221.96 34.8276L214.913 41.2326C214.732 41.3968 214.697 41.6675 214.829 41.8729C215.165 42.3969 215.398 42.9974 215.522 43.6809C215.554 43.8597 215.681 44.0068 215.853 44.0651C216.026 44.1234 216.216 44.0838 216.35 43.9616L223.397 37.5566Z" fill="#D82322" stroke="#D82322" stroke-linejoin="round"/>
<path d="M277.976 75.7064C278.114 75.5811 278.17 75.3895 278.123 75.2092C278.076 75.029 277.932 74.8901 277.75 74.8488L245.405 67.5002C245.246 67.464 245.079 67.5079 244.958 67.6177L237.911 74.0227C237.773 74.148 237.717 74.3396 237.764 74.5198C237.812 74.7001 237.955 74.839 238.137 74.8803L270.482 82.2289C270.641 82.2651 270.808 82.2212 270.929 82.1114L277.976 75.7064Z" fill="#D82322" stroke="#D82322" stroke-linejoin="round"/>
<path d="M219.082 32.9448C219.212 32.8262 219.271 32.6474 219.235 32.4745C219.2 32.3017 219.076 32.1602 218.909 32.1024C218.07 31.8114 217.143 31.6242 216.131 31.5367C215.992 31.5247 215.855 31.5711 215.752 31.6648L208.705 38.0698C208.558 38.2035 208.504 38.4115 208.567 38.5998C208.631 38.7881 208.8 38.9208 208.998 38.9379C209.941 39.0195 210.785 39.1923 211.535 39.4522C211.708 39.5121 211.9 39.4729 212.035 39.3498L219.082 32.9448Z" fill="#D82322" stroke="#D82322" stroke-linejoin="round"/>
<path d="M215.452 40.7406C215.313 40.7286 215.176 40.775 215.073 40.8687L208.026 47.2737C207.879 47.4073 207.825 47.6154 207.888 47.8037C207.952 47.9919 208.121 48.1247 208.319 48.1418L228.792 49.9127C228.931 49.9247 229.068 49.8782 229.171 49.7845L236.218 43.3796C236.365 43.2459 236.419 43.0379 236.356 42.8496C236.292 42.6613 236.123 42.5286 235.925 42.5114L215.452 40.7406Z" fill="#D82322" stroke="#D82322" stroke-linejoin="round"/>
<path d="M216.424 32.4048C216.571 32.2712 216.625 32.0631 216.562 31.8748C216.498 31.6865 216.329 31.5538 216.131 31.5367C213.953 31.3483 212.022 31.6597 210.359 32.4974C210.319 32.5178 210.281 32.5436 210.248 32.574L203.201 38.9789C203.016 39.1471 202.984 39.4261 203.125 39.6322C203.267 39.8382 203.539 39.908 203.762 39.7955C205.229 39.0569 206.967 38.7622 208.998 38.9379C209.137 38.9499 209.274 38.9035 209.377 38.8098L216.424 32.4048Z" fill="#D82322" stroke="#D82322" stroke-linejoin="round"/>
<path d="M199.934 25.9433C199.922 25.9525 199.91 25.9622 199.899 25.9725L192.852 32.3774C192.654 32.5572 192.633 32.8607 192.803 33.0664C192.974 33.2722 193.276 33.3076 193.49 33.1467C195.665 31.5064 198.119 30.3394 200.856 29.6462C200.936 29.6261 201.009 29.5867 201.07 29.5315L208.116 23.1266C208.286 22.9723 208.329 22.7222 208.221 22.52C208.112 22.3179 207.88 22.2156 207.657 22.2719C204.795 22.9966 202.219 24.2201 199.934 25.9433Z" fill="#D82322" stroke="#D82322" stroke-linejoin="round"/>
<path d="M235.893 48.881C235.91 48.6763 235.8 48.4819 235.615 48.3909C235.431 48.3 235.21 48.3311 235.058 48.4694L228.011 54.8743C227.918 54.9593 227.86 55.0766 227.849 55.2026C227.535 58.9546 226.394 62.057 224.448 64.5359C224.288 64.7403 224.311 65.0337 224.501 65.2107C224.691 65.3878 224.985 65.3895 225.178 65.2147L232.225 58.8097C232.245 58.7909 232.264 58.7704 232.282 58.7485C234.369 56.0903 235.565 52.7925 235.893 48.881Z" fill="#D82322" stroke="#D82322" stroke-linejoin="round"/>
<path d="M210.92 33.314C211.106 33.1456 211.138 32.866 210.996 32.6599C210.853 32.4538 210.58 32.3848 210.357 32.4985C209.649 32.8591 209.002 33.3055 208.417 33.8374L208.417 33.8375L201.371 40.2417C201.37 40.2419 201.37 40.2421 201.37 40.2423L201.37 40.2424C201.165 40.4281 201.15 40.7443 201.336 40.9487C201.522 41.153 201.838 41.1682 202.042 40.9825C202.042 40.9825 202.042 40.9824 202.042 40.9824C202.043 40.9822 202.043 40.9819 202.043 40.9817C202.562 40.5103 203.136 40.1147 203.764 39.7945C203.804 39.7743 203.841 39.7489 203.874 39.719L210.92 33.314Z" fill="#D82322" stroke="#D82322" stroke-linejoin="round"/>
<path d="M192.162 34.2407C192.586 33.8565 193.028 33.4922 193.488 33.1477C193.501 33.1382 193.513 33.1281 193.525 33.1174L200.572 26.7125C200.769 26.533 200.791 26.23 200.621 26.0242C200.451 25.8183 200.149 25.7822 199.936 25.9421C199.44 26.3132 198.964 26.7064 198.508 27.1217C198.508 27.1217 198.508 27.1217 198.508 27.1218L191.49 33.5002L191.49 33.5006L191.461 33.5264L191.461 33.5267C191.257 33.7126 191.242 34.0287 191.428 34.2329C191.614 34.437 191.93 34.452 192.134 34.2664L192.134 34.266L192.162 34.2409C192.162 34.2409 192.162 34.2408 192.162 34.2407Z" fill="#D82322" stroke="#D82322" stroke-linejoin="round"/>
<path d="M223.223 49.3958C223.07 49.3678 222.913 49.4129 222.797 49.5177L215.75 55.9226C215.61 56.0506 215.554 56.2472 215.606 56.4301C215.658 56.6129 215.81 56.7503 215.997 56.7845L218.144 57.177C218.297 57.205 218.455 57.16 218.57 57.0552L225.617 50.6502C225.758 50.5223 225.814 50.3256 225.762 50.1428C225.709 49.9599 225.558 49.8225 225.371 49.7883L223.223 49.3958Z" fill="#D82322" stroke="#D82322" stroke-linejoin="round"/>
<path d="M208.417 33.8374L208.413 33.8404C208.413 33.8404 208.413 33.8404 208.413 33.8404L208.413 33.8405L208.413 33.8405C208.413 33.8406 208.413 33.8407 208.413 33.8407L201.37 40.2423C201.37 40.2423 201.37 40.2424 201.37 40.2424C200.598 40.9438 199.938 41.7895 199.387 42.7742C199.268 42.9881 199.321 43.2572 199.513 43.4096C199.704 43.5621 199.979 43.553 200.16 43.3882L207.207 36.9832C207.247 36.9469 207.281 36.9043 207.307 36.8571C207.809 35.959 208.403 35.2018 209.086 34.5804C209.086 34.5804 209.086 34.5803 209.086 34.5803L209.089 34.5775L209.089 34.5775C209.29 34.3914 209.304 34.0773 209.12 33.8741C208.935 33.6709 208.621 33.6549 208.417 33.8374L208.417 33.8374Z" fill="#D82322" stroke="#D82322" stroke-linejoin="round"/>
<path d="M222.248 53.4601C222.267 53.443 222.284 53.4245 222.3 53.4047C223.08 52.4416 223.519 51.2757 223.632 49.9294C223.649 49.7246 223.539 49.5302 223.355 49.4393C223.17 49.3484 222.949 49.3795 222.797 49.5177L215.75 55.9226C215.657 56.0077 215.599 56.125 215.588 56.251C215.49 57.4226 215.115 58.3917 214.476 59.1804C214.312 59.3836 214.331 59.6791 214.521 59.8586C214.712 60.038 215.008 60.0409 215.201 59.8651L222.248 53.4601Z" fill="#D82322" stroke="#D82322" stroke-linejoin="round"/>
<path d="M232.282 58.7478C232.442 58.5432 232.419 58.2501 232.229 58.0733C232.038 57.8965 231.744 57.8949 231.552 58.0696L224.505 64.4746C224.484 64.4935 224.465 64.5142 224.448 64.5364C223.878 65.2648 223.256 65.935 222.583 66.5474C222.583 66.5475 222.582 66.5477 222.582 66.5478C222.582 66.5478 222.582 66.5478 222.582 66.5479C222.378 66.7336 222.363 67.0498 222.549 67.2541C222.734 67.4584 223.051 67.4735 223.255 67.2878L223.255 67.2877L230.302 60.8828L230.302 60.8827C231.018 60.2317 231.678 59.52 232.282 58.7478Z" fill="#D82322" stroke="#D82322" stroke-linejoin="round"/>
<path d="M215.065 49.7374C215.158 49.6524 215.216 49.5351 215.227 49.4091L215.907 41.2804C215.924 41.0756 215.814 40.8812 215.63 40.7903C215.446 40.6994 215.225 40.7305 215.072 40.8687L208.026 47.2737C207.932 47.3587 207.874 47.476 207.864 47.602L207.184 55.7307C207.166 55.9354 207.276 56.1299 207.461 56.2208C207.645 56.3117 207.866 56.2806 208.018 56.1424L215.065 49.7374Z" fill="#D82322" stroke="#D82322" stroke-linejoin="round"/>
<path d="M225.617 50.6502C225.764 50.5166 225.818 50.3085 225.755 50.1202C225.691 49.932 225.522 49.7992 225.324 49.7821L214.772 48.8694C214.633 48.8573 214.495 48.9038 214.392 48.9975L207.345 55.4024C207.198 55.5361 207.144 55.7442 207.208 55.9324C207.272 56.1207 207.441 56.2535 207.639 56.2706L218.191 57.1833C218.33 57.1953 218.467 57.1489 218.57 57.0552L225.617 50.6502Z" fill="#D82322" stroke="#D82322" stroke-linejoin="round"/>
<path d="M195.133 33.0856C195.174 33.0478 195.209 33.0031 195.236 32.9536C196.305 30.9787 197.621 29.2825 199.181 27.8611C199.385 27.6752 199.4 27.3591 199.214 27.1549C199.029 26.9507 198.713 26.9357 198.508 27.1214L198.508 27.1217L191.461 33.5263L191.461 33.5267C189.813 35.0281 188.429 36.8148 187.31 38.8826C187.194 39.097 187.249 39.3638 187.441 39.5142C187.633 39.6645 187.906 39.6546 188.086 39.4906L195.133 33.0856Z" fill="#D82322" stroke="#D82322" stroke-linejoin="round"/>
<path d="M214.006 59.6772L214.006 59.6772L214.008 59.6755L214.006 59.6772ZM214.006 59.6772C213.804 59.8632 213.79 60.178 213.975 60.3817C214.16 60.5853 214.475 60.601 214.679 60.4173L214.679 60.4173L214.681 60.4154C214.681 60.4154 214.681 60.4154 214.681 60.4154L214.681 60.4154L214.681 60.4153C214.681 60.4153 214.681 60.4153 214.681 60.4152L221.726 54.0124C221.726 54.0123 221.726 54.0123 221.726 54.0123C221.934 53.8234 222.125 53.6208 222.3 53.4047C222.465 53.2016 222.445 52.906 222.255 52.7266C222.065 52.5471 221.769 52.5443 221.575 52.7201L214.529 59.125C214.51 59.1421 214.492 59.1607 214.476 59.1804C214.334 59.3558 214.178 59.5207 214.008 59.6754C214.008 59.6754 214.008 59.6754 214.008 59.6754L214.006 59.6772Z" fill="#D82322" stroke="#D82322" stroke-linejoin="round"/>
<path d="M207.309 36.854C207.426 36.6398 207.372 36.3719 207.18 36.2206C206.988 36.0693 206.715 36.0788 206.534 36.2432L199.487 42.6482C199.447 42.6853 199.412 42.729 199.385 42.7774C198.433 44.5119 197.861 46.6311 197.653 49.1172C197.636 49.322 197.746 49.5164 197.93 49.6073C198.115 49.6982 198.336 49.6671 198.488 49.5289L205.535 43.124C205.628 43.0389 205.686 42.9216 205.697 42.7957C205.896 40.41 206.44 38.4354 207.309 36.854Z" fill="#D82322" stroke="#D82322" stroke-linejoin="round"/>
<path d="M218.724 54.5189C218.653 54.5403 218.587 54.5776 218.531 54.6278L211.485 61.0328C211.312 61.1898 211.271 61.4456 211.386 61.6488C211.501 61.8521 211.741 61.9488 211.965 61.8817C213.046 61.5574 213.957 61.0733 214.679 60.4174L214.679 60.4173L221.725 54.0129C221.725 54.0127 221.726 54.0126 221.726 54.0124L221.726 54.0123C221.93 53.8266 221.945 53.5104 221.76 53.3061C221.574 53.1017 221.258 53.0866 221.053 53.2722C220.462 53.8092 219.692 54.2288 218.724 54.5189Z" fill="#D82322" stroke="#D82322" stroke-linejoin="round"/>
<path d="M229.629 60.1429L229.623 60.1486C229.623 60.1486 229.623 60.1486 229.623 60.1486C229.623 60.1486 229.623 60.1486 229.623 60.1487C229.623 60.1487 229.623 60.1488 229.623 60.1488C228.004 61.6192 226.08 62.7619 223.845 63.5741C223.784 63.5963 223.728 63.6303 223.679 63.674L216.633 70.079C216.456 70.2397 216.417 70.5029 216.541 70.7074C216.664 70.9119 216.915 71.0005 217.14 70.9189C219.49 70.0648 221.531 68.8554 223.255 67.2877L230.295 60.8888L230.295 60.8887L230.302 60.8827L230.302 60.8827C230.5 60.6962 230.513 60.3846 230.329 60.1824C230.145 59.9801 229.834 59.9632 229.629 60.1429L229.629 60.1429Z" fill="#D82322" stroke="#D82322" stroke-linejoin="round"/>
<path d="M214.09 54.8476C213.951 54.8356 213.814 54.882 213.71 54.9757L206.664 61.3807C206.517 61.5143 206.463 61.7224 206.526 61.9107C206.59 62.099 206.759 62.2317 206.957 62.2488C208.906 62.4174 210.581 62.3026 211.967 61.881C212.037 61.8595 212.103 61.8225 212.157 61.7727L219.204 55.3677C219.377 55.2104 219.418 54.9542 219.303 54.7508C219.187 54.5474 218.946 54.4513 218.722 54.5194C217.498 54.8921 215.959 55.0093 214.09 54.8476Z" fill="#D82322" stroke="#D82322" stroke-linejoin="round"/>
<path d="M205.697 42.7957C205.714 42.5909 205.604 42.3965 205.42 42.3056C205.235 42.2147 205.014 42.2458 204.862 42.384L197.815 48.789C197.722 48.874 197.664 48.9913 197.653 49.1173C197.443 51.6281 197.636 53.8371 198.252 55.7314C198.304 55.8928 198.435 56.0166 198.599 56.0601C198.763 56.1037 198.938 56.061 199.064 55.9469L206.111 49.5419C206.256 49.4097 206.311 49.2044 206.25 49.0174C205.685 47.2809 205.495 45.2114 205.697 42.7957Z" fill="#D82322" stroke="#D82322" stroke-linejoin="round"/>
<path d="M192.624 42.1726C192.717 42.0876 192.775 41.9703 192.786 41.8443C193.072 38.4236 193.893 35.4631 195.237 32.9516C195.352 32.737 195.296 32.471 195.104 32.3213C194.912 32.1717 194.64 32.182 194.46 32.3456L187.413 38.7506C187.371 38.789 187.336 38.8343 187.309 38.8847C185.889 41.5372 185.038 44.6348 184.742 48.1659C184.725 48.3707 184.835 48.5651 185.019 48.656C185.204 48.7469 185.425 48.7158 185.577 48.5776L192.624 42.1726Z" fill="#D82322" stroke="#D82322" stroke-linejoin="round"/>
<path d="M209.033 53.0828C208.842 52.9359 208.572 52.9473 208.393 53.1099L201.346 59.5148C201.237 59.6145 201.177 59.7578 201.183 59.9059C201.189 60.054 201.261 60.1917 201.379 60.2818C202.851 61.4092 204.721 62.0554 206.957 62.2488C207.096 62.2608 207.233 62.2144 207.336 62.1207L214.383 55.7157C214.53 55.5821 214.584 55.374 214.52 55.1857C214.457 54.9974 214.288 54.8647 214.09 54.8476C211.996 54.6665 210.321 54.0688 209.033 53.0828Z" fill="#D82322" stroke="#D82322" stroke-linejoin="round"/>
<path d="M206.25 49.0173C206.197 48.8559 206.067 48.7321 205.902 48.6886C205.738 48.6451 205.564 48.6877 205.438 48.8019L198.391 55.2068C198.246 55.3391 198.191 55.5444 198.252 55.7314C198.87 57.6332 199.91 59.1576 201.379 60.2819C201.571 60.4288 201.84 60.4174 202.019 60.2549L209.066 53.8499C209.176 53.7502 209.235 53.607 209.229 53.4588C209.223 53.3107 209.151 53.173 209.033 53.0829C207.742 52.0938 206.812 50.7462 206.25 49.0173Z" fill="#D82322" stroke="#D82322" stroke-linejoin="round"/>
<path d="M167.174 20.797C167.061 20.8039 166.953 20.8494 166.868 20.926L159.821 27.331C159.664 27.4737 159.615 27.6999 159.697 27.8953C159.779 28.0908 159.976 28.2129 160.188 28.2001L172.753 27.4385C172.867 27.4316 172.975 27.386 173.059 27.3094L180.106 20.9044C180.263 20.7618 180.313 20.5356 180.23 20.3401C180.148 20.1447 179.951 20.0225 179.739 20.0353L167.174 20.797Z" fill="#D82322" stroke="#D82322" stroke-linejoin="round"/>
<path d="M224.352 64.4141C224.529 64.2536 224.567 63.9905 224.444 63.7861C224.321 63.5816 224.07 63.4927 223.846 63.5739C220.693 64.713 217.137 65.1182 213.168 64.7749C213.03 64.7629 212.892 64.8093 212.789 64.903L205.742 71.308C205.595 71.4417 205.541 71.6497 205.605 71.838C205.668 72.0263 205.837 72.159 206.035 72.1761C210.123 72.5297 213.828 72.1156 217.139 70.9193C217.2 70.8971 217.257 70.863 217.305 70.8191L224.352 64.4141Z" fill="#D82322" stroke="#D82322" stroke-linejoin="round"/>
<path d="M194.505 53.893C194.668 53.7442 194.715 53.5056 194.619 53.3063C193.039 50.0207 192.421 46.206 192.786 41.8443C192.803 41.6395 192.693 41.4451 192.509 41.3542C192.324 41.2633 192.103 41.2944 191.951 41.4326L184.904 47.8376C184.811 47.9226 184.753 48.0399 184.742 48.1659C184.365 52.6719 185.001 56.6707 186.671 60.1446C186.739 60.2869 186.871 60.3885 187.026 60.4187C187.181 60.4489 187.341 60.4041 187.458 60.2979L194.505 53.893Z" fill="#D82322" stroke="#D82322" stroke-linejoin="round"/>
<path d="M213.462 65.643C213.609 65.5093 213.663 65.3013 213.599 65.113C213.535 64.9247 213.366 64.792 213.168 64.7748C208.739 64.3917 204.945 63.2012 201.771 61.2181C201.581 61.0995 201.335 61.1215 201.17 61.2721L194.123 67.6771C194.007 67.7824 193.947 67.9359 193.961 68.0919C193.975 68.2478 194.061 68.3882 194.194 68.4711C197.524 70.5516 201.476 71.7817 206.035 72.1761C206.174 72.1881 206.312 72.1416 206.415 72.0479L213.462 65.643Z" fill="#D82322" stroke="#D82322" stroke-linejoin="round"/>
<path d="M180.269 20.5116C180.26 20.3181 180.14 20.147 179.962 20.0727C179.783 19.9983 179.577 20.0341 179.433 20.1644L172.387 26.5694C172.276 26.6695 172.217 26.8135 172.223 26.9622L174.147 69.0867C174.156 69.2802 174.275 69.4513 174.454 69.5256C174.633 69.5999 174.839 69.5642 174.982 69.4339L182.029 63.0289C182.14 62.9288 182.199 62.7848 182.193 62.6361L180.269 20.5116Z" fill="#D82322" stroke="#D82322" stroke-linejoin="round"/>
<path d="M201.842 62.0122C201.958 61.9069 202.018 61.7534 202.004 61.5974C201.99 61.4415 201.904 61.3011 201.771 61.2182C198.597 59.2351 196.216 56.5993 194.618 53.3047C194.549 53.163 194.418 53.0619 194.263 53.032C194.108 53.0021 193.949 53.047 193.832 53.1529L186.785 59.5579C186.621 59.7071 186.575 59.9466 186.672 60.1461C188.353 63.6136 190.864 66.3906 194.194 68.4712C194.384 68.5898 194.63 68.5678 194.795 68.4171L201.842 62.0122Z" fill="#D82322" stroke="#D82322" stroke-linejoin="round"/>
<path d="M168.548 43.7156C168.658 43.6154 168.718 43.4714 168.711 43.3227L167.704 21.2732C167.695 21.0796 167.575 20.9086 167.396 20.8343C167.217 20.7599 167.012 20.7957 166.868 20.926L159.821 27.331C159.711 27.4311 159.651 27.5751 159.658 27.7238L160.665 49.7733C160.674 49.9669 160.794 50.1379 160.973 50.2122C161.152 50.2866 161.357 50.2508 161.501 50.1205L168.548 43.7156Z" fill="#D82322" stroke="#D82322" stroke-linejoin="round"/>
<path d="M150.775 21.996C150.688 21.8909 150.562 21.826 150.426 21.8164C150.29 21.8068 150.155 21.8533 150.054 21.9452L143.007 28.3501C142.81 28.5299 142.788 28.8335 142.959 29.0393L160.418 50.0916C160.505 50.1967 160.631 50.2616 160.768 50.2712C160.904 50.2808 161.038 50.2343 161.139 50.1424L168.186 43.7375C168.384 43.5577 168.405 43.2541 168.235 43.0483L150.775 21.996Z" fill="#D82322" stroke="#D82322" stroke-linejoin="round"/>
<path d="M167.819 42.8684C167.706 42.8753 167.598 42.9208 167.513 42.9975L160.466 49.4024C160.309 49.5451 160.26 49.7713 160.342 49.9668C160.424 50.1622 160.621 50.2844 160.833 50.2715L161.195 50.2496C161.308 50.2427 161.416 50.1972 161.501 50.1205L168.548 43.7156C168.704 43.5729 168.754 43.3467 168.672 43.1513C168.589 42.9558 168.393 42.8337 168.181 42.8465L167.819 42.8684Z" fill="#D82322" stroke="#D82322" stroke-linejoin="round"/>
<path d="M139.694 22.4627C139.58 22.4696 139.472 22.5151 139.387 22.5917L132.341 28.9967C132.184 29.1394 132.134 29.3656 132.216 29.561C132.299 29.7565 132.495 29.8786 132.707 29.8658L143.374 29.2192C143.488 29.2123 143.596 29.1668 143.68 29.0901L150.727 22.6852C150.884 22.5425 150.934 22.3163 150.851 22.1209C150.769 21.9254 150.572 21.8033 150.36 21.8161L139.694 22.4627Z" fill="#D82322" stroke="#D82322" stroke-linejoin="round"/>
<path d="M182.029 63.0289C182.186 62.8862 182.236 62.66 182.154 62.4646C182.071 62.2691 181.874 62.147 181.663 62.1598L171.177 62.7954C171.063 62.8023 170.955 62.8478 170.871 62.9245L163.824 69.3294C163.667 69.4721 163.617 69.6983 163.699 69.8937C163.782 70.0892 163.979 70.2113 164.19 70.1985L174.676 69.5629C174.79 69.556 174.898 69.5105 174.982 69.4338L182.029 63.0289Z" fill="#D82322" stroke="#D82322" stroke-linejoin="round"/>
<path d="M153.809 42.5464C153.966 42.4037 154.016 42.1775 153.934 41.9821C153.851 41.7866 153.654 41.6645 153.443 41.6773L153.172 41.6937C153.058 41.7006 152.95 41.7462 152.865 41.8228L145.819 48.2278C145.662 48.3705 145.612 48.5966 145.694 48.7921C145.777 48.9875 145.973 49.1097 146.185 49.0969L146.456 49.0804C146.57 49.0735 146.678 49.028 146.762 48.9513L153.809 42.5464Z" fill="#D82322" stroke="#D82322" stroke-linejoin="round"/>
<path d="M171.543 63.6645C171.742 63.4839 171.763 63.1786 171.59 62.973L153.856 41.8549C153.768 41.7507 153.642 41.6867 153.507 41.6775C153.371 41.6684 153.237 41.7149 153.137 41.8064L146.09 48.2113C145.891 48.3919 145.871 48.6973 146.043 48.9029L163.777 70.021C163.865 70.1252 163.991 70.1892 164.126 70.1983C164.262 70.2075 164.396 70.161 164.496 70.0695L171.543 63.6645Z" fill="#D82322" stroke="#D82322" stroke-linejoin="round"/>
<path d="M153.701 42.17C153.692 41.9764 153.573 41.8054 153.394 41.7311C153.215 41.6567 153.009 41.6925 152.865 41.8228L145.819 48.2278C145.708 48.3279 145.649 48.4719 145.655 48.6206L146.666 70.7524C146.675 70.9459 146.795 71.117 146.974 71.1913C147.153 71.2656 147.358 71.2299 147.502 71.0996L154.549 64.6946C154.659 64.5945 154.719 64.4505 154.712 64.3018L153.701 42.17Z" fill="#D82322" stroke="#D82322" stroke-linejoin="round"/>
<path d="M141.983 65.4562C142.094 65.3561 142.153 65.2121 142.147 65.0634L140.223 22.9389C140.214 22.7454 140.095 22.5743 139.916 22.5C139.737 22.4257 139.531 22.4614 139.387 22.5917L132.341 28.9967C132.23 29.0968 132.171 29.2408 132.177 29.3895L134.101 71.514C134.11 71.7075 134.229 71.8786 134.408 71.9529C134.587 72.0272 134.793 71.9915 134.937 71.8612L141.983 65.4562Z" fill="#D82322" stroke="#D82322" stroke-linejoin="round"/>
<path d="M110.253 28.0614C110.165 28.0795 110.083 28.1209 110.017 28.1812L102.97 34.5861C102.803 34.7376 102.758 34.9819 102.861 35.1827C102.963 35.3835 103.186 35.4913 103.407 35.4459L115.69 32.9222C115.778 32.9041 115.859 32.8628 115.926 32.8024L122.973 26.3975C123.139 26.246 123.184 26.0017 123.082 25.8009C122.98 25.6001 122.756 25.4924 122.536 25.5377L110.253 28.0614Z" fill="#D82322" stroke="#D82322" stroke-linejoin="round"/>
<path d="M123.129 25.9421C123.098 25.7623 122.971 25.6138 122.799 25.5546C122.626 25.4953 122.435 25.5348 122.3 25.6575L115.253 32.0624C115.127 32.1775 115.068 32.3492 115.097 32.5178L119.72 59.1981C119.751 59.3779 119.878 59.5264 120.05 59.5856C120.223 59.6449 120.414 59.6054 120.549 59.4827L127.596 53.0778C127.723 52.9627 127.782 52.791 127.752 52.6224L123.129 25.9421Z" fill="#D82322" stroke="#D82322" stroke-linejoin="round"/>
<path d="M154.549 64.6946C154.706 64.5519 154.755 64.3258 154.673 64.1303C154.591 63.9349 154.394 63.8127 154.182 63.8255L141.617 64.5872C141.503 64.5941 141.395 64.6396 141.311 64.7162L134.264 71.1212C134.107 71.2639 134.057 71.4901 134.14 71.6855C134.222 71.8809 134.419 72.0031 134.63 71.9903L147.196 71.2287C147.309 71.2218 147.417 71.1762 147.502 71.0996L154.549 64.6946Z" fill="#D82322" stroke="#D82322" stroke-linejoin="round"/>
<path d="M115.144 54.6254C115.27 54.5104 115.329 54.3386 115.3 54.1701L110.846 28.4658C110.815 28.2861 110.688 28.1376 110.516 28.0783C110.343 28.0191 110.152 28.0585 110.017 28.1812L102.97 34.5862C102.843 34.7012 102.784 34.873 102.814 35.0415L107.268 60.7458C107.299 60.9255 107.426 61.074 107.598 61.1333C107.771 61.1925 107.962 61.1531 108.097 61.0304L115.144 54.6254Z" fill="#D82322" stroke="#D82322" stroke-linejoin="round"/>
<path d="M127.752 52.6225C127.721 52.4427 127.595 52.2942 127.422 52.2349C127.25 52.1757 127.058 52.2151 126.923 52.3378L119.877 58.7428C119.75 58.8578 119.691 59.0296 119.72 59.1981C120.254 62.2797 119.913 65.0892 118.713 67.6445C118.612 67.8603 118.677 68.1177 118.869 68.2593C119.06 68.4009 119.326 68.3874 119.502 68.2271L126.549 61.8221C126.598 61.7778 126.637 61.7243 126.665 61.6647C127.961 58.9057 128.318 55.8856 127.752 52.6225Z" fill="#D82322" stroke="#D82322" stroke-linejoin="round"/>
<path d="M126.665 61.664C126.766 61.4482 126.701 61.1911 126.509 61.0497C126.317 60.9082 126.053 60.9218 125.876 61.0821L118.829 67.487C118.78 67.5315 118.741 67.5853 118.713 67.6452C117.859 69.4704 116.638 71.1073 115.045 72.5566C114.841 72.7424 114.826 73.0586 115.011 73.2629C115.197 73.4672 115.513 73.4822 115.718 73.2965L115.718 73.2964C115.718 73.2962 115.718 73.2961 115.718 73.2959L122.764 66.8916L122.765 66.8915C124.45 65.3589 125.752 63.6162 126.665 61.664Z" fill="#D82322" stroke="#D82322" stroke-linejoin="round"/>
<path d="M83.4769 33.5628C83.389 33.5808 83.3076 33.6222 83.2412 33.6825L76.1943 40.0875C76.0277 40.239 75.9829 40.4832 76.0849 40.684C76.1869 40.8848 76.4106 40.9926 76.6313 40.9473L88.9145 38.4235C89.0023 38.4055 89.0837 38.3641 89.1501 38.3038L96.197 31.8988C96.3637 31.7473 96.4085 31.5031 96.3065 31.3023C96.2044 31.1015 95.9807 30.9937 95.7601 31.039L83.4769 33.5628Z" fill="#D82322" stroke="#D82322" stroke-linejoin="round"/>
<path d="M114.815 58.2731C114.872 58.2209 114.917 58.1559 114.945 58.0835C115.422 56.8495 115.538 55.5412 115.3 54.1701C115.269 53.9903 115.142 53.8418 114.97 53.7825C114.797 53.7233 114.606 53.7627 114.471 53.8854L107.424 60.2904C107.298 60.4054 107.239 60.5772 107.268 60.7458C107.477 61.9505 107.373 63.074 106.965 64.1277C106.882 64.344 106.958 64.5893 107.149 64.7204C107.34 64.8516 107.596 64.834 107.768 64.6781L114.815 58.2731Z" fill="#D82322" stroke="#D82322" stroke-linejoin="round"/>
<path d="M96.3534 31.4434C96.3222 31.2637 96.1956 31.1152 96.0231 31.0559C95.8505 30.9967 95.6594 31.0361 95.5244 31.1588L88.4775 37.5638C88.351 37.6788 88.292 37.8506 88.3212 38.0191L92.7754 63.7234C92.8066 63.9031 92.9332 64.0516 93.1057 64.1109C93.2783 64.1701 93.4694 64.1307 93.6044 64.008L100.651 57.603C100.778 57.488 100.837 57.3162 100.808 57.1477L96.3534 31.4434Z" fill="#D82322" stroke="#D82322" stroke-linejoin="round"/>
<path d="M105.31 66.5092L105.31 66.5092C105.109 66.6953 105.095 67.0095 105.279 67.2129C105.464 67.4161 105.778 67.4321 105.982 67.2495L105.982 67.2495L105.986 67.2465L105.986 67.2464L113.029 60.8445C113.887 60.0651 114.527 59.1444 114.944 58.0861C115.029 57.8699 114.954 57.6235 114.762 57.4915C114.571 57.3596 114.314 57.3768 114.142 57.5331L107.095 63.938C107.039 63.9896 106.994 64.0536 106.966 64.125C106.608 65.0355 106.059 65.8281 105.313 66.5062C105.313 66.5063 105.313 66.5064 105.313 66.5065C105.313 66.5065 105.313 66.5066 105.313 66.5066C105.313 66.5066 105.313 66.5066 105.313 66.5066L105.31 66.5092Z" fill="#D82322" stroke="#D82322" stroke-linejoin="round"/>
<path d="M122.092 66.1516L122.084 66.1592C121.451 66.7337 120.759 67.2792 120.008 67.7953C119.989 67.8081 119.971 67.8222 119.955 67.8375L112.908 74.2424C112.713 74.4193 112.689 74.7167 112.852 74.9228C113.015 75.129 113.31 75.1734 113.527 75.0246C114.317 74.482 115.047 73.9061 115.718 73.2964L122.755 66.8999C122.755 66.8997 122.756 66.8995 122.756 66.8994L122.756 66.8993C122.756 66.8993 122.756 66.8993 122.756 66.8993L122.765 66.8915L122.764 66.8914C122.961 66.7047 122.973 66.3945 122.79 66.193C122.607 65.9914 122.296 65.974 122.092 66.1517L122.092 66.1516Z" fill="#D82322" stroke="#D82322" stroke-linejoin="round"/>
<path d="M112.012 60.3982C112.004 60.4047 111.996 60.4115 111.988 60.4186L104.942 66.8235C104.742 67.0051 104.722 67.3126 104.897 67.518C105.073 67.7235 105.379 67.7526 105.59 67.5839C105.726 67.4756 105.856 67.3641 105.983 67.2495L105.983 67.2494L113.029 60.845C113.029 60.8448 113.029 60.8447 113.029 60.8445L113.03 60.8444C113.234 60.6587 113.249 60.3425 113.063 60.1382C112.878 59.9338 112.561 59.9187 112.357 60.1043C112.247 60.2047 112.132 60.3026 112.012 60.3982Z" fill="#D82322" stroke="#D82322" stroke-linejoin="round"/>
<path d="M108.616 61.9245C108.529 61.9426 108.447 61.984 108.381 62.0443L101.334 68.4493C101.167 68.6008 101.122 68.845 101.224 69.0458C101.326 69.2466 101.55 69.3544 101.771 69.309C103.251 69.0048 104.529 68.433 105.59 67.5839C105.598 67.5774 105.606 67.5706 105.614 67.5635L112.661 61.1586C112.861 60.977 112.88 60.6695 112.705 60.464C112.53 60.2586 112.223 60.2295 112.012 60.3982C111.091 61.1357 109.964 61.6478 108.616 61.9245Z" fill="#D82322" stroke="#D82322" stroke-linejoin="round"/>
<path d="M104.95 61.851C104.784 61.8037 104.605 61.8456 104.477 61.9619L97.4302 68.3669C97.2959 68.4889 97.2383 68.6742 97.2797 68.851C97.3211 69.0277 97.455 69.1681 97.6296 69.2178C98.9205 69.5851 100.304 69.6104 101.771 69.3091C101.859 69.291 101.94 69.2497 102.006 69.1893L109.053 62.7844C109.22 62.6329 109.265 62.3886 109.163 62.1878C109.061 61.987 108.837 61.8793 108.616 61.9246C107.285 62.1982 106.066 62.1685 104.95 61.851Z" fill="#D82322" stroke="#D82322" stroke-linejoin="round"/>
<path d="M120.627 68.5775C120.821 68.4008 120.846 68.104 120.683 67.8978C120.521 67.6916 120.226 67.6464 120.009 67.7942C117.359 69.5997 114.13 70.9004 110.308 71.6856C110.22 71.7037 110.139 71.745 110.072 71.8054L103.025 78.2103C102.859 78.3618 102.814 78.6061 102.916 78.8069C103.018 79.0077 103.242 79.1154 103.462 79.0701C107.388 78.2636 110.746 76.9191 113.525 75.0256C113.545 75.0125 113.563 74.9981 113.58 74.9824L120.627 68.5775Z" fill="#D82322" stroke="#D82322" stroke-linejoin="round"/>
<path d="M100.808 57.1477C100.776 56.9679 100.65 56.8194 100.477 56.7601C100.305 56.7009 100.114 56.7403 99.9786 56.863L92.9318 63.268C92.8052 63.383 92.7462 63.5548 92.7754 63.7234C93.013 65.0943 93.5591 66.2715 94.4221 67.2375C94.511 67.3369 94.6359 67.3968 94.769 67.4037C94.9022 67.4106 95.0326 67.3641 95.1313 67.2744L102.178 60.8694C102.381 60.6848 102.398 60.371 102.215 60.1663C101.488 59.353 101.016 58.3526 100.808 57.1477Z" fill="#D82322" stroke="#D82322" stroke-linejoin="round"/>
<path d="M102.213 60.1641C102.124 60.0655 101.999 60.0065 101.866 60C101.734 59.9936 101.604 60.0401 101.506 60.1294L94.4587 66.5344C94.2547 66.7198 94.2393 67.0354 94.4242 67.2398C95.2819 68.188 96.3538 68.8469 97.6269 69.2169C97.7939 69.2655 97.9741 69.2238 98.1028 69.1068L105.15 62.7018C105.284 62.5801 105.341 62.3955 105.3 62.2191C105.26 62.0428 105.127 61.9022 104.953 61.8517C103.849 61.5308 102.94 60.9681 102.213 60.1641Z" fill="#D82322" stroke="#D82322" stroke-linejoin="round"/>
<path d="M88.5372 61.1029C88.6638 60.9879 88.7228 60.8161 88.6936 60.6476L84.0702 33.9672C84.039 33.7875 83.9124 33.639 83.7399 33.5797C83.5673 33.5205 83.3762 33.5599 83.2412 33.6826L76.1943 40.0876C76.0678 40.2026 76.0088 40.3744 76.038 40.5429L80.6614 67.2233C80.6925 67.403 80.8191 67.5515 80.9916 67.6108C81.1642 67.67 81.3553 67.6306 81.4903 67.5079L88.5372 61.1029Z" fill="#D82322" stroke="#D82322" stroke-linejoin="round"/>
<path d="M110.745 72.5454C110.912 72.3939 110.956 72.1497 110.854 71.9489C110.752 71.7481 110.529 71.6403 110.308 71.6856C106.456 72.4771 103.001 72.5495 99.934 71.9209C99.7777 71.8888 99.6154 71.9333 99.4973 72.0407L92.4504 78.4456C92.3111 78.5722 92.2548 78.7664 92.3046 78.9479C92.3544 79.1295 92.5019 79.2676 92.6863 79.3054C95.9136 79.967 99.5085 79.8825 103.462 79.0701C103.55 79.0521 103.632 79.0107 103.698 78.9504L110.745 72.5454Z" fill="#D82322" stroke="#D82322" stroke-linejoin="round"/>
<path d="M92.3945 68.8395C92.4963 68.747 92.5555 68.6167 92.5581 68.4792C92.5608 68.3417 92.5067 68.2091 92.4086 68.1128C90.4714 66.2105 89.228 63.7314 88.6936 60.6475C88.6624 60.4678 88.5359 60.3193 88.3633 60.26C88.1908 60.2008 87.9996 60.2402 87.8646 60.3629L80.8178 66.7679C80.6912 66.8829 80.6322 67.0547 80.6614 67.2232C81.2265 70.4841 82.5546 73.1628 84.661 75.2312C84.8502 75.417 85.1515 75.4228 85.3477 75.2445L92.3945 68.8395Z" fill="#D82322" stroke="#D82322" stroke-linejoin="round"/>
<path d="M100.17 72.7807C100.309 72.6543 100.365 72.4607 100.316 72.2794C100.267 72.0981 100.12 71.9597 99.9359 71.9213C96.866 71.2793 94.3634 70.0048 92.406 68.1103C92.2165 67.9269 91.9171 67.9222 91.7219 68.0995L84.6751 74.5045C84.5728 74.5974 84.5136 74.7285 84.5114 74.8667C84.5092 75.0048 84.5643 75.1377 84.6636 75.2338C86.7746 77.2769 89.4555 78.6298 92.6843 79.3051C92.8412 79.3379 93.0044 79.2935 93.123 79.1856L100.17 72.7807Z" fill="#D82322" stroke="#D82322" stroke-linejoin="round"/>
<path d="M55.1712 42.6998C55.1094 42.722 55.0525 42.7561 55.0039 42.8003L47.957 49.2053C47.7805 49.3657 47.7419 49.6285 47.8648 49.8329C47.9877 50.0373 48.2379 50.1265 48.4624 50.0458L60.174 45.8389C60.2359 45.8167 60.2927 45.7825 60.3413 45.7383L67.3882 39.3334C67.5647 39.173 67.6033 38.9102 67.4804 38.7058C67.3575 38.5013 67.1073 38.4122 66.8828 38.4928L55.1712 42.6998Z" fill="#D82322" stroke="#D82322" stroke-linejoin="round"/>
<path d="M67.5296 38.8157C67.4791 38.6524 67.3487 38.5261 67.1837 38.4811C67.0187 38.436 66.8422 38.4784 66.7156 38.5934L59.6688 44.9983C59.5252 45.1288 59.4701 45.3306 59.5274 45.516L72.0724 86.1056C72.1229 86.269 72.2534 86.3952 72.4183 86.4403C72.5833 86.4853 72.7598 86.443 72.8864 86.3279L79.9333 79.923C80.0768 79.7925 80.132 79.5907 80.0747 79.4053L67.5296 38.8157Z" fill="#D82322" stroke="#D82322" stroke-linejoin="round"/>
<path d="M60.5769 59.3957C60.7205 59.2652 60.7756 59.0634 60.7183 58.878L55.8179 43.0227C55.7674 42.8593 55.6369 42.7331 55.472 42.688C55.307 42.643 55.1305 42.6853 55.0039 42.8003L47.957 49.2053C47.8135 49.3358 47.7583 49.5376 47.8156 49.7229L52.716 65.5783C52.7665 65.7416 52.897 65.8679 53.062 65.9129C53.2269 65.958 53.4035 65.9156 53.53 65.8006L60.5769 59.3957Z" fill="#D82322" stroke="#D82322" stroke-linejoin="round"/>
<path d="M44.5684 64.124C44.5066 64.1462 44.4497 64.1804 44.4011 64.2246L37.3543 70.6295C37.1777 70.79 37.1391 71.0527 37.262 71.2572C37.3849 71.4616 37.6351 71.5508 37.8596 71.4701L53.3628 65.9012C53.4246 65.879 53.4815 65.8448 53.5301 65.8007L60.5769 59.3957C60.7534 59.2353 60.7921 58.9725 60.6692 58.7681C60.5463 58.5637 60.2961 58.4745 60.0716 58.5551L44.5684 64.124Z" fill="#D82322" stroke="#D82322" stroke-linejoin="round"/>
<path d="M79.9333 79.923C80.1098 79.7626 80.1484 79.4998 80.0255 79.2954C79.9026 79.0909 79.6524 79.0018 79.4279 79.0824L67.7163 83.2894C67.6545 83.3116 67.5976 83.3457 67.549 83.3899L60.5021 89.7949C60.3256 89.9553 60.287 90.2181 60.4099 90.4225C60.5328 90.6269 60.783 90.7161 61.0075 90.6354L72.7191 86.4285C72.781 86.4063 72.8378 86.3721 72.8864 86.3279L79.9333 79.923Z" fill="#D82322" stroke="#D82322" stroke-linejoin="round"/>
<path d="M68.2216 84.13C68.3651 83.9995 68.4203 83.7977 68.363 83.6123L63.4626 67.757C63.4121 67.5936 63.2816 67.4674 63.1166 67.4223C62.9517 67.3773 62.7751 67.4196 62.6486 67.5347L55.6017 73.9396C55.4581 74.0701 55.403 74.2719 55.4603 74.4573L60.3607 90.3126C60.4112 90.476 60.5417 90.6022 60.7066 90.6473C60.8716 90.6923 61.0481 90.65 61.1747 90.5349L68.2216 84.13Z" fill="#D82322" stroke="#D82322" stroke-linejoin="round"/>
<path d="M40.3147 48.5916C40.2642 48.4282 40.1338 48.302 39.9688 48.2569C39.8038 48.2119 39.6273 48.2542 39.5007 48.3693L32.4539 54.7742C32.3103 54.9047 32.2552 55.1065 32.3125 55.2919L37.2129 71.1472C37.2634 71.3106 37.3938 71.4368 37.5588 71.4819C37.7238 71.5269 37.9003 71.4845 38.0269 71.3695L45.0737 64.9646C45.2173 64.8341 45.2724 64.6323 45.2151 64.4469L40.3147 48.5916Z" fill="#D82322" stroke="#D82322" stroke-linejoin="round"/>
<path d="M27.9563 52.4756C27.8945 52.4978 27.8377 52.532 27.7891 52.5762L20.7422 58.9812C20.5657 59.1416 20.5271 59.4043 20.65 59.6088C20.7729 59.8132 21.023 59.9024 21.2475 59.8217L32.9592 55.6148C33.021 55.5926 33.0778 55.5584 33.1265 55.5142L40.1733 49.1093C40.3498 48.9488 40.3885 48.6861 40.2656 48.4816C40.1427 48.2772 39.8925 48.1881 39.668 48.2687L27.9563 52.4756Z" fill="#D82322" stroke="#D82322" stroke-linejoin="round"/>
<path d="M63.3211 68.2747C63.4976 68.1142 63.5363 67.8515 63.4134 67.647C63.2905 67.4426 63.0403 67.3535 62.8158 67.4341L47.3126 73.003C47.2508 73.0252 47.1939 73.0594 47.1453 73.1036L40.0985 79.5085C39.9219 79.6689 39.8833 79.9317 40.0062 80.1361C40.1291 80.3406 40.3793 80.4297 40.6038 80.3491L56.107 74.7802C56.1688 74.758 56.2257 74.7238 56.2743 74.6796L63.3211 68.2747Z" fill="#D82322" stroke="#D82322" stroke-linejoin="round"/>
<path d="M47.9593 73.3259C47.9088 73.1625 47.7783 73.0363 47.6134 72.9912C47.4484 72.9462 47.2719 72.9886 47.1453 73.1036L40.0985 79.5085C39.9549 79.639 39.8998 79.8408 39.957 80.0262L44.8574 95.8815C44.9079 96.0449 45.0384 96.1711 45.2034 96.2162C45.3684 96.2612 45.5449 96.2189 45.6715 96.1038L52.7183 89.6989C52.8619 89.5684 52.917 89.3666 52.8597 89.1812L47.9593 73.3259Z" fill="#D82322" stroke="#D82322" stroke-linejoin="round"/>
<path d="M41.0067 93.9058C41.1503 93.7753 41.2054 93.5736 41.1481 93.3882L28.6031 52.7986C28.5526 52.6352 28.4221 52.509 28.2571 52.4639C28.0922 52.4188 27.9156 52.4612 27.7891 52.5762L20.7422 58.9812C20.5986 59.1117 20.5435 59.3135 20.6008 59.4988L33.1458 100.088C33.1963 100.252 33.3268 100.378 33.4918 100.423C33.6567 100.468 33.8333 100.426 33.9598 100.311L41.0067 93.9058Z" fill="#D82322" stroke="#D82322" stroke-linejoin="round"/>
<path d="M52.7184 89.6989C52.8949 89.5384 52.9335 89.2757 52.8106 89.0712C52.6877 88.8668 52.4375 88.7777 52.213 88.8583L40.5014 93.0652C40.4396 93.0874 40.3827 93.1216 40.3341 93.1658L33.2872 99.5708C33.1107 99.7312 33.0721 99.994 33.195 100.198C33.3179 100.403 33.5681 100.492 33.7926 100.411L45.5042 96.2044C45.5661 96.1822 45.6229 96.148 45.6715 96.1038L52.7184 89.6989Z" fill="#D82322" stroke="#D82322" stroke-linejoin="round"/>
<path d="M42.1849 97.1251L28.5306 52.6994L40.4351 48.3999L45.7688 65.7537L61.5272 60.0623L56.1936 42.7085L68.098 38.409L81.7523 82.8348L69.8478 87.1342L64.5141 69.7804L48.7557 75.4718L54.0893 92.8256L42.1849 97.1251Z" fill="#D56359"/>
<path d="M111.001 28.184L123.389 25.6242L128.446 54.9819C129.048 58.4726 128.736 61.6653 127.512 64.56C126.3 67.4367 124.336 69.8741 121.619 71.8722C118.899 73.8554 115.586 75.2507 111.68 76.0579C107.743 76.8713 104.179 76.8972 100.987 76.1356C97.7917 75.359 95.1514 73.8731 93.0658 71.6778C90.9925 69.4646 89.6551 66.6126 89.0538 63.1219L83.9968 33.7641L96.3849 31.2043L101.257 59.488C101.501 60.9051 102.031 62.1087 102.848 63.0986C103.662 64.0736 104.673 64.7607 105.88 65.1602C107.102 65.5565 108.418 65.6089 109.829 65.3173C111.255 65.0226 112.464 64.4485 113.455 63.5948C114.446 62.7411 115.159 61.6979 115.593 60.4651C116.024 59.2173 116.117 57.8849 115.873 56.4677L111.001 28.184Z" fill="#D56359"/>
<path d="M180.909 19.4413L183.013 65.9226L172.483 66.5654L154.584 43.1697L154.311 43.1864L155.417 67.6072L142.799 68.3775L140.694 21.8962L151.406 21.2423L169.029 44.5638L169.392 44.5416L168.291 20.2115L180.909 19.4413Z" fill="#D56359"/>
<path d="M223.479 38.2942C223.349 37.4767 223.098 36.7475 222.726 36.1067C222.355 35.4508 221.871 34.8839 221.272 34.406C220.69 33.9143 219.993 33.5267 219.18 33.2432C218.384 32.9459 217.496 32.7546 216.515 32.6695C214.403 32.486 212.557 32.8354 210.979 33.7176C209.416 34.6011 208.162 35.9603 207.219 37.7952C206.291 39.6314 205.714 41.8936 205.49 44.582C205.264 47.3006 205.439 49.6586 206.018 51.656C206.596 53.6534 207.574 55.2291 208.952 56.3832C210.33 57.5373 212.106 58.2087 214.279 58.3974C216.195 58.5638 217.81 58.4226 219.125 57.9738C220.454 57.5264 221.478 56.8167 222.198 55.8447C222.917 54.8727 223.335 53.692 223.45 52.3025L225.605 52.7177L215.011 51.7979L215.759 42.8266L236.312 44.6111L235.776 51.0451C235.423 55.274 234.223 58.8132 232.177 61.6628C230.147 64.4987 227.496 66.5808 224.224 67.9092C220.968 69.2238 217.318 69.7056 213.274 69.3544C208.762 68.9627 204.881 67.6597 201.63 65.4455C198.38 63.2313 195.944 60.2664 194.324 56.5507C192.719 52.8364 192.12 48.5325 192.528 43.6391C192.848 39.8029 193.712 36.4551 195.121 33.5958C196.545 30.7378 198.383 28.3797 200.635 26.5216C202.889 24.6484 205.425 23.3093 208.243 22.5043C211.063 21.6842 214.034 21.4098 217.158 21.681C219.904 21.9194 222.422 22.5335 224.71 23.5233C227.015 24.4993 229.013 25.7833 230.704 27.3753C232.412 28.9535 233.743 30.7653 234.697 32.8105C235.651 34.8558 236.152 37.0518 236.2 39.3987L223.479 38.2942Z" fill="#D56359"/>
<path d="M244.926 71.8188L254.333 26.1941L287.006 33.652L284.948 43.6324L264.583 38.9838L262.966 46.8256L281.649 51.0901L279.592 61.0706L260.909 56.806L259.292 64.6478L279.569 69.2761L277.511 79.2565L244.926 71.8188Z" fill="#D56359"/>
<path d="M286.797 81.8002L301.262 37.4948L320.094 44.409C323.332 45.5979 325.97 47.2367 328.008 49.3254C330.046 51.4141 331.372 53.8311 331.986 56.5763C332.601 59.3216 332.395 62.2662 331.368 65.4103C330.333 68.5832 328.763 71.003 326.66 72.6698C324.572 74.3418 322.096 75.2742 319.234 75.467C316.386 75.665 313.301 75.1539 309.977 73.9338L298.729 69.804L301.781 60.4583L310.643 63.7121C312.035 64.2231 313.277 64.4854 314.37 64.4991C315.482 64.5035 316.428 64.2128 317.207 63.6269C318.001 63.0462 318.603 62.1285 319.013 60.8738C319.427 59.6046 319.494 58.4744 319.213 57.483C318.951 56.4824 318.385 55.6121 317.513 54.8721C316.66 54.1229 315.538 53.4928 314.146 52.9818L309.971 51.4488L298.641 86.149L286.797 81.8002ZM319 70.8505L323.268 95.1907L310.401 90.4665L306.389 66.2202L319 70.8505Z" fill="#D56359"/>
</svg>
