<svg width="56" height="24" viewBox="0 0 56 24" fill="none" xmlns="http://www.w3.org/2000/svg">
<path d="M0.93934 10.9393C0.353553 11.5251 0.353553 12.4749 0.93934 13.0607L10.4853 22.6066C11.0711 23.1924 12.0208 23.1924 12.6066 22.6066C13.1924 22.0208 13.1924 21.0711 12.6066 20.4853L4.12132 12L12.6066 3.51472C13.1924 2.92893 13.1924 1.97919 12.6066 1.3934C12.0208 0.807611 11.0711 0.807611 10.4853 1.3934L0.93934 10.9393ZM55.0607 13.0607C55.6464 12.4749 55.6464 11.5251 55.0607 10.9393L45.5147 1.3934C44.9289 0.807611 43.9792 0.807611 43.3934 1.3934C42.8076 1.97919 42.8076 2.92893 43.3934 3.51472L51.8787 12L43.3934 20.4853C42.8076 21.0711 42.8076 22.0208 43.3934 22.6066C43.9792 23.1924 44.9289 23.1924 45.5147 22.6066L55.0607 13.0607ZM2 13.5H54V10.5H2V13.5Z" fill="#726D80"/>
</svg>
